Mako-Regular.ufo
<glyph name="exclam" format="1">
  <advance width="523"/>
  <unicode hex="0021"/>
  <outline>
    <contour>
      <point x="348" y="-14" type="line"/>
      <point x="173" y="-14" type="line"/>
      <point x="173" y="165" type="line"/>
      <point x="348" y="165" type="line"/>
    </contour>
    <contour>
      <point x="217" y="355" type="line"/>
      <point x="212" y="426"/>
      <point x="204" y="540" type="qcurve"/>
      <point x="197" y="637"/>
      <point x="177" y="944"/>
      <point x="163" y="1162" type="qcurve"/>
      <point x="163" y="1169"/>
      <point x="162" y="1200"/>
      <point x="160" y="1257"/>
      <point x="159" y="1343"/>
      <point x="158" y="1404" type="qcurve"/>
      <point x="362" y="1404" type="line"/>
      <point x="361" y="1343"/>
      <point x="359" y="1257"/>
      <point x="358" y="1200"/>
      <point x="357" y="1169"/>
      <point x="357" y="1162" type="qcurve"/>
      <point x="343" y="944"/>
      <point x="323" y="637"/>
      <point x="316" y="540" type="qcurve"/>
      <point x="308" y="426"/>
      <point x="303" y="355" type="qcurve"/>
    </contour>
  </outline>
</glyph>
<glyph name="quotedbl" format="1">
  <advance width="606"/>
  <unicode hex="0022"/>
  <outline>
    <contour>
      <point x="273" y="1436" type="line"/>
      <point x="273" y="1362"/>
      <point x="258" y="1211"/>
      <point x="249" y="1148" type="qcurve"/>
      <point x="238" y="1075"/>
      <point x="225" y="1007" type="qcurve"/>
      <point x="152" y="1007" type="line"/>
      <point x="143" y="1061"/>
      <point x="137" y="1128" type="qcurve"/>
      <point x="131" y="1185"/>
      <point x="122" y="1342"/>
      <point x="120" y="1436" type="qcurve"/>
    </contour>
    <contour>
      <point x="497" y="1436" type="line"/>
      <point x="497" y="1362"/>
      <point x="479" y="1211"/>
      <point x="468" y="1148" type="qcurve"/>
      <point x="455" y="1075"/>
      <point x="439" y="1007" type="qcurve"/>
      <point x="369" y="1007" type="line"/>
      <point x="364" y="1027"/>
      <point x="356" y="1116"/>
      <point x="350" y="1233"/>
      <point x="347" y="1368"/>
      <point x="347" y="1436" type="qcurve"/>
    </contour>
  </outline>
</glyph>
<glyph name="numbersign" format="1">
  <advance width="1226"/>
  <unicode hex="0023"/>
  <outline>
    <contour>
      <point x="429" y="430" type="line"/>
      <point x="395" y="103" type="line"/>
      <point x="245" y="103" type="line"/>
      <point x="278" y="430" type="line"/>
      <point x="88" y="430" type="line"/>
      <point x="98" y="559" type="line"/>
      <point x="290" y="559" type="line"/>
      <point x="334" y="992" type="line"/>
      <point x="139" y="992" type="line"/>
      <point x="153" y="1119" type="line"/>
      <point x="348" y="1119" type="line"/>
      <point x="382" y="1462" type="line"/>
      <point x="533" y="1462" type="line"/>
      <point x="498" y="1119" type="line"/>
      <point x="809" y="1119" type="line"/>
      <point x="841" y="1460" type="line"/>
      <point x="993" y="1460" type="line"/>
      <point x="960" y="1119" type="line"/>
      <point x="1139" y="1119" type="line"/>
      <point x="1124" y="992" type="line"/>
      <point x="945" y="992" type="line"/>
      <point x="901" y="559" type="line"/>
      <point x="1092" y="559" type="line"/>
      <point x="1082" y="430" type="line"/>
      <point x="888" y="430" type="line"/>
      <point x="856" y="102" type="line"/>
      <point x="703" y="102" type="line"/>
      <point x="739" y="430" type="line"/>
    </contour>
    <contour>
      <point x="749" y="559" type="line"/>
      <point x="792" y="992" type="line"/>
      <point x="486" y="992" type="line"/>
      <point x="443" y="559" type="line"/>
    </contour>
  </outline>
</glyph>
<glyph name="dollar" format="1">
  <advance width="1014"/>
  <unicode hex="0024"/>
  <outline>
    <contour>
      <point x="473" y="32" type="line"/>
      <point x="466" y="32"/>
      <point x="442" y="33"/>
      <point x="436" y="33" type="qcurve"/>
      <point x="367" y="36"/>
      <point x="255" y="59"/>
      <point x="216" y="72" type="qcurve"/>
      <point x="170" y="87"/>
      <point x="135" y="104" type="qcurve"/>
      <point x="110" y="254" type="line"/>
      <point x="154" y="234"/>
      <point x="207" y="217" type="qcurve"/>
      <point x="252" y="203"/>
      <point x="370" y="178"/>
      <point x="438" y="175" type="qcurve"/>
      <point x="443" y="175"/>
      <point x="464" y="174"/>
      <point x="470" y="174" type="qcurve"/>
      <point x="458" y="651" type="line"/>
      <point x="445" y="655"/>
      <point x="421" y="663"/>
      <point x="409" y="667" type="qcurve"/>
      <point x="329" y="694"/>
      <point x="211" y="756"/>
      <point x="132" y="838"/>
      <point x="93" y="948"/>
      <point x="93" y="1022" type="qcurve"/>
      <point x="93" y="1096"/>
      <point x="144" y="1212"/>
      <point x="236" y="1296"/>
      <point x="365" y="1345"/>
      <point x="442" y="1353" type="qcurve"/>
      <point x="437" y="1593" type="line"/>
      <point x="544" y="1593" type="line"/>
      <point x="549" y="1356" type="line"/>
      <point x="613" y="1354"/>
      <point x="723" y="1337"/>
      <point x="764" y="1328" type="qcurve"/>
      <point x="812" y="1317"/>
      <point x="851" y="1305" type="qcurve"/>
      <point x="871" y="1154" type="line"/>
      <point x="828" y="1169"/>
      <point x="777" y="1181" type="qcurve"/>
      <point x="733" y="1192"/>
      <point x="618" y="1210"/>
      <point x="552" y="1213" type="qcurve"/>
      <point x="563" y="787" type="line"/>
      <point x="653" y="758"/>
      <point x="791" y="702"/>
      <point x="883" y="619"/>
      <point x="930" y="495"/>
      <point x="930" y="398" type="qcurve"/>
      <point x="930" y="323"/>
      <point x="891" y="199"/>
      <point x="807" y="105"/>
      <point x="674" y="45"/>
      <point x="580" y="35" type="qcurve"/>
      <point x="586" y="-201" type="line"/>
      <point x="478" y="-201" type="line"/>
    </contour>
    <contour>
      <point x="754" y="381" type="qcurve"/>
      <point x="754" y="429"/>
      <point x="736" y="499"/>
      <point x="693" y="553"/>
      <point x="620" y="594"/>
      <point x="566" y="613" type="qcurve"/>
      <point x="577" y="184" type="line"/>
      <point x="618" y="191"/>
      <point x="684" y="220"/>
      <point x="730" y="268"/>
      <point x="754" y="335"/>
    </contour>
    <contour>
      <point x="257" y="1016" type="qcurve"/>
      <point x="257" y="979"/>
      <point x="277" y="924"/>
      <point x="323" y="879"/>
      <point x="398" y="841"/>
      <point x="454" y="822" type="qcurve"/>
      <point x="446" y="1206" type="line"/>
      <point x="405" y="1200"/>
      <point x="336" y="1171"/>
      <point x="285" y="1125"/>
      <point x="257" y="1059"/>
    </contour>
  </outline>
</glyph>
<glyph name="percent" format="1">
  <advance width="1394"/>
  <unicode hex="0025"/>
  <outline>
    <contour>
      <point x="351" y="864" type="qcurve"/>
      <point x="394" y="864"/>
      <point x="450" y="897"/>
      <point x="483" y="958"/>
      <point x="496" y="1045"/>
      <point x="496" y="1099" type="qcurve"/>
      <point x="496" y="1154"/>
      <point x="483" y="1241"/>
      <point x="450" y="1302"/>
      <point x="394" y="1335"/>
      <point x="351" y="1335" type="qcurve"/>
      <point x="307" y="1335"/>
      <point x="251" y="1302"/>
      <point x="218" y="1241"/>
      <point x="205" y="1154"/>
      <point x="205" y="1099" type="qcurve"/>
      <point x="205" y="1045"/>
      <point x="218" y="958"/>
      <point x="251" y="897"/>
      <point x="307" y="864"/>
    </contour>
    <contour>
      <point x="83" y="1099" type="qcurve"/>
      <point x="83" y="1270"/>
      <point x="221" y="1438"/>
      <point x="351" y="1438" type="qcurve"/>
      <point x="483" y="1438"/>
      <point x="619" y="1270"/>
      <point x="619" y="1099" type="qcurve"/>
      <point x="619" y="761"/>
      <point x="351" y="761" type="qcurve"/>
      <point x="219" y="761"/>
      <point x="83" y="928"/>
    </contour>
    <contour>
      <point x="205" y="-12" type="line"/>
      <point x="1083" y="1490" type="line"/>
      <point x="1196" y="1423" type="line"/>
      <point x="314" y="-77" type="line"/>
    </contour>
    <contour>
      <point x="1187" y="321" type="qcurve"/>
      <point x="1187" y="375"/>
      <point x="1174" y="463"/>
      <point x="1141" y="524"/>
      <point x="1085" y="557"/>
      <point x="1042" y="557" type="qcurve"/>
      <point x="998" y="557"/>
      <point x="941" y="524"/>
      <point x="908" y="463"/>
      <point x="895" y="375"/>
      <point x="895" y="321" type="qcurve"/>
      <point x="895" y="267"/>
      <point x="908" y="179"/>
      <point x="941" y="118"/>
      <point x="998" y="85"/>
      <point x="1042" y="85" type="qcurve"/>
      <point x="1085" y="85"/>
      <point x="1141" y="118"/>
      <point x="1174" y="179"/>
      <point x="1187" y="267"/>
    </contour>
    <contour>
      <point x="774" y="321" type="qcurve"/>
      <point x="774" y="492"/>
      <point x="909" y="660"/>
      <point x="1042" y="660" type="qcurve"/>
      <point x="1174" y="660"/>
      <point x="1310" y="492"/>
      <point x="1310" y="321" type="qcurve"/>
      <point x="1310" y="-18"/>
      <point x="1042" y="-18" type="qcurve"/>
      <point x="910" y="-18"/>
      <point x="774" y="150"/>
    </contour>
  </outline>
</glyph>
<glyph name="ampersand" format="1">
  <advance width="1464"/>
  <unicode hex="0026"/>
  <outline>
    <contour>
      <point x="1318" y="-20" type="line"/>
      <point x="1112" y="164" type="line"/>
      <point x="1034" y="69"/>
      <point x="784" y="-24"/>
      <point x="600" y="-24" type="qcurve"/>
      <point x="457" y="-24"/>
      <point x="263" y="37"/>
      <point x="145" y="141"/>
      <point x="94" y="279"/>
      <point x="94" y="353" type="qcurve"/>
      <point x="94" y="418"/>
      <point x="137" y="544"/>
      <point x="219" y="654"/>
      <point x="347" y="753"/>
      <point x="422" y="790" type="qcurve"/>
      <point x="378" y="830"/>
      <point x="293" y="913"/>
      <point x="236" y="1003"/>
      <point x="203" y="1104"/>
      <point x="203" y="1163" type="qcurve"/>
      <point x="203" y="1235"/>
      <point x="250" y="1339"/>
      <point x="346" y="1421"/>
      <point x="491" y="1464"/>
      <point x="590" y="1464" type="qcurve"/>
      <point x="689" y="1464"/>
      <point x="828" y="1419"/>
      <point x="915" y="1339"/>
      <point x="955" y="1241"/>
      <point x="955" y="1176" type="qcurve"/>
      <point x="955" y="1108"/>
      <point x="911" y="992"/>
      <point x="830" y="893"/>
      <point x="717" y="810"/>
      <point x="643" y="770" type="qcurve"/>
      <point x="1080" y="371" type="line"/>
      <point x="1100" y="419"/>
      <point x="1124" y="551"/>
      <point x="1138" y="684"/>
      <point x="1146" y="830"/>
      <point x="1149" y="912" type="qcurve"/>
      <point x="1295" y="923" type="line"/>
      <point x="1295" y="724"/>
      <point x="1250" y="406"/>
      <point x="1193" y="287" type="qcurve"/>
      <point x="1418" y="85" type="line"/>
    </contour>
    <contour>
      <point x="603" y="123" type="qcurve"/>
      <point x="754" y="123"/>
      <point x="946" y="194"/>
      <point x="1003" y="259" type="qcurve"/>
      <point x="514" y="708" type="line"/>
      <point x="390" y="640"/>
      <point x="269" y="480"/>
      <point x="269" y="374" type="qcurve"/>
      <point x="269" y="322"/>
      <point x="298" y="232"/>
      <point x="373" y="164"/>
      <point x="503" y="123"/>
    </contour>
    <contour>
      <point x="367" y="1149" type="qcurve"/>
      <point x="367" y="1110"/>
      <point x="399" y="1030"/>
      <point x="452" y="956"/>
      <point x="518" y="882"/>
      <point x="551" y="853" type="qcurve"/>
      <point x="596" y="880"/>
      <point x="686" y="943"/>
      <point x="758" y="1012"/>
      <point x="803" y="1098"/>
      <point x="803" y="1153" type="qcurve"/>
      <point x="803" y="1199"/>
      <point x="781" y="1268"/>
      <point x="728" y="1315"/>
      <point x="643" y="1338"/>
      <point x="580" y="1338" type="qcurve"/>
      <point x="522" y="1338"/>
      <point x="441" y="1312"/>
      <point x="390" y="1262"/>
      <point x="367" y="1194"/>
    </contour>
  </outline>
</glyph>
<glyph name="quotesingle" format="1">
  <advance width="389"/>
  <unicode hex="0027"/>
  <outline>
    <contour>
      <point x="284" y="1436" type="line"/>
      <point x="284" y="1371"/>
      <point x="263" y="1222"/>
      <point x="250" y="1157" type="qcurve"/>
      <point x="235" y="1081"/>
      <point x="216" y="1007" type="qcurve"/>
      <point x="141" y="1007" type="line"/>
      <point x="138" y="1093"/>
      <point x="135" y="1173" type="qcurve"/>
      <point x="134" y="1207"/>
      <point x="132" y="1280"/>
      <point x="130" y="1349"/>
      <point x="129" y="1412"/>
      <point x="129" y="1436" type="qcurve"/>
    </contour>
  </outline>
</glyph>
<glyph name="parenleft" format="1">
  <advance width="598"/>
  <unicode hex="0028"/>
  <outline>
    <contour>
      <point x="107" y="619" type="qcurve"/>
      <point x="107" y="729"/>
      <point x="137" y="915"/>
      <point x="186" y="1069"/>
      <point x="248" y="1193"/>
      <point x="281" y="1241" type="qcurve"/>
      <point x="358" y="1354"/>
      <point x="456" y="1423" type="qcurve"/>
      <point x="541" y="1326" type="line"/>
      <point x="469" y="1262"/>
      <point x="413" y="1162" type="qcurve"/>
      <point x="389" y="1119"/>
      <point x="343" y="1010"/>
      <point x="308" y="874"/>
      <point x="286" y="712"/>
      <point x="286" y="617" type="qcurve"/>
      <point x="286" y="522"/>
      <point x="308" y="360"/>
      <point x="343" y="225"/>
      <point x="389" y="115"/>
      <point x="413" y="73" type="qcurve"/>
      <point x="469" y="-26"/>
      <point x="541" y="-90" type="qcurve"/>
      <point x="456" y="-186" type="line"/>
      <point x="358" y="-117"/>
      <point x="281" y="-4" type="qcurve"/>
      <point x="248" y="44"/>
      <point x="186" y="168"/>
      <point x="137" y="322"/>
      <point x="107" y="509"/>
    </contour>
  </outline>
</glyph>
<glyph name="parenright" format="1">
  <advance width="596"/>
  <unicode hex="0029"/>
  <outline>
    <contour>
      <point x="489" y="619" type="qcurve"/>
      <point x="489" y="509"/>
      <point x="459" y="322"/>
      <point x="410" y="168"/>
      <point x="348" y="44"/>
      <point x="315" y="-4" type="qcurve"/>
      <point x="238" y="-117"/>
      <point x="141" y="-186" type="qcurve"/>
      <point x="55" y="-90" type="line"/>
      <point x="127" y="-26"/>
      <point x="183" y="73" type="qcurve"/>
      <point x="207" y="115"/>
      <point x="253" y="225"/>
      <point x="289" y="360"/>
      <point x="311" y="522"/>
      <point x="311" y="617" type="qcurve"/>
      <point x="311" y="712"/>
      <point x="289" y="874"/>
      <point x="253" y="1010"/>
      <point x="207" y="1119"/>
      <point x="183" y="1162" type="qcurve"/>
      <point x="127" y="1262"/>
      <point x="55" y="1326" type="qcurve"/>
      <point x="141" y="1423" type="line"/>
      <point x="238" y="1354"/>
      <point x="315" y="1241" type="qcurve"/>
      <point x="348" y="1193"/>
      <point x="410" y="1069"/>
      <point x="459" y="915"/>
      <point x="489" y="729"/>
    </contour>
  </outline>
</glyph>
<glyph name="asterisk" format="1">
  <advance width="875"/>
  <unicode hex="002A"/>
  <outline>
    <contour>
      <point x="309" y="722" type="line"/>
      <point x="212" y="777" type="line"/>
      <point x="357" y="1017" type="line"/>
      <point x="94" y="1008" type="line"/>
      <point x="94" y="1118" type="line"/>
      <point x="359" y="1110" type="line"/>
      <point x="225" y="1348" type="line"/>
      <point x="322" y="1403" type="line"/>
      <point x="438" y="1163" type="line"/>
      <point x="569" y="1409" type="line"/>
      <point x="666" y="1351" type="line"/>
      <point x="516" y="1109" type="line"/>
      <point x="782" y="1118" type="line"/>
      <point x="782" y="1008" type="line"/>
      <point x="519" y="1017" type="line"/>
      <point x="655" y="776" type="line"/>
      <point x="551" y="719" type="line"/>
      <point x="438" y="964" type="line"/>
    </contour>
  </outline>
</glyph>
<glyph name="plus" format="1">
  <advance width="848"/>
  <unicode hex="002B"/>
  <outline>
    <contour>
      <point x="493" y="455" type="line"/>
      <point x="493" y="153" type="line"/>
      <point x="355" y="153" type="line"/>
      <point x="355" y="455" type="line"/>
      <point x="91" y="455" type="line"/>
      <point x="91" y="591" type="line"/>
      <point x="355" y="591" type="line"/>
      <point x="355" y="895" type="line"/>
      <point x="493" y="895" type="line"/>
      <point x="493" y="591" type="line"/>
      <point x="757" y="591" type="line"/>
      <point x="757" y="455" type="line"/>
    </contour>
  </outline>
</glyph>
<glyph name="comma" format="1">
  <advance width="507"/>
  <unicode hex="002C"/>
  <outline>
    <contour>
      <point x="138" y="200" type="line"/>
      <point x="364" y="216" type="line"/>
      <point x="366" y="192"/>
      <point x="369" y="164" type="qcurve"/>
      <point x="371" y="140"/>
      <point x="375" y="78"/>
      <point x="375" y="43" type="qcurve"/>
      <point x="375" y="-4"/>
      <point x="355" y="-83"/>
      <point x="309" y="-148"/>
      <point x="232" y="-197"/>
      <point x="174" y="-213" type="qcurve"/>
      <point x="147" y="-133" type="line"/>
      <point x="203" y="-127"/>
      <point x="258" y="-53"/>
      <point x="258" y="0" type="qcurve"/>
      <point x="138" y="0" type="line"/>
    </contour>
  </outline>
</glyph>
<glyph name="slash" format="1">
  <advance width="698"/>
  <unicode hex="002F"/>
  <outline>
    <contour>
      <point x="621" y="1451" type="line"/>
      <point x="247" y="-202" type="line"/>
      <point x="79" y="-164" type="line"/>
      <point x="448" y="1490" type="line"/>
    </contour>
  </outline>
</glyph>
<glyph name="zero" format="1">
  <advance width="1280"/>
  <unicode hex="0030"/>
  <outline>
    <contour>
      <point x="639" y="123" type="qcurve"/>
      <point x="738" y="123"/>
      <point x="863" y="202"/>
      <point x="932" y="345"/>
      <point x="957" y="548"/>
      <point x="957" y="674" type="qcurve"/>
      <point x="957" y="796"/>
      <point x="930" y="1000"/>
      <point x="859" y="1145"/>
      <point x="735" y="1227"/>
      <point x="639" y="1227" type="qcurve"/>
      <point x="543" y="1227"/>
      <point x="420" y="1146"/>
      <point x="349" y="1001"/>
      <point x="323" y="797"/>
      <point x="323" y="674" type="qcurve"/>
      <point x="323" y="548"/>
      <point x="350" y="345"/>
      <point x="421" y="202"/>
      <point x="544" y="123"/>
    </contour>
    <contour>
      <point x="133" y="673" type="qcurve"/>
      <point x="133" y="834"/>
      <point x="183" y="1094"/>
      <point x="301" y="1274"/>
      <point x="495" y="1369"/>
      <point x="639" y="1369" type="qcurve"/>
      <point x="784" y="1369"/>
      <point x="979" y="1274"/>
      <point x="1097" y="1094"/>
      <point x="1147" y="834"/>
      <point x="1147" y="673" type="qcurve"/>
      <point x="1147" y="509"/>
      <point x="1095" y="249"/>
      <point x="975" y="71"/>
      <point x="781" y="-24"/>
      <point x="639" y="-24" type="qcurve"/>
      <point x="497" y="-24"/>
      <point x="304" y="71"/>
      <point x="185" y="249"/>
      <point x="133" y="509"/>
    </contour>
  </outline>
</glyph>
<glyph name="one" format="1">
  <advance width="659"/>
  <unicode hex="0031"/>
  <outline>
    <contour>
      <point x="296" y="972" type="line"/>
      <point x="299" y="1158" type="line"/>
      <point x="204" y="1106" type="line"/>
      <point x="97" y="1050" type="line"/>
      <point x="39" y="1191" type="line"/>
      <point x="338" y="1336" type="line"/>
      <point x="471" y="1309" type="line"/>
      <point x="471" y="0" type="line"/>
      <point x="295" y="0" type="line"/>
    </contour>
  </outline>
</glyph>
<glyph name="two" format="1">
  <advance width="988"/>
  <unicode hex="0032"/>
  <outline>
    <contour>
      <point x="488" y="1363" type="qcurve"/>
      <point x="586" y="1363"/>
      <point x="730" y="1310"/>
      <point x="825" y="1212"/>
      <point x="871" y="1077"/>
      <point x="871" y="996" type="qcurve"/>
      <point x="871" y="934"/>
      <point x="842" y="828"/>
      <point x="792" y="728"/>
      <point x="722" y="633"/>
      <point x="682" y="585" type="qcurve"/>
      <point x="304" y="144" type="line"/>
      <point x="856" y="144" type="line"/>
      <point x="836" y="0" type="line"/>
      <point x="120" y="0" type="line"/>
      <point x="90" y="146" type="line"/>
      <point x="553" y="700" type="line"/>
      <point x="577" y="729"/>
      <point x="627" y="797"/>
      <point x="666" y="872"/>
      <point x="691" y="950"/>
      <point x="691" y="993" type="qcurve"/>
      <point x="691" y="1040"/>
      <point x="663" y="1123"/>
      <point x="606" y="1184"/>
      <point x="518" y="1217"/>
      <point x="458" y="1217" type="qcurve"/>
      <point x="402" y="1217"/>
      <point x="283" y="1193"/>
      <point x="232" y="1179" type="qcurve"/>
      <point x="173" y="1160"/>
      <point x="117" y="1140" type="qcurve"/>
      <point x="137" y="1296" type="line"/>
      <point x="189" y="1314"/>
      <point x="247" y="1329" type="qcurve"/>
      <point x="297" y="1342"/>
      <point x="422" y="1363"/>
    </contour>
  </outline>
</glyph>
<glyph name="three" format="1">
  <advance width="1061"/>
  <unicode hex="0033"/>
  <outline>
    <contour>
      <point x="125" y="189" type="line"/>
      <point x="138" y="186"/>
      <point x="209" y="168"/>
      <point x="306" y="147"/>
      <point x="422" y="132"/>
      <point x="479" y="132" type="qcurve"/>
      <point x="537" y="132"/>
      <point x="632" y="161"/>
      <point x="698" y="218"/>
      <point x="734" y="306"/>
      <point x="734" y="367" type="qcurve"/>
      <point x="734" y="430"/>
      <point x="694" y="528"/>
      <point x="600" y="595"/>
      <point x="445" y="628"/>
      <point x="330" y="628" type="qcurve"/>
      <point x="330" y="789" type="line"/>
      <point x="436" y="789"/>
      <point x="579" y="810"/>
      <point x="664" y="861"/>
      <point x="700" y="947"/>
      <point x="700" y="1011" type="qcurve"/>
      <point x="700" y="1070"/>
      <point x="662" y="1150"/>
      <point x="595" y="1200"/>
      <point x="504" y="1221"/>
      <point x="452" y="1221" type="qcurve"/>
      <point x="405" y="1221"/>
      <point x="298" y="1208"/>
      <point x="203" y="1190"/>
      <point x="129" y="1171"/>
      <point x="115" y="1167" type="qcurve"/>
      <point x="140" y="1320" type="line"/>
      <point x="156" y="1325"/>
      <point x="217" y="1341"/>
      <point x="299" y="1357"/>
      <point x="398" y="1370"/>
      <point x="452" y="1370" type="qcurve"/>
      <point x="552" y="1370"/>
      <point x="714" y="1330"/>
      <point x="828" y="1246"/>
      <point x="889" y="1118"/>
      <point x="889" y="1030" type="qcurve"/>
      <point x="889" y="976"/>
      <point x="868" y="891"/>
      <point x="834" y="825"/>
      <point x="790" y="779"/>
      <point x="768" y="761" type="qcurve"/>
      <point x="715" y="724"/>
      <point x="648" y="712" type="qcurve"/>
      <point x="729" y="706"/>
      <point x="792" y="670" type="qcurve"/>
      <point x="819" y="652"/>
      <point x="871" y="604"/>
      <point x="911" y="533"/>
      <point x="936" y="437"/>
      <point x="936" y="376" type="qcurve"/>
      <point x="936" y="258"/>
      <point x="864" y="104"/>
      <point x="739" y="12"/>
      <point x="571" y="-24"/>
      <point x="476" y="-24" type="qcurve"/>
      <point x="414" y="-24"/>
      <point x="290" y="-7"/>
      <point x="185" y="15"/>
      <point x="107" y="36"/>
      <point x="91" y="40" type="qcurve"/>
    </contour>
  </outline>
</glyph>
<glyph name="five" format="1">
  <advance width="1028"/>
  <unicode hex="0035"/>
  <outline>
    <contour>
      <point x="197" y="667" type="qcurve"/>
      <point x="196" y="667"/>
      <point x="180" y="684"/>
      <point x="170" y="694" type="qcurve"/>
      <point x="143" y="721" type="line"/>
      <point x="163" y="1339" type="line"/>
      <point x="839" y="1339" type="line"/>
      <point x="824" y="1209" type="line"/>
      <point x="319" y="1209" type="line"/>
      <point x="301" y="809" type="line"/>
      <point x="332" y="815"/>
      <point x="367" y="820" type="qcurve"/>
      <point x="397" y="825"/>
      <point x="474" y="832"/>
      <point x="516" y="832" type="qcurve"/>
      <point x="602" y="832"/>
      <point x="750" y="785"/>
      <point x="858" y="685"/>
      <point x="920" y="530"/>
      <point x="920" y="425" type="qcurve"/>
      <point x="920" y="314"/>
      <point x="875" y="145"/>
      <point x="767" y="32"/>
      <point x="589" y="-24"/>
      <point x="457" y="-24" type="qcurve"/>
      <point x="398" y="-24"/>
      <point x="294" y="-8"/>
      <point x="254" y="3" type="qcurve"/>
      <point x="207" y="15"/>
      <point x="168" y="31" type="qcurve"/>
      <point x="149" y="183" type="line"/>
      <point x="191" y="169"/>
      <point x="240" y="157" type="qcurve"/>
      <point x="282" y="147"/>
      <point x="390" y="132"/>
      <point x="450" y="132" type="qcurve"/>
      <point x="535" y="132"/>
      <point x="650" y="162"/>
      <point x="719" y="229"/>
      <point x="748" y="341"/>
      <point x="748" y="424" type="qcurve"/>
      <point x="748" y="481"/>
      <point x="715" y="577"/>
      <point x="649" y="647"/>
      <point x="549" y="689"/>
      <point x="482" y="689" type="qcurve"/>
      <point x="396" y="689"/>
      <point x="244" y="675"/>
    </contour>
  </outline>
</glyph>
<glyph name="six" format="1">
  <advance width="1196"/>
  <unicode hex="0036"/>
  <outline>
    <contour>
      <point x="941" y="1191" type="line"/>
      <point x="854" y="1202"/>
      <point x="709" y="1204"/>
      <point x="647" y="1195" type="qcurve"/>
      <point x="560" y="1185"/>
      <point x="437" y="1114"/>
      <point x="359" y="993"/>
      <point x="322" y="818"/>
      <point x="321" y="705" type="qcurve"/>
      <point x="346" y="722"/>
      <point x="420" y="770"/>
      <point x="518" y="812"/>
      <point x="637" y="842"/>
      <point x="706" y="842" type="qcurve"/>
      <point x="794" y="842"/>
      <point x="942" y="784"/>
      <point x="1050" y="676"/>
      <point x="1110" y="522"/>
      <point x="1110" y="427" type="qcurve"/>
      <point x="1110" y="340"/>
      <point x="1052" y="177"/>
      <point x="931" y="51"/>
      <point x="745" y="-24"/>
      <point x="616" y="-24" type="qcurve"/>
      <point x="498" y="-24"/>
      <point x="316" y="60"/>
      <point x="193" y="220"/>
      <point x="130" y="452"/>
      <point x="130" y="600" type="qcurve"/>
      <point x="130" y="770"/>
      <point x="182" y="1032"/>
      <point x="300" y="1217"/>
      <point x="492" y="1324"/>
      <point x="632" y="1337" type="qcurve"/>
      <point x="695" y="1346"/>
      <point x="836" y="1346"/>
      <point x="918" y="1338" type="qcurve"/>
    </contour>
    <contour>
      <point x="669" y="692" type="qcurve"/>
      <point x="595" y="692"/>
      <point x="470" y="656"/>
      <point x="423" y="636" type="qcurve"/>
      <point x="368" y="612"/>
      <point x="323" y="582" type="qcurve"/>
      <point x="323" y="580"/>
      <point x="322" y="565"/>
      <point x="322" y="547"/>
      <point x="322" y="532"/>
      <point x="322" y="529" type="qcurve"/>
      <point x="321" y="334"/>
      <point x="475" y="120"/>
      <point x="626" y="120" type="qcurve"/>
      <point x="774" y="120"/>
      <point x="929" y="269"/>
      <point x="929" y="424" type="qcurve"/>
      <point x="929" y="486"/>
      <point x="899" y="585"/>
      <point x="836" y="654"/>
      <point x="737" y="692"/>
    </contour>
  </outline>
</glyph>
<glyph name="eight" format="1">
  <advance width="1155"/>
  <unicode hex="0038"/>
  <outline>
    <contour>
      <point x="123" y="345" type="qcurve"/>
      <point x="123" y="414"/>
      <point x="153" y="519"/>
      <point x="203" y="597"/>
      <point x="265" y="649"/>
      <point x="329" y="686"/>
      <point x="389" y="705"/>
      <point x="412" y="711" type="qcurve"/>
      <point x="363" y="723"/>
      <point x="275" y="774"/>
      <point x="209" y="849"/>
      <point x="170" y="949"/>
      <point x="170" y="1013" type="qcurve"/>
      <point x="170" y="1087"/>
      <point x="218" y="1215"/>
      <point x="318" y="1312"/>
      <point x="472" y="1367"/>
      <point x="577" y="1367" type="qcurve"/>
      <point x="683" y="1367"/>
      <point x="839" y="1311"/>
      <point x="939" y="1214"/>
      <point x="988" y="1086"/>
      <point x="988" y="1013" type="qcurve"/>
      <point x="988" y="948"/>
      <point x="944" y="847"/>
      <point x="873" y="774"/>
      <point x="781" y="723"/>
      <point x="733" y="711" type="qcurve"/>
      <point x="775" y="702"/>
      <point x="879" y="657"/>
      <point x="970" y="575"/>
      <point x="1031" y="442"/>
      <point x="1031" y="345" type="qcurve"/>
      <point x="1031" y="241"/>
      <point x="951" y="100"/>
      <point x="822" y="13"/>
      <point x="659" y="-24"/>
      <point x="577" y="-24" type="qcurve"/>
      <point x="496" y="-24"/>
      <point x="333" y="13"/>
      <point x="204" y="100"/>
      <point x="123" y="241"/>
    </contour>
    <contour>
      <point x="579" y="785" type="qcurve"/>
      <point x="642" y="802"/>
      <point x="691" y="833" type="qcurve"/>
      <point x="712" y="846"/>
      <point x="752" y="883"/>
      <point x="784" y="929"/>
      <point x="803" y="988"/>
      <point x="803" y="1023" type="qcurve"/>
      <point x="803" y="1081"/>
      <point x="768" y="1156"/>
      <point x="708" y="1203"/>
      <point x="626" y="1222"/>
      <point x="579" y="1222" type="qcurve"/>
      <point x="535" y="1222"/>
      <point x="453" y="1203"/>
      <point x="391" y="1156"/>
      <point x="354" y="1081"/>
      <point x="354" y="1023" type="qcurve"/>
      <point x="354" y="988"/>
      <point x="373" y="928"/>
      <point x="405" y="882"/>
      <point x="445" y="845"/>
      <point x="466" y="832" type="qcurve"/>
      <point x="515" y="801"/>
    </contour>
    <contour>
      <point x="314" y="364" type="qcurve"/>
      <point x="314" y="297"/>
      <point x="353" y="206"/>
      <point x="422" y="150"/>
      <point x="519" y="126"/>
      <point x="577" y="126" type="qcurve"/>
      <point x="634" y="126"/>
      <point x="733" y="149"/>
      <point x="805" y="205"/>
      <point x="846" y="296"/>
      <point x="846" y="364" type="qcurve"/>
      <point x="846" y="407"/>
      <point x="823" y="479"/>
      <point x="785" y="534"/>
      <point x="737" y="579"/>
      <point x="712" y="594" type="qcurve"/>
      <point x="653" y="630"/>
      <point x="578" y="646" type="qcurve"/>
      <point x="504" y="628"/>
      <point x="446" y="592" type="qcurve"/>
      <point x="421" y="577"/>
      <point x="374" y="533"/>
      <point x="337" y="477"/>
      <point x="314" y="406"/>
    </contour>
  </outline>
</glyph>
<glyph name="nine" format="1">
  <advance width="1196"/>
  <unicode hex="0039"/>
  <outline>
    <contour>
      <point x="255" y="142" type="line"/>
      <point x="342" y="131"/>
      <point x="487" y="129"/>
      <point x="549" y="137" type="qcurve"/>
      <point x="636" y="147"/>
      <point x="759" y="218"/>
      <point x="837" y="339"/>
      <point x="874" y="514"/>
      <point x="875" y="629" type="qcurve"/>
      <point x="855" y="611"/>
      <point x="789" y="566"/>
      <point x="698" y="523"/>
      <point x="583" y="496"/>
      <point x="514" y="496" type="qcurve"/>
      <point x="425" y="496"/>
      <point x="269" y="551"/>
      <point x="153" y="657"/>
      <point x="86" y="812"/>
      <point x="86" y="911" type="qcurve"/>
      <point x="86" y="999"/>
      <point x="144" y="1162"/>
      <point x="265" y="1290"/>
      <point x="451" y="1365"/>
      <point x="580" y="1365" type="qcurve"/>
      <point x="698" y="1365"/>
      <point x="879" y="1282"/>
      <point x="1002" y="1119"/>
      <point x="1066" y="886"/>
      <point x="1066" y="735" type="qcurve"/>
      <point x="1066" y="565"/>
      <point x="1014" y="299"/>
      <point x="896" y="112"/>
      <point x="704" y="5"/>
      <point x="563" y="-8" type="qcurve"/>
      <point x="500" y="-18"/>
      <point x="360" y="-18"/>
      <point x="278" y="-10" type="qcurve"/>
    </contour>
    <contour>
      <point x="548" y="642" type="qcurve"/>
      <point x="617" y="642"/>
      <point x="735" y="678"/>
      <point x="779" y="698" type="qcurve"/>
      <point x="830" y="722"/>
      <point x="873" y="753" type="qcurve"/>
      <point x="873" y="756"/>
      <point x="874" y="774"/>
      <point x="874" y="792"/>
      <point x="874" y="807"/>
      <point x="874" y="810" type="qcurve"/>
      <point x="874" y="908"/>
      <point x="835" y="1059"/>
      <point x="759" y="1165"/>
      <point x="645" y="1220"/>
      <point x="570" y="1220" type="qcurve"/>
      <point x="421" y="1220"/>
      <point x="267" y="1070"/>
      <point x="267" y="913" type="qcurve"/>
      <point x="267" y="850"/>
      <point x="299" y="750"/>
      <point x="367" y="681"/>
      <point x="473" y="642"/>
    </contour>
  </outline>
</glyph>
<glyph name="semicolon" format="1">
  <advance width="514"/>
  <unicode hex="003B"/>
  <outline>
    <contour>
      <point x="357" y="805" type="line"/>
      <point x="357" y="591" type="line"/>
      <point x="152" y="591" type="line"/>
      <point x="152" y="805" type="line"/>
    </contour>
    <contour>
      <point x="152" y="189" type="line"/>
      <point x="355" y="195" type="line"/>
      <point x="358" y="175"/>
      <point x="361" y="150" type="qcurve"/>
      <point x="363" y="129"/>
      <point x="367" y="74"/>
      <point x="367" y="43" type="qcurve"/>
      <point x="367" y="-4"/>
      <point x="349" y="-83"/>
      <point x="308" y="-148"/>
      <point x="239" y="-197"/>
      <point x="188" y="-213" type="qcurve"/>
      <point x="160" y="-133" type="line"/>
      <point x="206" y="-127"/>
      <point x="250" y="-53"/>
      <point x="250" y="0" type="qcurve"/>
      <point x="152" y="0" type="line"/>
    </contour>
  </outline>
</glyph>
<glyph name="less" format="1">
  <advance width="989"/>
  <unicode hex="003C"/>
  <outline>
    <contour>
      <point x="79" y="623" type="line"/>
      <point x="808" y="987" type="line"/>
      <point x="857" y="823" type="line"/>
      <point x="285" y="561" type="line"/>
      <point x="857" y="301" type="line"/>
      <point x="808" y="138" type="line"/>
      <point x="79" y="506" type="line"/>
    </contour>
  </outline>
</glyph>
<glyph name="equal" format="1">
  <advance width="939"/>
  <unicode hex="003D"/>
  <outline>
    <contour>
      <point x="159" y="615" type="line"/>
      <point x="779" y="615" type="line"/>
      <point x="779" y="487" type="line"/>
      <point x="159" y="487" type="line"/>
    </contour>
    <contour>
      <point x="160" y="534" type="line"/>
      <point x="779" y="534" type="line"/>
      <point x="779" y="405" type="line"/>
      <point x="160" y="405" type="line"/>
    </contour>
  </outline>
</glyph>
<glyph name="question" format="1">
  <advance width="872"/>
  <unicode hex="003F"/>
  <outline>
    <contour>
      <point x="804" y="1093" type="qcurve"/>
      <point x="804" y="998"/>
      <point x="736" y="868"/>
      <point x="633" y="779"/>
      <point x="514" y="722"/>
      <point x="411" y="675"/>
      <point x="343" y="631"/>
      <point x="343" y="600" type="qcurve"/>
      <point x="343" y="302" type="line"/>
      <point x="192" y="302" type="line"/>
      <point x="192" y="590" type="line"/>
      <point x="192" y="643"/>
      <point x="230" y="720"/>
      <point x="293" y="777"/>
      <point x="372" y="820"/>
      <point x="456" y="861"/>
      <point x="535" y="904"/>
      <point x="598" y="961"/>
      <point x="636" y="1037"/>
      <point x="636" y="1090" type="qcurve"/>
      <point x="636" y="1143"/>
      <point x="610" y="1218"/>
      <point x="553" y="1266"/>
      <point x="460" y="1288"/>
      <point x="393" y="1288" type="qcurve"/>
      <point x="340" y="1288"/>
      <point x="235" y="1274"/>
      <point x="192" y="1266" type="qcurve"/>
      <point x="142" y="1256"/>
      <point x="96" y="1244" type="qcurve"/>
      <point x="96" y="1246"/>
      <point x="98" y="1290"/>
      <point x="99" y="1342"/>
      <point x="101" y="1386"/>
      <point x="101" y="1388" type="qcurve"/>
      <point x="146" y="1401"/>
      <point x="195" y="1412" type="qcurve"/>
      <point x="237" y="1421"/>
      <point x="341" y="1437"/>
      <point x="394" y="1437" type="qcurve"/>
      <point x="511" y="1437"/>
      <point x="669" y="1382"/>
      <point x="764" y="1288"/>
      <point x="804" y="1163"/>
    </contour>
    <contour>
      <point x="173" y="78" type="qcurve"/>
      <point x="173" y="101"/>
      <point x="189" y="142"/>
      <point x="216" y="173"/>
      <point x="253" y="191"/>
      <point x="274" y="191" type="qcurve"/>
      <point x="296" y="191"/>
      <point x="334" y="173"/>
      <point x="363" y="142"/>
      <point x="379" y="101"/>
      <point x="379" y="78" type="qcurve"/>
      <point x="379" y="56"/>
      <point x="363" y="18"/>
      <point x="334" y="-11"/>
      <point x="296" y="-28"/>
      <point x="274" y="-28" type="qcurve"/>
      <point x="253" y="-28"/>
      <point x="216" y="-11"/>
      <point x="189" y="18"/>
      <point x="173" y="56"/>
    </contour>
  </outline>
</glyph>
<glyph name="at" format="1">
  <advance width="1603"/>
  <unicode hex="0040"/>
  <outline>
    <contour>
      <point x="1035" y="896" type="line"/>
      <point x="1032" y="896"/>
      <point x="995" y="903"/>
      <point x="943" y="911"/>
      <point x="886" y="918"/>
      <point x="864" y="917" type="qcurve"/>
      <point x="794" y="914"/>
      <point x="671" y="851"/>
      <point x="577" y="751"/>
      <point x="520" y="624"/>
      <point x="517" y="557" type="qcurve"/>
      <point x="509" y="425"/>
      <point x="607" y="299"/>
      <point x="709" y="299" type="qcurve"/>
      <point x="777" y="299"/>
      <point x="880" y="350"/>
      <point x="955" y="448"/>
      <point x="1001" y="591"/>
      <point x="1012" y="681" type="qcurve"/>
    </contour>
    <contour>
      <point x="1511" y="685" type="qcurve"/>
      <point x="1511" y="577"/>
      <point x="1469" y="418"/>
      <point x="1400" y="306"/>
      <point x="1313" y="235"/>
      <point x="1223" y="197"/>
      <point x="1140" y="183"/>
      <point x="1109" y="183" type="qcurve"/>
      <point x="1071" y="183"/>
      <point x="1028" y="208"/>
      <point x="1007" y="251"/>
      <point x="1004" y="311"/>
      <point x="1007" y="345" type="qcurve"/>
      <point x="1008" y="348"/>
      <point x="1014" y="382"/>
      <point x="1017" y="401" type="qcurve"/>
      <point x="1025" y="449" type="line"/>
      <point x="1016" y="450" type="line"/>
      <point x="998" y="375"/>
      <point x="957" y="315" type="qcurve"/>
      <point x="939" y="290"/>
      <point x="890" y="240"/>
      <point x="825" y="203"/>
      <point x="742" y="180"/>
      <point x="691" y="180" type="qcurve"/>
      <point x="619" y="180"/>
      <point x="506" y="229"/>
      <point x="426" y="322"/>
      <point x="384" y="452"/>
      <point x="384" y="533" type="qcurve"/>
      <point x="384" y="598"/>
      <point x="422" y="725"/>
      <point x="492" y="840"/>
      <point x="591" y="937"/>
      <point x="712" y="1003"/>
      <point x="852" y="1032"/>
      <point x="929" y="1022" type="qcurve"/>
      <point x="953" y="1019"/>
      <point x="1016" y="1010"/>
      <point x="1073" y="1001"/>
      <point x="1113" y="994"/>
      <point x="1114" y="994" type="qcurve"/>
      <point x="1160" y="895" type="line"/>
      <point x="1105" y="287" type="line"/>
      <point x="1128" y="287"/>
      <point x="1187" y="297"/>
      <point x="1248" y="327"/>
      <point x="1306" y="383"/>
      <point x="1351" y="472"/>
      <point x="1378" y="599"/>
      <point x="1378" y="688" type="qcurve"/>
      <point x="1378" y="818"/>
      <point x="1299" y="1010"/>
      <point x="1155" y="1136"/>
      <point x="952" y="1198"/>
      <point x="827" y="1198" type="qcurve"/>
      <point x="691" y="1198"/>
      <point x="476" y="1096"/>
      <point x="324" y="924"/>
      <point x="238" y="697"/>
      <point x="232" y="572" type="qcurve"/>
      <point x="225" y="444"/>
      <point x="296" y="235"/>
      <point x="445" y="86"/>
      <point x="670" y="3"/>
      <point x="817" y="3" type="qcurve"/>
      <point x="930" y="3"/>
      <point x="1090" y="45"/>
      <point x="1141" y="73" type="qcurve"/>
      <point x="1201" y="103"/>
      <point x="1240" y="141" type="qcurve"/>
      <point x="1246" y="136"/>
      <point x="1264" y="114"/>
      <point x="1285" y="90"/>
      <point x="1303" y="68"/>
      <point x="1309" y="62" type="qcurve"/>
      <point x="1269" y="12"/>
      <point x="1199" y="-26" type="qcurve"/>
      <point x="1169" y="-42"/>
      <point x="1092" y="-75"/>
      <point x="995" y="-100"/>
      <point x="877" y="-115"/>
      <point x="807" y="-115" type="qcurve"/>
      <point x="646" y="-115"/>
      <point x="378" y="-21"/>
      <point x="188" y="157"/>
      <point x="88" y="410"/>
      <point x="94" y="572" type="qcurve"/>
      <point x="100" y="731"/>
      <point x="217" y="1005"/>
      <point x="412" y="1204"/>
      <point x="672" y="1317"/>
      <point x="821" y="1317" type="qcurve"/>
      <point x="968" y="1317"/>
      <point x="1221" y="1235"/>
      <point x="1406" y="1077"/>
      <point x="1511" y="839"/>
    </contour>
  </outline>
</glyph>
<glyph name="A" format="1">
  <advance width="1234"/>
  <unicode hex="0041"/>
  <outline>
    <contour>
      <point x="335" y="327" type="line"/>
      <point x="236" y="0" type="line"/>
      <point x="41" y="0" type="line"/>
      <point x="517" y="1437" type="line"/>
      <point x="718" y="1437" type="line"/>
      <point x="1193" y="0" type="line"/>
      <point x="997" y="0" type="line"/>
      <point x="899" y="327" type="line"/>
    </contour>
    <contour>
      <point x="368" y="439" type="line"/>
      <point x="865" y="439" type="line"/>
      <point x="618" y="1243" type="line"/>
    </contour>
  </outline>
</glyph>
<glyph name="B" format="1">
  <advance width="1251"/>
  <unicode hex="0042"/>
  <outline>
    <contour>
      <point x="362" y="825" type="line"/>
      <point x="595" y="825" type="line"/>
      <point x="681" y="825"/>
      <point x="799" y="858"/>
      <point x="871" y="918"/>
      <point x="903" y="1008"/>
      <point x="903" y="1068" type="qcurve"/>
      <point x="903" y="1138"/>
      <point x="864" y="1221"/>
      <point x="779" y="1270"/>
      <point x="645" y="1292"/>
      <point x="551" y="1292" type="qcurve"/>
      <point x="362" y="1292" type="line"/>
    </contour>
    <contour>
      <point x="973" y="417" type="qcurve"/>
      <point x="973" y="501"/>
      <point x="929" y="608"/>
      <point x="837" y="672"/>
      <point x="697" y="698"/>
      <point x="601" y="698" type="qcurve"/>
      <point x="362" y="698" type="line"/>
      <point x="362" y="144" type="line"/>
      <point x="604" y="144" type="line"/>
      <point x="695" y="144"/>
      <point x="834" y="166"/>
      <point x="926" y="223"/>
      <point x="973" y="329"/>
    </contour>
    <contour>
      <point x="1151" y="415" type="qcurve"/>
      <point x="1151" y="200"/>
      <point x="902" y="0"/>
      <point x="652" y="0" type="qcurve"/>
      <point x="181" y="0" type="line"/>
      <point x="181" y="1437" type="line"/>
      <point x="576" y="1437" type="line"/>
      <point x="715" y="1437"/>
      <point x="909" y="1395"/>
      <point x="1029" y="1305"/>
      <point x="1083" y="1164"/>
      <point x="1083" y="1060" type="qcurve"/>
      <point x="1083" y="1008"/>
      <point x="1056" y="925"/>
      <point x="1011" y="863"/>
      <point x="956" y="816"/>
      <point x="899" y="788"/>
      <point x="846" y="774"/>
      <point x="827" y="772" type="qcurve"/>
      <point x="918" y="765"/>
      <point x="989" y="725" type="qcurve"/>
      <point x="1019" y="708"/>
      <point x="1078" y="656"/>
      <point x="1123" y="583"/>
      <point x="1151" y="483"/>
    </contour>
  </outline>
</glyph>
<glyph name="C" format="1">
  <advance width="1194"/>
  <unicode hex="0043"/>
  <outline>
    <contour>
      <point x="693" y="-24" type="qcurve"/>
      <point x="572" y="-24"/>
      <point x="364" y="45"/>
      <point x="210" y="219"/>
      <point x="121" y="512"/>
      <point x="120" y="727" type="qcurve"/>
      <point x="120" y="935"/>
      <point x="209" y="1217"/>
      <point x="368" y="1390"/>
      <point x="585" y="1464"/>
      <point x="713" y="1464" type="qcurve"/>
      <point x="794" y="1464"/>
      <point x="933" y="1445"/>
      <point x="984" y="1434" type="qcurve"/>
      <point x="1044" y="1421"/>
      <point x="1092" y="1405" type="qcurve"/>
      <point x="1108" y="1250" type="line"/>
      <point x="1058" y="1268"/>
      <point x="998" y="1283" type="qcurve"/>
      <point x="947" y="1294"/>
      <point x="811" y="1314"/>
      <point x="734" y="1314" type="qcurve"/>
      <point x="637" y="1314"/>
      <point x="483" y="1254"/>
      <point x="375" y="1118"/>
      <point x="318" y="897"/>
      <point x="318" y="729" type="qcurve"/>
      <point x="319" y="570"/>
      <point x="368" y="337"/>
      <point x="467" y="192"/>
      <point x="616" y="126"/>
      <point x="715" y="127" type="qcurve"/>
      <point x="798" y="126"/>
      <point x="940" y="147"/>
      <point x="994" y="163" type="qcurve"/>
      <point x="1056" y="179"/>
      <point x="1108" y="199" type="qcurve"/>
      <point x="1091" y="43" type="line"/>
      <point x="1042" y="24"/>
      <point x="980" y="9" type="qcurve"/>
      <point x="927" y="-4"/>
      <point x="781" y="-24"/>
    </contour>
  </outline>
</glyph>
<glyph name="D" format="1">
  <advance width="1377"/>
  <unicode hex="0044"/>
  <outline>
    <contour>
      <point x="575" y="144" type="line"/>
      <point x="721" y="144"/>
      <point x="912" y="205"/>
      <point x="1024" y="339"/>
      <point x="1069" y="567"/>
      <point x="1069" y="740" type="qcurve"/>
      <point x="1069" y="881"/>
      <point x="1030" y="1085"/>
      <point x="933" y="1222"/>
      <point x="769" y="1292"/>
      <point x="645" y="1292" type="qcurve"/>
      <point x="373" y="1292" type="line"/>
      <point x="373" y="144" type="line"/>
    </contour>
    <contour>
      <point x="181" y="0" type="line"/>
      <point x="181" y="1437" type="line"/>
      <point x="593" y="1437" type="line"/>
      <point x="677" y="1437"/>
      <point x="840" y="1420"/>
      <point x="988" y="1367"/>
      <point x="1113" y="1274"/>
      <point x="1205" y="1123"/>
      <point x="1257" y="905"/>
      <point x="1257" y="748" type="qcurve"/>
      <point x="1257" y="578"/>
      <point x="1204" y="304"/>
      <point x="1066" y="105"/>
      <point x="825" y="0"/>
      <point x="638" y="0" type="qcurve"/>
    </contour>
  </outline>
</glyph>
<glyph name="E" format="1">
  <advance width="1086"/>
  <unicode hex="0045"/>
  <outline>
    <contour>
      <point x="181" y="0" type="line"/>
      <point x="181" y="1437" type="line"/>
      <point x="997" y="1437" type="line"/>
      <point x="973" y="1292" type="line"/>
      <point x="370" y="1292" type="line"/>
      <point x="370" y="809" type="line"/>
      <point x="862" y="809" type="line"/>
      <point x="862" y="670" type="line"/>
      <point x="370" y="670" type="line"/>
      <point x="370" y="145" type="line"/>
      <point x="995" y="145" type="line"/>
      <point x="972" y="0" type="line"/>
    </contour>
  </outline>
</glyph>
<glyph name="F" format="1">
  <advance width="1083"/>
  <unicode hex="0046"/>
  <outline>
    <contour>
      <point x="366" y="0" type="line"/>
      <point x="181" y="0" type="line"/>
      <point x="181" y="1437" type="line"/>
      <point x="1015" y="1437" type="line"/>
      <point x="991" y="1292" type="line"/>
      <point x="366" y="1292" type="line"/>
      <point x="366" y="820" type="line"/>
      <point x="921" y="820" type="line"/>
      <point x="921" y="672" type="line"/>
      <point x="366" y="672" type="line"/>
    </contour>
  </outline>
</glyph>
<glyph name="H" format="1">
  <advance width="1431"/>
  <unicode hex="0048"/>
  <outline>
    <contour>
      <point x="1065" y="677" type="line"/>
      <point x="366" y="677" type="line"/>
      <point x="366" y="0" type="line"/>
      <point x="181" y="0" type="line"/>
      <point x="181" y="1437" type="line"/>
      <point x="366" y="1437" type="line"/>
      <point x="366" y="817" type="line"/>
      <point x="1065" y="817" type="line"/>
      <point x="1065" y="1437" type="line"/>
      <point x="1250" y="1437" type="line"/>
      <point x="1250" y="0" type="line"/>
      <point x="1065" y="0" type="line"/>
    </contour>
  </outline>
</glyph>
<glyph name="J" format="1">
  <advance width="701"/>
  <unicode hex="004A"/>
  <outline>
    <contour>
      <point x="59" y="-14" type="line"/>
      <point x="35" y="53" type="line"/>
      <point x="104" y="53"/>
      <point x="202" y="65"/>
      <point x="268" y="95"/>
      <point x="307" y="145"/>
      <point x="327" y="222"/>
      <point x="333" y="328"/>
      <point x="333" y="399" type="qcurve"/>
      <point x="333" y="1437" type="line"/>
      <point x="520" y="1437" type="line"/>
      <point x="516" y="308" type="line"/>
      <point x="516" y="226"/>
      <point x="481" y="84"/>
      <point x="386" y="-20"/>
      <point x="217" y="-81"/>
      <point x="83" y="-81" type="qcurve"/>
    </contour>
  </outline>
</glyph>
<glyph name="K" format="1">
  <advance width="1289"/>
  <unicode hex="004B"/>
  <outline>
    <contour>
      <point x="1217" y="1384" type="line"/>
      <point x="637" y="780" type="line"/>
      <point x="1269" y="47" type="line"/>
      <point x="1269" y="0" type="line"/>
      <point x="1077" y="0" type="line"/>
      <point x="508" y="672" type="line"/>
      <point x="366" y="530" type="line"/>
      <point x="366" y="0" type="line"/>
      <point x="181" y="0" type="line"/>
      <point x="181" y="1437" type="line"/>
      <point x="366" y="1437" type="line"/>
      <point x="366" y="740" type="line"/>
      <point x="1032" y="1437" type="line"/>
      <point x="1217" y="1437" type="line"/>
    </contour>
  </outline>
</glyph>
<glyph name="L" format="1">
  <advance width="982"/>
  <unicode hex="004C"/>
  <outline>
    <contour>
      <point x="181" y="0" type="line"/>
      <point x="181" y="1437" type="line"/>
      <point x="366" y="1437" type="line"/>
      <point x="366" y="142" type="line"/>
      <point x="954" y="142" type="line"/>
      <point x="937" y="0" type="line"/>
    </contour>
  </outline>
</glyph>
<glyph name="M" format="1">
  <advance width="1794"/>
  <unicode hex="004D"/>
  <outline>
    <contour>
      <point x="242" y="1437" type="line"/>
      <point x="516" y="1437" type="line"/>
      <point x="837" y="380" type="line"/>
      <point x="905" y="149" type="line"/>
      <point x="967" y="380" type="line"/>
      <point x="1289" y="1437" type="line"/>
      <point x="1563" y="1437" type="line"/>
      <point x="1616" y="0" type="line"/>
      <point x="1433" y="0" type="line"/>
      <point x="1402" y="988" type="line"/>
      <point x="1401" y="1286" type="line"/>
      <point x="1316" y="941" type="line"/>
      <point x="1021" y="32" type="line"/>
      <point x="784" y="32" type="line"/>
      <point x="489" y="941" type="line"/>
      <point x="405" y="1286" type="line"/>
      <point x="402" y="987" type="line"/>
      <point x="362" y="0" type="line"/>
      <point x="178" y="0" type="line"/>
    </contour>
  </outline>
</glyph>
<glyph name="N" format="1">
  <advance width="1479"/>
  <unicode hex="004E"/>
  <outline>
    <contour>
      <point x="357" y="1148" type="line"/>
      <point x="357" y="0" type="line"/>
      <point x="181" y="0" type="line"/>
      <point x="181" y="1437" type="line"/>
      <point x="371" y="1437" type="line"/>
      <point x="1122" y="289" type="line"/>
      <point x="1122" y="1437" type="line"/>
      <point x="1298" y="1437" type="line"/>
      <point x="1298" y="0" type="line"/>
      <point x="1116" y="1" type="line"/>
    </contour>
  </outline>
</glyph>
<glyph name="O" format="1">
  <advance width="1399"/>
  <unicode hex="004F"/>
  <outline>
    <contour>
      <point x="311" y="722" type="qcurve"/>
      <point x="311" y="581"/>
      <point x="354" y="360"/>
      <point x="448" y="207"/>
      <point x="594" y="127"/>
      <point x="698" y="127" type="qcurve"/>
      <point x="803" y="127"/>
      <point x="950" y="207"/>
      <point x="1044" y="360"/>
      <point x="1087" y="581"/>
      <point x="1087" y="722" type="qcurve"/>
      <point x="1087" y="862"/>
      <point x="1044" y="1082"/>
      <point x="950" y="1234"/>
      <point x="803" y="1314"/>
      <point x="698" y="1314" type="qcurve"/>
      <point x="595" y="1314"/>
      <point x="448" y="1234"/>
      <point x="355" y="1082"/>
      <point x="311" y="862"/>
    </contour>
    <contour>
      <point x="120" y="722" type="qcurve"/>
      <point x="120" y="1098"/>
      <point x="416" y="1464"/>
      <point x="698" y="1464" type="qcurve"/>
      <point x="982" y="1464"/>
      <point x="1279" y="1098"/>
      <point x="1279" y="722" type="qcurve"/>
      <point x="1279" y="342"/>
      <point x="982" y="-24"/>
      <point x="698" y="-24" type="qcurve"/>
      <point x="557" y="-24"/>
      <point x="341" y="67"/>
      <point x="195" y="252"/>
      <point x="120" y="532"/>
    </contour>
  </outline>
</glyph>
<glyph name="P" format="1">
  <advance width="1221"/>
  <unicode hex="0050"/>
  <outline>
    <contour>
      <point x="540" y="717" type="line"/>
      <point x="661" y="717"/>
      <point x="820" y="748"/>
      <point x="913" y="816"/>
      <point x="950" y="921"/>
      <point x="950" y="1000" type="qcurve"/>
      <point x="950" y="1094"/>
      <point x="914" y="1207"/>
      <point x="818" y="1270"/>
      <point x="648" y="1293"/>
      <point x="513" y="1293" type="qcurve"/>
      <point x="366" y="1293" type="line"/>
      <point x="366" y="717" type="line"/>
    </contour>
    <contour>
      <point x="1143" y="998" type="qcurve"/>
      <point x="1143" y="876"/>
      <point x="1071" y="715"/>
      <point x="920" y="615"/>
      <point x="686" y="571"/>
      <point x="524" y="571" type="qcurve"/>
      <point x="429" y="571" type="line"/>
      <point x="399" y="571"/>
      <point x="366" y="572" type="qcurve"/>
      <point x="366" y="0" type="line"/>
      <point x="181" y="0" type="line"/>
      <point x="181" y="1437" type="line"/>
      <point x="490" y="1437" type="line"/>
      <point x="684" y="1437"/>
      <point x="936" y="1394"/>
      <point x="1084" y="1292"/>
      <point x="1143" y="1125"/>
    </contour>
  </outline>
</glyph>
<glyph name="Q" format="1">
  <advance width="1395"/>
  <unicode hex="0051"/>
  <outline>
    <contour>
      <point x="120" y="722" type="qcurve"/>
      <point x="120" y="917"/>
      <point x="200" y="1200"/>
      <point x="350" y="1381"/>
      <point x="563" y="1464"/>
      <point x="696" y="1464" type="qcurve"/>
      <point x="831" y="1464"/>
      <point x="1045" y="1381"/>
      <point x="1195" y="1200"/>
      <point x="1275" y="917"/>
      <point x="1275" y="722" type="qcurve"/>
      <point x="1275" y="545"/>
      <point x="1207" y="282"/>
      <point x="1083" y="102"/>
      <point x="908" y="1"/>
      <point x="801" y="-14" type="qcurve"/>
      <point x="827" y="-35"/>
      <point x="900" y="-94"/>
      <point x="990" y="-162"/>
      <point x="1094" y="-231"/>
      <point x="1151" y="-265" type="qcurve"/>
      <point x="1151" y="-266"/>
      <point x="1137" y="-286"/>
      <point x="1117" y="-315"/>
      <point x="1093" y="-348"/>
      <point x="1073" y="-379"/>
      <point x="1059" y="-399"/>
      <point x="1059" y="-400" type="qcurve"/>
      <point x="984" y="-359"/>
      <point x="847" y="-262"/>
      <point x="730" y="-162"/>
      <point x="634" y="-64"/>
      <point x="600" y="-20" type="qcurve"/>
      <point x="487" y="-6"/>
      <point x="309" y="97"/>
      <point x="185" y="280"/>
      <point x="120" y="546"/>
    </contour>
    <contour>
      <point x="311" y="722" type="qcurve"/>
      <point x="311" y="582"/>
      <point x="354" y="359"/>
      <point x="448" y="206"/>
      <point x="594" y="127"/>
      <point x="698" y="127" type="qcurve"/>
      <point x="801" y="127"/>
      <point x="948" y="206"/>
      <point x="1041" y="359"/>
      <point x="1084" y="582"/>
      <point x="1084" y="722" type="qcurve"/>
      <point x="1084" y="861"/>
      <point x="1040" y="1083"/>
      <point x="947" y="1233"/>
      <point x="800" y="1314"/>
      <point x="698" y="1314" type="qcurve"/>
      <point x="595" y="1314"/>
      <point x="448" y="1233"/>
      <point x="355" y="1083"/>
      <point x="311" y="861"/>
    </contour>
  </outline>
</glyph>
<glyph name="R" format="1">
  <advance width="1230"/>
  <unicode hex="0052"/>
  <outline>
    <contour>
      <point x="1160" y="0" type="line"/>
      <point x="979" y="0" type="line"/>
      <point x="569" y="600" type="line"/>
      <point x="369" y="600" type="line"/>
      <point x="369" y="0" type="line"/>
      <point x="181" y="0" type="line"/>
      <point x="181" y="1437" type="line"/>
      <point x="611" y="1437" type="line"/>
      <point x="730" y="1437"/>
      <point x="917" y="1404"/>
      <point x="1046" y="1313"/>
      <point x="1114" y="1155"/>
      <point x="1114" y="1028" type="qcurve"/>
      <point x="1114" y="912"/>
      <point x="1051" y="762"/>
      <point x="950" y="671"/>
      <point x="822" y="626"/>
      <point x="756" y="618" type="qcurve"/>
      <point x="1160" y="57" type="line"/>
    </contour>
    <contour>
      <point x="369" y="740" type="line"/>
      <point x="593" y="740" type="line"/>
      <point x="693" y="740"/>
      <point x="826" y="767"/>
      <point x="907" y="831"/>
      <point x="941" y="934"/>
      <point x="941" y="1011" type="qcurve"/>
      <point x="941" y="1104"/>
      <point x="905" y="1216"/>
      <point x="818" y="1277"/>
      <point x="671" y="1299"/>
      <point x="561" y="1299" type="qcurve"/>
      <point x="369" y="1299" type="line"/>
    </contour>
  </outline>
</glyph>
<glyph name="S" format="1">
  <advance width="1118"/>
  <unicode hex="0053"/>
  <outline>
    <contour>
      <point x="96" y="1097" type="curve"/>
      <point x="103" y="1372"/>
      <point x="314" y="1465"/>
      <point x="586" y="1465" type="curve" smooth="yes"/>
      <point x="705" y="1465"/>
      <point x="828" y="1443"/>
      <point x="936" y="1408" type="curve"/>
      <point x="957" y="1244" type="line"/>
      <point x="881" y="1275"/>
      <point x="728" y="1313"/>
      <point x="584" y="1313" type="curve" smooth="yes"/>
      <point x="400" y="1313"/>
      <point x="276" y="1266"/>
      <point x="276" y="1091" type="curve"/>
      <point x="280" y="964"/>
      <point x="341" y="910"/>
      <point x="586" y="835" type="curve"/>
      <point x="885" y="736"/>
      <point x="1024" y="673"/>
      <point x="1024" y="376" type="curve" smooth="yes"/>
      <point x="1024" y="130"/>
      <point x="881" y="-24"/>
      <point x="533" y="-24" type="curve" smooth="yes"/>
      <point x="336" y="-24"/>
      <point x="218" y="18"/>
      <point x="143" y="55" type="curve"/>
      <point x="117" y="213" type="line"/>
      <point x="204" y="170"/>
      <point x="336" y="127"/>
      <point x="515" y="127" type="curve" smooth="yes"/>
      <point x="719" y="127"/>
      <point x="838" y="181"/>
      <point x="838" y="380" type="curve" smooth="yes"/>
      <point x="838" y="551"/>
      <point x="764" y="599"/>
      <point x="490" y="686" type="curve"/>
      <point x="206" y="770"/>
      <point x="94" y="863"/>
    </contour>
  </outline>
</glyph>
<glyph name="T" format="1">
  <advance width="1072"/>
  <unicode hex="0054"/>
  <outline>
    <contour>
      <point x="628" y="1293" type="line"/>
      <point x="628" y="0" type="line"/>
      <point x="441" y="0" type="line"/>
      <point x="441" y="1293" type="line"/>
      <point x="29" y="1293" type="line"/>
      <point x="29" y="1437" type="line"/>
      <point x="1043" y="1437" type="line"/>
      <point x="1019" y="1293" type="line"/>
    </contour>
  </outline>
</glyph>
<glyph name="U" format="1">
  <advance width="1436"/>
  <unicode hex="0055"/>
  <outline>
    <contour>
      <point x="720" y="127" type="qcurve"/>
      <point x="808" y="127"/>
      <point x="940" y="165"/>
      <point x="1028" y="251"/>
      <point x="1073" y="401"/>
      <point x="1073" y="513" type="qcurve"/>
      <point x="1073" y="1437" type="line"/>
      <point x="1263" y="1437" type="line"/>
      <point x="1263" y="500" type="line"/>
      <point x="1263" y="345"/>
      <point x="1182" y="143"/>
      <point x="1037" y="24"/>
      <point x="838" y="-24"/>
      <point x="721" y="-24" type="qcurve"/>
      <point x="600" y="-24"/>
      <point x="398" y="25"/>
      <point x="253" y="146"/>
      <point x="173" y="348"/>
      <point x="173" y="501" type="qcurve"/>
      <point x="173" y="1437" type="line"/>
      <point x="364" y="1437" type="line"/>
      <point x="364" y="513" type="line"/>
      <point x="364" y="401"/>
      <point x="405" y="251"/>
      <point x="492" y="165"/>
      <point x="627" y="127"/>
    </contour>
  </outline>
</glyph>
<glyph name="V" format="1">
  <advance width="1189"/>
  <unicode hex="0056"/>
  <outline>
    <contour>
      <point x="459" y="0" type="line"/>
      <point x="45" y="1437" type="line"/>
      <point x="256" y="1437" type="line"/>
      <point x="520" y="421" type="line"/>
      <point x="598" y="94" type="line"/>
      <point x="672" y="421" type="line"/>
      <point x="929" y="1437" type="line"/>
      <point x="1143" y="1437" type="line"/>
      <point x="731" y="0" type="line"/>
    </contour>
  </outline>
</glyph>
<glyph name="W" format="1">
  <advance width="1858"/>
  <unicode hex="0057"/>
  <outline>
    <contour>
      <point x="1218" y="0" type="line"/>
      <point x="994" y="943" type="line"/>
      <point x="929" y="1262" type="line"/>
      <point x="866" y="942" type="line"/>
      <point x="642" y="0" type="line"/>
      <point x="366" y="0" type="line"/>
      <point x="79" y="1437" type="line"/>
      <point x="272" y="1437" type="line"/>
      <point x="476" y="325" type="line"/>
      <point x="512" y="124" type="line"/>
      <point x="550" y="322" type="line"/>
      <point x="794" y="1376" type="line"/>
      <point x="1066" y="1376" type="line"/>
      <point x="1311" y="321" type="line"/>
      <point x="1350" y="124" type="line"/>
      <point x="1386" y="325" type="line"/>
      <point x="1588" y="1437" type="line"/>
      <point x="1777" y="1437" type="line"/>
      <point x="1494" y="0" type="line"/>
    </contour>
  </outline>
</glyph>
<glyph name="bracketleft" format="1">
  <advance width="646"/>
  <unicode hex="005B"/>
  <outline>
    <contour>
      <point x="172" y="-218" type="line"/>
      <point x="172" y="1437" type="line"/>
      <point x="578" y="1437" type="line"/>
      <point x="578" y="1319" type="line"/>
      <point x="341" y="1319" type="line"/>
      <point x="347" y="966" type="line"/>
      <point x="347" y="337" type="line"/>
      <point x="341" y="-102" type="line"/>
      <point x="578" y="-102" type="line"/>
      <point x="578" y="-218" type="line"/>
    </contour>
  </outline>
</glyph>
<glyph name="asciicircum" format="1">
  <advance width="889"/>
  <unicode hex="005E"/>
  <outline>
    <contour>
      <point x="836" y="279" type="line"/>
      <point x="662" y="279" type="line"/>
      <point x="656" y="293"/>
      <point x="623" y="385"/>
      <point x="578" y="509"/>
      <point x="527" y="649"/>
      <point x="483" y="773"/>
      <point x="449" y="865"/>
      <point x="444" y="880" type="qcurve"/>
      <point x="440" y="869"/>
      <point x="418" y="811"/>
      <point x="389" y="728"/>
      <point x="354" y="630"/>
      <point x="317" y="528"/>
      <point x="282" y="429"/>
      <point x="253" y="348"/>
      <point x="232" y="289"/>
      <point x="228" y="279" type="qcurve"/>
      <point x="52" y="279" type="line"/>
      <point x="56" y="287"/>
      <point x="85" y="356"/>
      <point x="129" y="457"/>
      <point x="182" y="582"/>
      <point x="237" y="711"/>
      <point x="290" y="836"/>
      <point x="334" y="937"/>
      <point x="363" y="1005"/>
      <point x="367" y="1013" type="qcurve"/>
      <point x="522" y="1013" type="line"/>
    </contour>
  </outline>
</glyph>
<glyph name="underscore" format="1">
  <advance width="1156"/>
  <unicode hex="005F"/>
  <outline>
    <contour>
      <point x="121" y="-1" type="line"/>
      <point x="121" y="149" type="line"/>
      <point x="1035" y="149" type="line"/>
      <point x="1035" y="-1" type="line"/>
    </contour>
  </outline>
</glyph>
<glyph name="a" format="1">
  <advance width="1074"/>
  <unicode hex="0061"/>
  <outline>
    <contour>
      <point x="564" y="453" type="line"/>
      <point x="446" y="453"/>
      <point x="245" y="443"/>
      <point x="245" y="268" type="curve" smooth="yes"/>
      <point x="245" y="165"/>
      <point x="314" y="117"/>
      <point x="435" y="117" type="curve" smooth="yes"/>
      <point x="571" y="117"/>
      <point x="662" y="164"/>
      <point x="716" y="204" type="curve"/>
      <point x="716" y="447" type="line"/>
      <point x="667" y="450" type="line"/>
    </contour>
    <contour>
      <point x="900" y="221" type="line" smooth="yes"/>
      <point x="900" y="143"/>
      <point x="912" y="136"/>
      <point x="960" y="136" type="curve" smooth="yes"/>
      <point x="975" y="136"/>
      <point x="992" y="137"/>
      <point x="1006" y="137" type="curve"/>
      <point x="992" y="2" type="line"/>
      <point x="992" y="2"/>
      <point x="912" y="-3"/>
      <point x="881" y="-3" type="curve" smooth="yes"/>
      <point x="767" y="-3"/>
      <point x="730" y="80"/>
      <point x="730" y="117" type="curve"/>
      <point x="687" y="58"/>
      <point x="592" y="-18"/>
      <point x="374" y="-18" type="curve" smooth="yes"/>
      <point x="196" y="-18"/>
      <point x="76" y="96"/>
      <point x="76" y="275" type="curve" smooth="yes"/>
      <point x="76" y="514"/>
      <point x="302" y="568"/>
      <point x="534" y="568" type="curve" smooth="yes"/>
      <point x="581" y="568"/>
      <point x="626" y="564"/>
      <point x="661" y="561" type="curve"/>
      <point x="716" y="553" type="line"/>
      <point x="716" y="666" type="line" smooth="yes"/>
      <point x="716" y="879"/>
      <point x="656" y="912"/>
      <point x="485" y="912" type="curve" smooth="yes"/>
      <point x="351" y="912"/>
      <point x="236" y="878"/>
      <point x="157" y="848" type="curve"/>
      <point x="177" y="996" type="line"/>
      <point x="240" y="1023"/>
      <point x="337" y="1053"/>
      <point x="499" y="1053" type="curve" smooth="yes"/>
      <point x="823" y="1053"/>
      <point x="900" y="935"/>
      <point x="900" y="611" type="curve" smooth="yes"/>
    </contour>
  </outline>
</glyph>
<glyph name="b" format="1">
  <advance width="1134"/>
  <unicode hex="0062"/>
  <outline>
    <contour>
      <point x="158" y="0" type="line"/>
      <point x="158" y="1418" type="line"/>
      <point x="343" y="1437" type="line"/>
      <point x="343" y="956" type="line"/>
      <point x="379" y="980"/>
      <point x="425" y="999" type="qcurve"/>
      <point x="464" y="1016"/>
      <point x="571" y="1043"/>
      <point x="637" y="1043" type="qcurve"/>
      <point x="716" y="1043"/>
      <point x="858" y="982"/>
      <point x="965" y="852"/>
      <point x="1028" y="648"/>
      <point x="1028" y="507" type="qcurve"/>
      <point x="1028" y="361"/>
      <point x="956" y="160"/>
      <point x="839" y="36"/>
      <point x="692" y="-18"/>
      <point x="616" y="-18" type="qcurve"/>
      <point x="544" y="-18"/>
      <point x="434" y="18"/>
      <point x="396" y="41" type="qcurve"/>
      <point x="352" y="67"/>
      <point x="320" y="101" type="qcurve"/>
      <point x="294" y="-9" type="line"/>
    </contour>
    <contour>
      <point x="343" y="217" type="line"/>
      <point x="373" y="190"/>
      <point x="411" y="169" type="qcurve"/>
      <point x="443" y="151"/>
      <point x="533" y="122"/>
      <point x="588" y="122" type="qcurve"/>
      <point x="640" y="122"/>
      <point x="733" y="163"/>
      <point x="802" y="254"/>
      <point x="843" y="399"/>
      <point x="843" y="503" type="qcurve"/>
      <point x="843" y="692"/>
      <point x="723" y="901"/>
      <point x="601" y="901" type="qcurve"/>
      <point x="546" y="901"/>
      <point x="453" y="876"/>
      <point x="418" y="861" type="qcurve"/>
      <point x="378" y="843"/>
      <point x="343" y="822" type="qcurve"/>
    </contour>
  </outline>
</glyph>
<glyph name="c" format="1">
  <advance width="925"/>
  <unicode hex="0063"/>
  <outline>
    <contour>
      <point x="106" y="506" type="qcurve"/>
      <point x="106" y="608"/>
      <point x="141" y="769"/>
      <point x="202" y="889"/>
      <point x="285" y="970"/>
      <point x="382" y="1021"/>
      <point x="489" y="1043"/>
      <point x="543" y="1043" type="qcurve"/>
      <point x="609" y="1043"/>
      <point x="717" y="1026"/>
      <point x="756" y="1015" type="qcurve"/>
      <point x="802" y="1003"/>
      <point x="838" y="987" type="qcurve"/>
      <point x="853" y="852" type="line"/>
      <point x="814" y="866"/>
      <point x="768" y="877" type="qcurve"/>
      <point x="729" y="886"/>
      <point x="627" y="902"/>
      <point x="570" y="902" type="qcurve"/>
      <point x="503" y="902"/>
      <point x="400" y="858"/>
      <point x="331" y="763"/>
      <point x="295" y="613"/>
      <point x="295" y="509" type="qcurve"/>
      <point x="295" y="410"/>
      <point x="331" y="260"/>
      <point x="400" y="165"/>
      <point x="503" y="122"/>
      <point x="570" y="122" type="qcurve"/>
      <point x="627" y="122"/>
      <point x="730" y="137"/>
      <point x="769" y="146" type="qcurve"/>
      <point x="815" y="157"/>
      <point x="854" y="170" type="qcurve"/>
      <point x="838" y="37" type="line"/>
      <point x="802" y="21"/>
      <point x="757" y="9" type="qcurve"/>
      <point x="719" y="-2"/>
      <point x="612" y="-18"/>
      <point x="548" y="-18" type="qcurve"/>
      <point x="465" y="-18"/>
      <point x="307" y="33"/>
      <point x="182" y="156"/>
      <point x="106" y="361"/>
    </contour>
  </outline>
</glyph>
<glyph name="d" format="1">
  <advance width="1135"/>
  <unicode hex="0064"/>
  <outline>
    <contour>
      <point x="512" y="-18" type="qcurve"/>
      <point x="438" y="-18"/>
      <point x="292" y="36"/>
      <point x="177" y="160"/>
      <point x="106" y="361"/>
      <point x="106" y="507" type="qcurve"/>
      <point x="106" y="648"/>
      <point x="168" y="852"/>
      <point x="275" y="982"/>
      <point x="418" y="1043"/>
      <point x="499" y="1043" type="qcurve"/>
      <point x="563" y="1043"/>
      <point x="671" y="1018"/>
      <point x="711" y="1004" type="qcurve"/>
      <point x="758" y="987"/>
      <point x="796" y="966" type="qcurve"/>
      <point x="796" y="1418" type="line"/>
      <point x="979" y="1437" type="line"/>
      <point x="979" y="0" type="line"/>
      <point x="836" y="-8" type="line"/>
      <point x="804" y="102" type="line"/>
      <point x="774" y="68"/>
      <point x="732" y="42" type="qcurve"/>
      <point x="696" y="19"/>
      <point x="587" y="-18"/>
    </contour>
    <contour>
      <point x="541" y="122" type="qcurve"/>
      <point x="597" y="122"/>
      <point x="690" y="152"/>
      <point x="724" y="170" type="qcurve"/>
      <point x="764" y="191"/>
      <point x="796" y="219" type="qcurve"/>
      <point x="796" y="833" type="line"/>
      <point x="759" y="852"/>
      <point x="717" y="867" type="qcurve"/>
      <point x="680" y="880"/>
      <point x="584" y="901"/>
      <point x="528" y="901" type="qcurve"/>
      <point x="408" y="901"/>
      <point x="290" y="693"/>
      <point x="290" y="503" type="qcurve"/>
      <point x="290" y="399"/>
      <point x="330" y="254"/>
      <point x="399" y="163"/>
      <point x="490" y="122"/>
    </contour>
  </outline>
</glyph>
<glyph name="e" format="1">
  <advance width="1017"/>
  <unicode hex="0065"/>
  <outline>
    <contour>
      <point x="557" y="906" type="qcurve"/>
      <point x="510" y="906"/>
      <point x="423" y="877"/>
      <point x="353" y="809"/>
      <point x="306" y="698"/>
      <point x="300" y="608" type="qcurve"/>
      <point x="773" y="608" type="line"/>
      <point x="773" y="624"/>
      <point x="774" y="633" type="qcurve"/>
      <point x="775" y="641"/>
      <point x="775" y="657"/>
      <point x="775" y="664" type="qcurve"/>
      <point x="773" y="728"/>
      <point x="739" y="819"/>
      <point x="681" y="878"/>
      <point x="603" y="906"/>
    </contour>
    <contour>
      <point x="873" y="30" type="line"/>
      <point x="837" y="17"/>
      <point x="793" y="6" type="qcurve"/>
      <point x="755" y="-3"/>
      <point x="653" y="-18"/>
      <point x="592" y="-18" type="qcurve"/>
      <point x="350" y="-18"/>
      <point x="106" y="242"/>
      <point x="106" y="501" type="qcurve"/>
      <point x="106" y="646"/>
      <point x="174" y="847"/>
      <point x="294" y="979"/>
      <point x="458" y="1043"/>
      <point x="553" y="1043" type="qcurve"/>
      <point x="647" y="1043"/>
      <point x="789" y="983"/>
      <point x="883" y="884"/>
      <point x="932" y="756"/>
      <point x="934" y="687" type="qcurve"/>
      <point x="934" y="666"/>
      <point x="931" y="603"/>
      <point x="926" y="550"/>
      <point x="921" y="506"/>
      <point x="918" y="496" type="qcurve"/>
      <point x="297" y="496" type="line"/>
      <point x="297" y="460" type="line"/>
      <point x="297" y="368"/>
      <point x="341" y="234"/>
      <point x="422" y="155"/>
      <point x="536" y="122"/>
      <point x="605" y="122" type="qcurve"/>
      <point x="662" y="122"/>
      <point x="765" y="135"/>
      <point x="805" y="143" type="qcurve"/>
      <point x="852" y="152"/>
      <point x="892" y="164" type="qcurve"/>
    </contour>
  </outline>
</glyph>
<glyph name="f" format="1">
  <advance width="721"/>
  <unicode hex="0066"/>
  <outline>
    <contour>
      <point x="229" y="0" type="line"/>
      <point x="229" y="921" type="line"/>
      <point x="53" y="921" type="line"/>
      <point x="53" y="1025" type="line"/>
      <point x="230" y="1025" type="line"/>
      <point x="230" y="1034" type="line" smooth="yes"/>
      <point x="232" y="1140"/>
      <point x="266" y="1293"/>
      <point x="335" y="1391"/>
      <point x="442" y="1437"/>
      <point x="516" y="1437" type="qcurve"/>
      <point x="561" y="1437"/>
      <point x="634" y="1425"/>
      <point x="660" y="1417" type="qcurve"/>
      <point x="690" y="1408"/>
      <point x="713" y="1398" type="qcurve"/>
      <point x="727" y="1278" type="line"/>
      <point x="703" y="1285"/>
      <point x="677" y="1291" type="qcurve"/>
      <point x="654" y="1296"/>
      <point x="598" y="1304"/>
      <point x="569" y="1304" type="qcurve"/>
      <point x="524" y="1304"/>
      <point x="464" y="1285"/>
      <point x="428" y="1235"/>
      <point x="412" y="1145"/>
      <point x="412" y="1075" type="qcurve"/>
      <point x="412" y="1025" type="line"/>
      <point x="685" y="1025" type="line"/>
      <point x="685" y="921" type="line"/>
      <point x="412" y="921" type="line"/>
      <point x="412" y="0" type="line"/>
    </contour>
  </outline>
</glyph>
<glyph name="g" format="1">
  <advance width="1129"/>
  <unicode hex="0067"/>
  <outline>
    <contour>
      <point x="283" y="-283" type="line"/>
      <point x="317" y="-295"/>
      <point x="357" y="-304" type="qcurve"/>
      <point x="391" y="-312"/>
      <point x="480" y="-325"/>
      <point x="531" y="-325" type="qcurve"/>
      <point x="606" y="-325"/>
      <point x="703" y="-294"/>
      <point x="761" y="-215"/>
      <point x="784" y="-79"/>
      <point x="785" y="39" type="qcurve"/>
      <point x="785" y="72" type="line"/>
      <point x="753" y="52"/>
      <point x="711" y="36" type="qcurve"/>
      <point x="675" y="22"/>
      <point x="571" y="0"/>
      <point x="504" y="0" type="qcurve"/>
      <point x="427" y="0"/>
      <point x="284" y="57"/>
      <point x="173" y="180"/>
      <point x="106" y="375"/>
      <point x="106" y="509" type="qcurve"/>
      <point x="106" y="649"/>
      <point x="160" y="851"/>
      <point x="263" y="981"/>
      <point x="411" y="1043"/>
      <point x="505" y="1043" type="qcurve"/>
      <point x="570" y="1043"/>
      <point x="673" y="1017"/>
      <point x="751" y="981"/>
      <point x="803" y="944"/>
      <point x="818" y="932" type="qcurve"/>
      <point x="851" y="1031" type="line"/>
      <point x="971" y="1031" type="line"/>
      <point x="971" y="67" type="line"/>
      <point x="971" y="-79"/>
      <point x="930" y="-280"/>
      <point x="832" y="-405"/>
      <point x="668" y="-461"/>
      <point x="546" y="-461" type="qcurve"/>
      <point x="486" y="-461"/>
      <point x="395" y="-447"/>
      <point x="364" y="-439" type="qcurve"/>
      <point x="328" y="-429"/>
      <point x="303" y="-417" type="qcurve"/>
    </contour>
    <contour>
      <point x="527" y="140" type="qcurve"/>
      <point x="539" y="140" type="line"/>
      <point x="597" y="141"/>
      <point x="688" y="160"/>
      <point x="720" y="171" type="qcurve"/>
      <point x="757" y="184"/>
      <point x="785" y="200" type="qcurve"/>
      <point x="785" y="822" type="line"/>
      <point x="752" y="843"/>
      <point x="712" y="861" type="qcurve"/>
      <point x="678" y="876"/>
      <point x="587" y="901"/>
      <point x="533" y="901" type="qcurve"/>
      <point x="465" y="901"/>
      <point x="373" y="845"/>
      <point x="316" y="745"/>
      <point x="291" y="605"/>
      <point x="291" y="520" type="qcurve"/>
      <point x="291" y="434"/>
      <point x="319" y="292"/>
      <point x="377" y="193"/>
      <point x="465" y="141"/>
    </contour>
  </outline>
</glyph>
<glyph name="h" format="1">
  <advance width="1160"/>
  <unicode hex="0068"/>
  <outline>
    <contour>
      <point x="158" y="1419" type="line"/>
      <point x="343" y="1437" type="line"/>
      <point x="343" y="925" type="line"/>
      <point x="384" y="957"/>
      <point x="464" y="1002"/>
      <point x="548" y="1030"/>
      <point x="637" y="1043"/>
      <point x="688" y="1043" type="qcurve"/>
      <point x="775" y="1043"/>
      <point x="898" y="992"/>
      <point x="976" y="879"/>
      <point x="1011" y="702"/>
      <point x="1011" y="576" type="qcurve"/>
      <point x="1011" y="0" type="line"/>
      <point x="826" y="0" type="line"/>
      <point x="826" y="562" type="line"/>
      <point x="826" y="664"/>
      <point x="802" y="796"/>
      <point x="755" y="872"/>
      <point x="686" y="902"/>
      <point x="641" y="902" type="qcurve"/>
      <point x="595" y="902"/>
      <point x="503" y="873"/>
      <point x="424" y="836"/>
      <point x="361" y="801"/>
      <point x="343" y="795" type="qcurve"/>
      <point x="343" y="0" type="line"/>
      <point x="158" y="0" type="line"/>
    </contour>
  </outline>
</glyph>
<glyph name="i" format="1">
  <advance width="495"/>
  <unicode hex="0069"/>
  <outline>
    <contour>
      <point x="156" y="0" type="line"/>
      <point x="156" y="1025" type="line"/>
      <point x="340" y="1025" type="line"/>
      <point x="340" y="0" type="line"/>
    </contour>
    <contour>
      <point x="344" y="1408" type="line"/>
      <point x="344" y="1226" type="line"/>
      <point x="151" y="1226" type="line"/>
      <point x="151" y="1408" type="line"/>
    </contour>
  </outline>
</glyph>
<glyph name="j" format="1">
  <advance width="496"/>
  <unicode hex="006A"/>
  <outline>
    <contour>
      <point x="341" y="1025" type="line"/>
      <point x="341" y="133" type="line"/>
      <point x="341" y="52"/>
      <point x="306" y="-83"/>
      <point x="226" y="-196"/>
      <point x="96" y="-289"/>
      <point x="1" y="-326" type="qcurve"/>
      <point x="-54" y="-203" type="line"/>
      <point x="5" y="-170"/>
      <point x="86" y="-105"/>
      <point x="136" y="-24"/>
      <point x="158" y="80"/>
      <point x="158" y="152" type="qcurve"/>
      <point x="158" y="1025" type="line"/>
    </contour>
    <contour>
      <point x="345" y="1408" type="line"/>
      <point x="345" y="1226" type="line"/>
      <point x="153" y="1226" type="line"/>
      <point x="153" y="1408" type="line"/>
    </contour>
  </outline>
</glyph>
<glyph name="k" format="1">
  <advance width="1047"/>
  <unicode hex="006B"/>
  <outline>
    <contour>
      <point x="1031" y="0" type="line"/>
      <point x="841" y="0" type="line"/>
      <point x="433" y="468" type="line"/>
      <point x="343" y="385" type="line"/>
      <point x="343" y="0" type="line"/>
      <point x="158" y="0" type="line"/>
      <point x="158" y="1419" type="line"/>
      <point x="343" y="1437" type="line"/>
      <point x="343" y="564" type="line"/>
      <point x="812" y="1025" type="line"/>
      <point x="1007" y="1025" type="line"/>
      <point x="1007" y="986" type="line"/>
      <point x="565" y="559" type="line"/>
      <point x="1031" y="35" type="line"/>
    </contour>
  </outline>
</glyph>
<glyph name="l" format="1">
  <advance width="500"/>
  <unicode hex="006C"/>
  <outline>
    <contour>
      <point x="158" y="1419" type="line"/>
      <point x="342" y="1437" type="line"/>
      <point x="342" y="0" type="line"/>
      <point x="158" y="0" type="line"/>
    </contour>
  </outline>
</glyph>
<glyph name="m" format="1">
  <advance width="1691"/>
  <unicode hex="006D"/>
  <outline>
    <contour>
      <point x="1266" y="1043" type="qcurve"/>
      <point x="1408" y="1043"/>
      <point x="1542" y="844"/>
      <point x="1542" y="642" type="qcurve"/>
      <point x="1542" y="0" type="line"/>
      <point x="1356" y="0" type="line"/>
      <point x="1356" y="562" type="line"/>
      <point x="1356" y="654"/>
      <point x="1342" y="783"/>
      <point x="1309" y="864"/>
      <point x="1253" y="901"/>
      <point x="1211" y="901" type="qcurve"/>
      <point x="1176" y="901"/>
      <point x="1090" y="881"/>
      <point x="1010" y="853"/>
      <point x="947" y="820"/>
      <point x="935" y="808" type="qcurve"/>
      <point x="938" y="787"/>
      <point x="942" y="754" type="qcurve"/>
      <point x="945" y="725"/>
      <point x="950" y="636"/>
      <point x="950" y="573" type="qcurve"/>
      <point x="950" y="0" type="line"/>
      <point x="764" y="0" type="line"/>
      <point x="764" y="597" type="line"/>
      <point x="764" y="688"/>
      <point x="751" y="806"/>
      <point x="721" y="875"/>
      <point x="670" y="901"/>
      <point x="632" y="901" type="qcurve"/>
      <point x="588" y="901"/>
      <point x="504" y="882"/>
      <point x="429" y="854"/>
      <point x="366" y="821"/>
      <point x="343" y="808" type="qcurve"/>
      <point x="343" y="0" type="line"/>
      <point x="158" y="0" type="line"/>
      <point x="158" y="1025" type="line"/>
      <point x="287" y="1037" type="line"/>
      <point x="314" y="922" type="line"/>
      <point x="394" y="981"/>
      <point x="569" y="1043"/>
      <point x="669" y="1043" type="qcurve"/>
      <point x="769" y="1043"/>
      <point x="884" y="978"/>
      <point x="907" y="919" type="qcurve"/>
      <point x="938" y="945"/>
      <point x="1011" y="991"/>
      <point x="1099" y="1024"/>
      <point x="1203" y="1043"/>
    </contour>
  </outline>
</glyph>
<glyph name="n" format="1">
  <advance width="1156"/>
  <unicode hex="006E"/>
  <outline>
    <contour>
      <point x="158" y="1025" type="line"/>
      <point x="287" y="1037" type="line"/>
      <point x="314" y="922" type="line"/>
      <point x="338" y="940"/>
      <point x="409" y="983"/>
      <point x="500" y="1019"/>
      <point x="611" y="1043"/>
      <point x="674" y="1043" type="qcurve"/>
      <point x="753" y="1043"/>
      <point x="876" y="998"/>
      <point x="962" y="899"/>
      <point x="1007" y="739"/>
      <point x="1007" y="624" type="qcurve"/>
      <point x="1007" y="0" type="line"/>
      <point x="822" y="0" type="line"/>
      <point x="822" y="584" type="line"/>
      <point x="822" y="666"/>
      <point x="804" y="786"/>
      <point x="762" y="864"/>
      <point x="691" y="901"/>
      <point x="638" y="901" type="qcurve"/>
      <point x="582" y="901"/>
      <point x="477" y="871"/>
      <point x="435" y="854" type="qcurve"/>
      <point x="387" y="834"/>
      <point x="343" y="808" type="qcurve"/>
      <point x="343" y="0" type="line"/>
      <point x="158" y="0" type="line"/>
    </contour>
  </outline>
</glyph>
<glyph name="o" format="1">
  <advance width="1119"/>
  <unicode hex="006F"/>
  <outline>
    <contour>
      <point x="560" y="1043" type="qcurve"/>
      <point x="675" y="1043"/>
      <point x="846" y="967"/>
      <point x="958" y="828"/>
      <point x="1013" y="632"/>
      <point x="1013" y="510" type="qcurve"/>
      <point x="1013" y="394"/>
      <point x="958" y="198"/>
      <point x="846" y="59"/>
      <point x="675" y="-18"/>
      <point x="560" y="-18" type="qcurve"/>
      <point x="444" y="-18"/>
      <point x="273" y="59"/>
      <point x="161" y="198"/>
      <point x="106" y="394"/>
      <point x="106" y="510" type="qcurve"/>
      <point x="106" y="632"/>
      <point x="161" y="828"/>
      <point x="273" y="967"/>
      <point x="444" y="1043"/>
    </contour>
    <contour>
      <point x="560" y="122" type="qcurve"/>
      <point x="635" y="122"/>
      <point x="737" y="178"/>
      <point x="800" y="282"/>
      <point x="827" y="427"/>
      <point x="827" y="512" type="qcurve"/>
      <point x="827" y="606"/>
      <point x="799" y="750"/>
      <point x="736" y="849"/>
      <point x="634" y="901"/>
      <point x="560" y="901" type="qcurve"/>
      <point x="485" y="901"/>
      <point x="383" y="849"/>
      <point x="320" y="750"/>
      <point x="293" y="606"/>
      <point x="293" y="512" type="qcurve"/>
      <point x="293" y="427"/>
      <point x="320" y="282"/>
      <point x="383" y="178"/>
      <point x="485" y="122"/>
    </contour>
  </outline>
</glyph>
<glyph name="p" format="1">
  <advance width="1136"/>
  <unicode hex="0070"/>
  <outline>
    <contour>
      <point x="278" y="1036" type="line"/>
      <point x="311" y="927" type="line"/>
      <point x="344" y="951"/>
      <point x="417" y="994"/>
      <point x="503" y="1025"/>
      <point x="604" y="1043"/>
      <point x="666" y="1043" type="qcurve"/>
      <point x="752" y="1043"/>
      <point x="887" y="980"/>
      <point x="981" y="851"/>
      <point x="1030" y="651"/>
      <point x="1030" y="514" type="qcurve"/>
      <point x="1030" y="374"/>
      <point x="972" y="171"/>
      <point x="871" y="42"/>
      <point x="734" y="-18"/>
      <point x="655" y="-18" type="qcurve"/>
      <point x="586" y="-18"/>
      <point x="472" y="9"/>
      <point x="430" y="26" type="qcurve"/>
      <point x="382" y="45"/>
      <point x="343" y="71" type="qcurve"/>
      <point x="343" y="-399" type="line"/>
      <point x="158" y="-415" type="line"/>
      <point x="158" y="1025" type="line"/>
    </contour>
    <contour>
      <point x="343" y="198" type="line"/>
      <point x="378" y="177"/>
      <point x="419" y="160" type="qcurve"/>
      <point x="454" y="146"/>
      <point x="550" y="122"/>
      <point x="606" y="122" type="qcurve"/>
      <point x="665" y="122"/>
      <point x="754" y="165"/>
      <point x="814" y="262"/>
      <point x="844" y="416"/>
      <point x="844" y="524" type="qcurve"/>
      <point x="844" y="722"/>
      <point x="737" y="901"/>
      <point x="631" y="901" type="qcurve"/>
      <point x="571" y="901"/>
      <point x="467" y="874"/>
      <point x="428" y="858" type="qcurve"/>
      <point x="382" y="840"/>
      <point x="343" y="816" type="qcurve"/>
    </contour>
  </outline>
</glyph>
<glyph name="q" format="1">
  <advance width="1107"/>
  <unicode hex="0071"/>
  <outline>
    <contour>
      <point x="952" y="-390" type="line"/>
      <point x="767" y="-417" type="line"/>
      <point x="767" y="71" type="line"/>
      <point x="728" y="45"/>
      <point x="680" y="26" type="qcurve"/>
      <point x="639" y="9"/>
      <point x="530" y="-18"/>
      <point x="466" y="-18" type="qcurve"/>
      <point x="385" y="-18"/>
      <point x="252" y="52"/>
      <point x="158" y="188"/>
      <point x="106" y="385"/>
      <point x="106" y="509" type="qcurve"/>
      <point x="106" y="641"/>
      <point x="159" y="840"/>
      <point x="259" y="975"/>
      <point x="404" y="1043"/>
      <point x="497" y="1043" type="qcurve"/>
      <point x="544" y="1043"/>
      <point x="649" y="1035"/>
      <point x="750" y="1021"/>
      <point x="842" y="1001"/>
      <point x="911" y="985"/>
      <point x="931" y="979" type="qcurve"/>
      <point x="952" y="974" type="line"/>
    </contour>
    <contour>
      <point x="539" y="901" type="qcurve"/>
      <point x="483" y="901"/>
      <point x="391" y="865"/>
      <point x="326" y="776"/>
      <point x="290" y="627"/>
      <point x="290" y="512" type="qcurve"/>
      <point x="290" y="316"/>
      <point x="406" y="122"/>
      <point x="527" y="122" type="qcurve"/>
      <point x="572" y="122"/>
      <point x="657" y="145"/>
      <point x="691" y="159" type="qcurve"/>
      <point x="731" y="175"/>
      <point x="767" y="196" type="qcurve"/>
      <point x="767" y="875" type="line"/>
      <point x="727" y="883"/>
      <point x="687" y="889" type="qcurve"/>
      <point x="652" y="894"/>
      <point x="574" y="901"/>
    </contour>
  </outline>
</glyph>
<glyph name="r" format="1">
  <advance width="736"/>
  <unicode hex="0072"/>
  <outline>
    <contour>
      <point x="598" y="1043" type="qcurve"/>
      <point x="618" y="1043"/>
      <point x="656" y="1036"/>
      <point x="671" y="1032" type="qcurve"/>
      <point x="689" y="1027"/>
      <point x="704" y="1021" type="qcurve"/>
      <point x="682" y="878" type="line"/>
      <point x="678" y="881"/>
      <point x="668" y="885" type="qcurve"/>
      <point x="660" y="887"/>
      <point x="630" y="892"/>
      <point x="606" y="892" type="qcurve"/>
      <point x="549" y="892"/>
      <point x="453" y="862"/>
      <point x="418" y="845" type="qcurve"/>
      <point x="377" y="825"/>
      <point x="343" y="799" type="qcurve"/>
      <point x="343" y="0" type="line"/>
      <point x="158" y="0" type="line"/>
      <point x="158" y="1025" type="line"/>
      <point x="287" y="1035" type="line"/>
      <point x="322" y="917" type="line"/>
      <point x="380" y="977"/>
      <point x="522" y="1043"/>
    </contour>
  </outline>
</glyph>
<glyph name="s" format="1">
  <advance width="925"/>
  <unicode hex="0073"/>
  <outline>
    <contour>
      <point x="102" y="777" type="curve" smooth="yes"/>
      <point x="102" y="979"/>
      <point x="295" y="1043"/>
      <point x="489" y="1043" type="curve" smooth="yes"/>
      <point x="585" y="1043"/>
      <point x="682" y="1026"/>
      <point x="753" y="1001" type="curve"/>
      <point x="773" y="854" type="line"/>
      <point x="726" y="868"/>
      <point x="601" y="899"/>
      <point x="490" y="899" type="curve" smooth="yes"/>
      <point x="370" y="899"/>
      <point x="273" y="883"/>
      <point x="273" y="773" type="curve" smooth="yes"/>
      <point x="273" y="684"/>
      <point x="313" y="660"/>
      <point x="519" y="607" type="curve" smooth="yes"/>
      <point x="752" y="547"/>
      <point x="839" y="464"/>
      <point x="839" y="282" type="curve" smooth="yes"/>
      <point x="839" y="67"/>
      <point x="655" y="-19"/>
      <point x="444" y="-19" type="curve" smooth="yes"/>
      <point x="340" y="-19"/>
      <point x="231" y="2"/>
      <point x="132" y="38" type="curve"/>
      <point x="113" y="189" type="line"/>
      <point x="154" y="172"/>
      <point x="302" y="126"/>
      <point x="433" y="126" type="curve" smooth="yes"/>
      <point x="558" y="126"/>
      <point x="665" y="155"/>
      <point x="665" y="285" type="curve" smooth="yes"/>
      <point x="665" y="379"/>
      <point x="615" y="413"/>
      <point x="410" y="465" type="curve" smooth="yes"/>
      <point x="211" y="515"/>
      <point x="102" y="583"/>
    </contour>
  </outline>
</glyph>
<glyph name="t" format="1">
  <advance width="679"/>
  <unicode hex="0074"/>
  <outline>
    <contour>
      <point x="444" y="-18" type="qcurve"/>
      <point x="376" y="-18"/>
      <point x="282" y="16"/>
      <point x="224" y="98"/>
      <point x="197" y="235"/>
      <point x="197" y="337" type="qcurve"/>
      <point x="197" y="921" type="line"/>
      <point x="55" y="921" type="line"/>
      <point x="55" y="1025" type="line"/>
      <point x="204" y="1025" type="line"/>
      <point x="230" y="1345" type="line"/>
      <point x="379" y="1374" type="line"/>
      <point x="379" y="1025" type="line"/>
      <point x="635" y="1025" type="line"/>
      <point x="635" y="921" type="line"/>
      <point x="382" y="921" type="line"/>
      <point x="382" y="298" type="line"/>
      <point x="382" y="244"/>
      <point x="389" y="173"/>
      <point x="412" y="131"/>
      <point x="455" y="114"/>
      <point x="492" y="114" type="qcurve"/>
      <point x="519" y="114"/>
      <point x="569" y="119"/>
      <point x="589" y="123" type="qcurve"/>
      <point x="612" y="127"/>
      <point x="631" y="132" type="qcurve"/>
      <point x="615" y="3" type="line"/>
      <point x="597" y="-4"/>
      <point x="571" y="-8" type="qcurve"/>
      <point x="549" y="-12"/>
      <point x="486" y="-18"/>
    </contour>
  </outline>
</glyph>
<glyph name="u" format="1">
  <advance width="1156"/>
  <unicode hex="0075"/>
  <outline>
    <contour>
      <point x="998" y="0" type="line"/>
      <point x="864" y="-11" type="line"/>
      <point x="839" y="118" type="line"/>
      <point x="800" y="80"/>
      <point x="746" y="50" type="qcurve"/>
      <point x="700" y="24"/>
      <point x="569" y="-18"/>
      <point x="484" y="-18" type="qcurve"/>
      <point x="310" y="-18"/>
      <point x="149" y="203"/>
      <point x="149" y="438" type="qcurve"/>
      <point x="149" y="1025" type="line"/>
      <point x="333" y="1025" type="line"/>
      <point x="333" y="445" type="line"/>
      <point x="333" y="358"/>
      <point x="352" y="235"/>
      <point x="397" y="158"/>
      <point x="472" y="122"/>
      <point x="527" y="122" type="qcurve"/>
      <point x="590" y="122"/>
      <point x="695" y="151"/>
      <point x="733" y="169" type="qcurve"/>
      <point x="778" y="190"/>
      <point x="813" y="217" type="qcurve"/>
      <point x="813" y="1025" type="line"/>
      <point x="998" y="1025" type="line"/>
    </contour>
  </outline>
</glyph>
<glyph name="v" format="1">
  <advance width="965"/>
  <unicode hex="0076"/>
  <outline>
    <contour>
      <point x="373" y="0" type="line"/>
      <point x="45" y="1025" type="line"/>
      <point x="239" y="1025" type="line"/>
      <point x="482" y="161" type="line"/>
      <point x="732" y="1025" type="line"/>
      <point x="921" y="1025" type="line"/>
      <point x="594" y="0" type="line"/>
    </contour>
  </outline>
</glyph>
<glyph name="x" format="1">
  <advance width="997"/>
  <unicode hex="0078"/>
  <outline>
    <contour>
      <point x="395" y="513" type="line"/>
      <point x="53" y="1025" type="line"/>
      <point x="247" y="1025" type="line"/>
      <point x="499" y="617" type="line"/>
      <point x="749" y="1025" type="line"/>
      <point x="945" y="1025" type="line"/>
      <point x="601" y="513" type="line"/>
      <point x="945" y="0" type="line"/>
      <point x="738" y="0" type="line"/>
      <point x="499" y="402" type="line"/>
      <point x="258" y="0" type="line"/>
      <point x="53" y="0" type="line"/>
    </contour>
  </outline>
</glyph>
<glyph name="y" format="1">
  <advance width="979"/>
  <unicode hex="0079"/>
  <outline>
    <contour>
      <point x="491" y="136" type="line"/>
      <point x="738" y="1025" type="line"/>
      <point x="934" y="1025" type="line"/>
      <point x="581" y="-60" type="line"/>
      <point x="552" y="-149"/>
      <point x="503" y="-287"/>
      <point x="444" y="-381"/>
      <point x="367" y="-429"/>
      <point x="311" y="-429" type="qcurve"/>
      <point x="249" y="-429"/>
      <point x="147" y="-405"/>
      <point x="110" y="-390" type="qcurve"/>
      <point x="67" y="-373"/>
      <point x="32" y="-351" type="qcurve"/>
      <point x="45" y="-225" type="line"/>
      <point x="85" y="-241"/>
      <point x="125" y="-252" type="qcurve"/>
      <point x="160" y="-262"/>
      <point x="241" y="-278"/>
      <point x="279" y="-278" type="qcurve"/>
      <point x="301" y="-278"/>
      <point x="331" y="-261"/>
      <point x="352" y="-230"/>
      <point x="367" y="-184"/>
      <point x="375" y="-154" type="qcurve"/>
      <point x="399" y="-47" type="line"/>
      <point x="43" y="1025" type="line"/>
      <point x="242" y="1025" type="line"/>
    </contour>
  </outline>
</glyph>
<glyph name="z" format="1">
  <advance width="878"/>
  <unicode hex="007A"/>
  <outline>
    <contour>
      <point x="811" y="882" type="line"/>
      <point x="273" y="134" type="line"/>
      <point x="461" y="138" type="line"/>
      <point x="799" y="138" type="line"/>
      <point x="799" y="0" type="line"/>
      <point x="84" y="0" type="line"/>
      <point x="84" y="153" type="line"/>
      <point x="616" y="890" type="line"/>
      <point x="378" y="885" type="line"/>
      <point x="101" y="885" type="line"/>
      <point x="101" y="1025" type="line"/>
      <point x="779" y="1025" type="line"/>
    </contour>
  </outline>
</glyph>
<glyph name="braceleft" format="1">
  <advance width="608"/>
  <unicode hex="007B"/>
  <outline>
    <contour>
      <point x="74" y="657" type="line"/>
      <point x="199" y="752" type="line"/>
      <point x="199" y="891"/>
      <point x="213" y="1096"/>
      <point x="244" y="1242"/>
      <point x="294" y="1336"/>
      <point x="367" y="1390"/>
      <point x="464" y="1411"/>
      <point x="526" y="1412" type="qcurve"/>
      <point x="526" y="1322" type="line"/>
      <point x="489" y="1322"/>
      <point x="438" y="1304"/>
      <point x="405" y="1255"/>
      <point x="387" y="1169"/>
      <point x="378" y="1033"/>
      <point x="377" y="839"/>
      <point x="377" y="708" type="qcurve"/>
      <point x="211" y="605" type="line"/>
      <point x="377" y="497" type="line"/>
      <point x="377" y="366"/>
      <point x="378" y="173"/>
      <point x="387" y="37"/>
      <point x="405" y="-49"/>
      <point x="438" y="-98"/>
      <point x="489" y="-116"/>
      <point x="526" y="-116" type="qcurve"/>
      <point x="526" y="-206" type="line"/>
      <point x="464" y="-205"/>
      <point x="367" y="-184"/>
      <point x="294" y="-130"/>
      <point x="244" y="-36"/>
      <point x="213" y="110"/>
      <point x="199" y="315"/>
      <point x="199" y="454" type="qcurve"/>
      <point x="74" y="550" type="line"/>
    </contour>
  </outline>
</glyph>
<glyph name="braceright" format="1">
  <advance width="608"/>
  <unicode hex="007D"/>
  <outline>
    <contour>
      <point x="535" y="550" type="line"/>
      <point x="409" y="454" type="line"/>
      <point x="409" y="315"/>
      <point x="395" y="110"/>
      <point x="364" y="-36"/>
      <point x="314" y="-130"/>
      <point x="241" y="-184"/>
      <point x="144" y="-205"/>
      <point x="82" y="-206" type="qcurve"/>
      <point x="82" y="-116" type="line"/>
      <point x="119" y="-116"/>
      <point x="170" y="-98"/>
      <point x="203" y="-49"/>
      <point x="220" y="37"/>
      <point x="229" y="173"/>
      <point x="230" y="366"/>
      <point x="230" y="497" type="qcurve"/>
      <point x="397" y="605" type="line"/>
      <point x="230" y="708" type="line"/>
      <point x="230" y="839"/>
      <point x="229" y="1033"/>
      <point x="220" y="1169"/>
      <point x="203" y="1255"/>
      <point x="170" y="1304"/>
      <point x="119" y="1322"/>
      <point x="82" y="1322" type="qcurve"/>
      <point x="82" y="1412" type="line"/>
      <point x="144" y="1411"/>
      <point x="241" y="1390"/>
      <point x="314" y="1336"/>
      <point x="364" y="1242"/>
      <point x="395" y="1096"/>
      <point x="409" y="891"/>
      <point x="409" y="752" type="qcurve"/>
      <point x="535" y="657" type="line"/>
    </contour>
  </outline>
</glyph>
<glyph name="asciitilde" format="1">
  <advance width="893"/>
  <unicode hex="007E"/>
  <outline>
    <contour>
      <point x="562" y="617" type="qcurve"/>
      <point x="588" y="611"/>
      <point x="603" y="622" type="qcurve"/>
      <point x="618" y="633"/>
      <point x="628" y="679"/>
      <point x="629" y="705" type="qcurve"/>
      <point x="760" y="705" type="line"/>
      <point x="761" y="646"/>
      <point x="734" y="566"/>
      <point x="691" y="516"/>
      <point x="636" y="492"/>
      <point x="609" y="491" type="qcurve"/>
      <point x="599" y="490"/>
      <point x="579" y="491"/>
      <point x="568" y="493" type="qcurve"/>
      <point x="534" y="497"/>
      <point x="465" y="529"/>
      <point x="401" y="565"/>
      <point x="343" y="594"/>
      <point x="321" y="595" type="qcurve"/>
      <point x="306" y="595"/>
      <point x="285" y="579"/>
      <point x="273" y="552"/>
      <point x="268" y="517"/>
      <point x="268" y="498" type="qcurve"/>
      <point x="136" y="498" type="line"/>
      <point x="135" y="563"/>
      <point x="165" y="650"/>
      <point x="214" y="701"/>
      <point x="278" y="722"/>
      <point x="311" y="721" type="qcurve"/>
      <point x="348" y="719"/>
      <point x="418" y="689"/>
      <point x="482" y="653"/>
      <point x="538" y="621"/>
    </contour>
  </outline>
</glyph>
<glyph name="cent" format="1">
  <advance width="981"/>
  <unicode hex="00A2"/>
  <outline>
    <contour>
      <point x="562" y="-129" type="line"/>
      <point x="500" y="-129" type="line"/>
      <point x="528" y="1161" type="line"/>
      <point x="588" y="1161" type="line"/>
    </contour>
    <contour>
      <point x="97" y="504" type="qcurve"/>
      <point x="97" y="654"/>
      <point x="178" y="858"/>
      <point x="309" y="982"/>
      <point x="472" y="1036"/>
      <point x="555" y="1035" type="qcurve"/>
      <point x="625" y="1035"/>
      <point x="749" y="998"/>
      <point x="841" y="925"/>
      <point x="890" y="816"/>
      <point x="885" y="744" type="qcurve"/>
      <point x="733" y="750" type="line"/>
      <point x="734" y="827"/>
      <point x="641" y="894"/>
      <point x="556" y="893" type="qcurve"/>
      <point x="496" y="892"/>
      <point x="397" y="853"/>
      <point x="325" y="763"/>
      <point x="286" y="615"/>
      <point x="286" y="507" type="qcurve"/>
      <point x="286" y="398"/>
      <point x="323" y="246"/>
      <point x="395" y="152"/>
      <point x="500" y="109"/>
      <point x="567" y="109" type="qcurve"/>
      <point x="626" y="109"/>
      <point x="732" y="131"/>
      <point x="813" y="157"/>
      <point x="860" y="179"/>
      <point x="860" y="179" type="qcurve"/>
      <point x="834" y="42" type="line"/>
      <point x="822" y="34"/>
      <point x="772" y="11"/>
      <point x="699" y="-12"/>
      <point x="605" y="-28"/>
      <point x="551" y="-28" type="qcurve"/>
      <point x="496" y="-28"/>
      <point x="386" y="-5"/>
      <point x="286" y="46"/>
      <point x="198" y="127"/>
      <point x="134" y="246"/>
      <point x="97" y="403"/>
    </contour>
  </outline>
</glyph>
<glyph name="sterling" format="1">
  <advance width="994"/>
  <unicode hex="00A3"/>
  <outline>
    <contour>
      <point x="874" y="-3" type="line"/>
      <point x="89" y="-3" type="line"/>
      <point x="89" y="140" type="line"/>
      <point x="185" y="140" type="line"/>
      <point x="210" y="168"/>
      <point x="229" y="238" type="qcurve"/>
      <point x="237" y="268"/>
      <point x="253" y="351"/>
      <point x="266" y="463"/>
      <point x="274" y="607"/>
      <point x="274" y="697" type="qcurve"/>
      <point x="108" y="697" type="line"/>
      <point x="108" y="814" type="line"/>
      <point x="274" y="814" type="line"/>
      <point x="274" y="1059" type="line"/>
      <point x="274" y="1149"/>
      <point x="315" y="1296"/>
      <point x="400" y="1399"/>
      <point x="532" y="1454"/>
      <point x="623" y="1453" type="qcurve"/>
      <point x="676" y="1452"/>
      <point x="765" y="1435"/>
      <point x="798" y="1424" type="qcurve"/>
      <point x="837" y="1412"/>
      <point x="868" y="1396" type="qcurve"/>
      <point x="868" y="1257" type="line"/>
      <point x="837" y="1269"/>
      <point x="803" y="1280" type="qcurve"/>
      <point x="774" y="1289"/>
      <point x="696" y="1303"/>
      <point x="654" y="1304" type="qcurve"/>
      <point x="573" y="1304"/>
      <point x="492" y="1240"/>
      <point x="460" y="1115"/>
      <point x="460" y="932"/>
      <point x="460" y="814" type="qcurve"/>
      <point x="821" y="814" type="line"/>
      <point x="821" y="697" type="line"/>
      <point x="460" y="697" type="line"/>
      <point x="460" y="602"/>
      <point x="450" y="453"/>
      <point x="434" y="339"/>
      <point x="413" y="257"/>
      <point x="403" y="229" type="qcurve"/>
      <point x="378" y="162"/>
      <point x="347" y="141" type="qcurve"/>
      <point x="885" y="141" type="line"/>
    </contour>
  </outline>
</glyph>
<glyph name="currency" format="1">
  <advance width="1184"/>
  <unicode hex="00A4"/>
  <outline>
    <contour>
      <point x="591" y="1354" type="qcurve"/>
      <point x="672" y="1354"/>
      <point x="796" y="1315"/>
      <point x="844" y="1281" type="qcurve"/>
      <point x="970" y="1409" type="line"/>
      <point x="1040" y="1337" type="line"/>
      <point x="916" y="1213" type="line"/>
      <point x="962" y="1157"/>
      <point x="1005" y="1019"/>
      <point x="1005" y="945" type="qcurve"/>
      <point x="1005" y="872"/>
      <point x="964" y="737"/>
      <point x="919" y="682" type="qcurve"/>
      <point x="1040" y="560" type="line"/>
      <point x="973" y="490" type="line"/>
      <point x="850" y="613" type="line"/>
      <point x="802" y="577"/>
      <point x="674" y="536"/>
      <point x="591" y="536" type="qcurve"/>
      <point x="508" y="536"/>
      <point x="380" y="577"/>
      <point x="331" y="612" type="qcurve"/>
      <point x="211" y="490" type="line"/>
      <point x="145" y="560" type="line"/>
      <point x="262" y="679" type="line"/>
      <point x="217" y="735"/>
      <point x="175" y="872"/>
      <point x="175" y="945" type="qcurve"/>
      <point x="175" y="1020"/>
      <point x="218" y="1159"/>
      <point x="265" y="1215" type="qcurve"/>
      <point x="145" y="1337" type="line"/>
      <point x="215" y="1409" type="line"/>
      <point x="338" y="1283" type="line"/>
      <point x="386" y="1316"/>
      <point x="510" y="1354"/>
    </contour>
    <contour>
      <point x="591" y="677" type="qcurve"/>
      <point x="661" y="677"/>
      <point x="759" y="722"/>
      <point x="821" y="797"/>
      <point x="849" y="893"/>
      <point x="849" y="945" type="qcurve"/>
      <point x="849" y="996"/>
      <point x="821" y="1092"/>
      <point x="760" y="1166"/>
      <point x="661" y="1211"/>
      <point x="591" y="1211" type="qcurve"/>
      <point x="520" y="1211"/>
      <point x="421" y="1166"/>
      <point x="360" y="1092"/>
      <point x="332" y="996"/>
      <point x="332" y="945" type="qcurve"/>
      <point x="332" y="893"/>
      <point x="360" y="797"/>
      <point x="422" y="722"/>
      <point x="520" y="677"/>
    </contour>
  </outline>
</glyph>
<glyph name="yen" format="1">
  <advance width="1061"/>
  <unicode hex="00A5"/>
  <outline>
    <contour>
      <point x="170" y="550" type="line"/>
      <point x="406" y="550" type="line"/>
      <point x="402" y="558"/>
      <point x="369" y="636"/>
      <point x="321" y="753"/>
      <point x="261" y="899"/>
      <point x="199" y="1050"/>
      <point x="139" y="1195"/>
      <point x="91" y="1312"/>
      <point x="59" y="1390"/>
      <point x="55" y="1398" type="qcurve"/>
      <point x="246" y="1398" type="line"/>
      <point x="447" y="879" type="line"/>
      <point x="448" y="873"/>
      <point x="460" y="832"/>
      <point x="478" y="776"/>
      <point x="497" y="713"/>
      <point x="515" y="657"/>
      <point x="527" y="615"/>
      <point x="528" y="609" type="qcurve"/>
      <point x="529" y="612"/>
      <point x="542" y="652"/>
      <point x="560" y="710"/>
      <point x="581" y="776"/>
      <point x="599" y="834"/>
      <point x="612" y="875"/>
      <point x="613" y="879" type="qcurve"/>
      <point x="613" y="882"/>
      <point x="629" y="928"/>
      <point x="656" y="999"/>
      <point x="690" y="1089"/>
      <point x="726" y="1182"/>
      <point x="761" y="1272"/>
      <point x="789" y="1345"/>
      <point x="807" y="1393"/>
      <point x="809" y="1398" type="qcurve"/>
      <point x="1001" y="1398" type="line"/>
      <point x="997" y="1390"/>
      <point x="965" y="1312"/>
      <point x="916" y="1195"/>
      <point x="856" y="1050"/>
      <point x="794" y="899"/>
      <point x="734" y="753"/>
      <point x="686" y="636"/>
      <point x="653" y="558"/>
      <point x="649" y="550" type="qcurve"/>
      <point x="899" y="550" type="line"/>
      <point x="899" y="460" type="line"/>
      <point x="628" y="460" type="line"/>
      <point x="627" y="455"/>
      <point x="626" y="419"/>
      <point x="624" y="379"/>
      <point x="623" y="343"/>
      <point x="623" y="339" type="qcurve"/>
      <point x="902" y="339" type="line"/>
      <point x="902" y="254" type="line"/>
      <point x="618" y="254" type="line"/>
      <point x="618" y="-3" type="line"/>
      <point x="437" y="-3" type="line"/>
      <point x="437" y="254" type="line"/>
      <point x="170" y="254" type="line"/>
      <point x="170" y="339" type="line"/>
      <point x="433" y="339" type="line"/>
      <point x="427" y="460" type="line"/>
      <point x="170" y="460" type="line"/>
    </contour>
  </outline>
</glyph>
<glyph name="section" format="1">
  <advance width="1003"/>
  <unicode hex="00A7"/>
  <outline>
    <contour>
      <point x="123" y="1091" type="qcurve"/>
      <point x="124" y="1174"/>
      <point x="190" y="1279"/>
      <point x="294" y="1338"/>
      <point x="423" y="1360"/>
      <point x="487" y="1360" type="qcurve"/>
      <point x="552" y="1360"/>
      <point x="657" y="1342"/>
      <point x="695" y="1331" type="qcurve"/>
      <point x="739" y="1318"/>
      <point x="774" y="1302" type="qcurve"/>
      <point x="774" y="1299"/>
      <point x="781" y="1257"/>
      <point x="789" y="1208"/>
      <point x="796" y="1166"/>
      <point x="796" y="1163" type="qcurve"/>
      <point x="779" y="1171"/>
      <point x="724" y="1192"/>
      <point x="646" y="1211"/>
      <point x="546" y="1223"/>
      <point x="486" y="1223" type="qcurve"/>
      <point x="443" y="1222"/>
      <point x="370" y="1213"/>
      <point x="316" y="1185"/>
      <point x="286" y="1135"/>
      <point x="286" y="1094" type="qcurve"/>
      <point x="286" y="1050"/>
      <point x="329" y="993"/>
      <point x="405" y="950"/>
      <point x="507" y="913"/>
      <point x="567" y="889" type="qcurve"/>
      <point x="636" y="862"/>
      <point x="751" y="813"/>
      <point x="833" y="753"/>
      <point x="878" y="674"/>
      <point x="878" y="617" type="qcurve"/>
      <point x="878" y="575"/>
      <point x="850" y="507"/>
      <point x="815" y="459"/>
      <point x="784" y="432"/>
      <point x="781" y="430" type="qcurve"/>
      <point x="799" y="417"/>
      <point x="840" y="378"/>
      <point x="873" y="327"/>
      <point x="894" y="264"/>
      <point x="893" y="227" type="qcurve"/>
      <point x="893" y="169"/>
      <point x="851" y="69"/>
      <point x="758" y="-5"/>
      <point x="610" y="-47"/>
      <point x="504" y="-47" type="qcurve"/>
      <point x="432" y="-47"/>
      <point x="315" y="-27"/>
      <point x="273" y="-14" type="qcurve"/>
      <point x="224" y="0"/>
      <point x="184" y="19" type="qcurve"/>
      <point x="162" y="159" type="line"/>
      <point x="207" y="139"/>
      <point x="262" y="124" type="qcurve"/>
      <point x="308" y="111"/>
      <point x="430" y="90"/>
      <point x="499" y="90" type="qcurve"/>
      <point x="552" y="90"/>
      <point x="634" y="105"/>
      <point x="690" y="138"/>
      <point x="720" y="192"/>
      <point x="721" y="232" type="qcurve"/>
      <point x="722" y="278"/>
      <point x="668" y="340"/>
      <point x="579" y="386"/>
      <point x="464" y="425"/>
      <point x="406" y="449" type="qcurve"/>
      <point x="323" y="483"/>
      <point x="217" y="544"/>
      <point x="154" y="607"/>
      <point x="130" y="676"/>
      <point x="130" y="717" type="qcurve"/>
      <point x="130" y="747"/>
      <point x="148" y="798"/>
      <point x="176" y="842"/>
      <point x="213" y="878"/>
      <point x="231" y="892" type="qcurve"/>
      <point x="215" y="903"/>
      <point x="177" y="937"/>
      <point x="144" y="985"/>
      <point x="122" y="1049"/>
    </contour>
    <contour>
      <point x="751" y="603" type="qcurve"/>
      <point x="751" y="632"/>
      <point x="725" y="671"/>
      <point x="669" y="704"/>
      <point x="582" y="739"/>
      <point x="521" y="763" type="qcurve"/>
      <point x="497" y="772"/>
      <point x="454" y="789"/>
      <point x="406" y="807"/>
      <point x="349" y="830"/>
      <point x="312" y="846" type="qcurve"/>
      <point x="304" y="841"/>
      <point x="284" y="821"/>
      <point x="267" y="795"/>
      <point x="255" y="766"/>
      <point x="254" y="751" type="qcurve"/>
      <point x="252" y="723"/>
      <point x="266" y="682"/>
      <point x="309" y="644"/>
      <point x="390" y="603"/>
      <point x="455" y="576" type="qcurve"/>
      <point x="488" y="563"/>
      <point x="557" y="536"/>
      <point x="622" y="510"/>
      <point x="678" y="486"/>
      <point x="699" y="476" type="qcurve"/>
      <point x="714" y="490"/>
      <point x="725" y="508" type="qcurve"/>
      <point x="735" y="524"/>
      <point x="751" y="571"/>
    </contour>
  </outline>
</glyph>
<glyph name="copyright" format="1">
  <advance width="1612"/>
  <unicode hex="00A9"/>
  <outline>
    <contour>
      <point x="1402" y="708" type="qcurve"/>
      <point x="1402" y="786"/>
      <point x="1365" y="938"/>
      <point x="1295" y="1076"/>
      <point x="1192" y="1194"/>
      <point x="1060" y="1280"/>
      <point x="900" y="1329"/>
      <point x="808" y="1329" type="qcurve"/>
      <point x="680" y="1329"/>
      <point x="462" y="1233"/>
      <point x="303" y="1065"/>
      <point x="212" y="838"/>
      <point x="212" y="708" type="qcurve"/>
      <point x="212" y="576"/>
      <point x="300" y="350"/>
      <point x="459" y="184"/>
      <point x="677" y="89"/>
      <point x="808" y="89" type="qcurve"/>
      <point x="928" y="89"/>
      <point x="1144" y="178"/>
      <point x="1307" y="340"/>
      <point x="1402" y="568"/>
    </contour>
    <contour>
      <point x="1520" y="708" type="qcurve"/>
      <point x="1520" y="597"/>
      <point x="1465" y="403"/>
      <point x="1366" y="242"/>
      <point x="1231" y="116"/>
      <point x="1073" y="29"/>
      <point x="896" y="-17"/>
      <point x="806" y="-17" type="qcurve"/>
      <point x="706" y="-17"/>
      <point x="523" y="33"/>
      <point x="364" y="124"/>
      <point x="235" y="255"/>
      <point x="142" y="416"/>
      <point x="92" y="604"/>
      <point x="92" y="708" type="qcurve"/>
      <point x="92" y="811"/>
      <point x="143" y="998"/>
      <point x="237" y="1160"/>
      <point x="367" y="1291"/>
      <point x="526" y="1384"/>
      <point x="708" y="1435"/>
      <point x="806" y="1435" type="qcurve"/>
      <point x="913" y="1435"/>
      <point x="1102" y="1379"/>
      <point x="1261" y="1280"/>
      <point x="1386" y="1143"/>
      <point x="1474" y="981"/>
      <point x="1520" y="801"/>
    </contour>
    <contour>
      <point x="1047" y="313" type="line"/>
      <point x="1043" y="311"/>
      <point x="1003" y="290"/>
      <point x="941" y="267"/>
      <point x="860" y="248"/>
      <point x="816" y="248" type="qcurve"/>
      <point x="708" y="248"/>
      <point x="557" y="326"/>
      <point x="463" y="455"/>
      <point x="421" y="621"/>
      <point x="421" y="708" type="qcurve"/>
      <point x="421" y="807"/>
      <point x="471" y="976"/>
      <point x="570" y="1098"/>
      <point x="718" y="1167"/>
      <point x="816" y="1167" type="qcurve"/>
      <point x="859" y="1167"/>
      <point x="939" y="1151"/>
      <point x="1003" y="1130"/>
      <point x="1044" y="1112"/>
      <point x="1047" y="1110" type="qcurve"/>
      <point x="1053" y="1013" type="line"/>
      <point x="1022" y="1025"/>
      <point x="986" y="1036" type="qcurve"/>
      <point x="954" y="1045"/>
      <point x="871" y="1060"/>
      <point x="823" y="1060" type="qcurve"/>
      <point x="745" y="1060"/>
      <point x="638" y="1004"/>
      <point x="574" y="908"/>
      <point x="546" y="780"/>
      <point x="546" y="708" type="qcurve"/>
      <point x="546" y="631"/>
      <point x="573" y="502"/>
      <point x="638" y="408"/>
      <point x="744" y="355"/>
      <point x="823" y="355" type="qcurve"/>
      <point x="871" y="355"/>
      <point x="953" y="373"/>
      <point x="1015" y="395"/>
      <point x="1051" y="415"/>
      <point x="1053" y="417" type="qcurve"/>
    </contour>
  </outline>
</glyph>
<glyph name="logicalnot" format="1">
  <advance width="1386"/>
  <unicode hex="00AC"/>
  <outline>
    <contour>
      <point x="1025" y="119" type="line"/>
      <point x="1025" y="692" type="line"/>
      <point x="104" y="692" type="line"/>
      <point x="104" y="836" type="line"/>
      <point x="1205" y="836" type="line"/>
      <point x="1205" y="119" type="line"/>
    </contour>
  </outline>
</glyph>
<glyph name="registered" format="1">
  <advance width="1218"/>
  <unicode hex="00AE"/>
  <outline>
    <contour>
      <point x="539" y="1019" type="line"/>
      <point x="589" y="1019" type="line"/>
      <point x="626" y="1019"/>
      <point x="675" y="1028"/>
      <point x="703" y="1049"/>
      <point x="714" y="1082"/>
      <point x="714" y="1106" type="qcurve"/>
      <point x="714" y="1128"/>
      <point x="704" y="1159"/>
      <point x="673" y="1177"/>
      <point x="615" y="1185"/>
      <point x="567" y="1185" type="qcurve"/>
      <point x="539" y="1185" type="line"/>
    </contour>
    <contour>
      <point x="715" y="720" type="line"/>
      <point x="577" y="947" type="line"/>
      <point x="537" y="947" type="line"/>
      <point x="537" y="720" type="line"/>
      <point x="449" y="720" type="line"/>
      <point x="449" y="1257" type="line"/>
      <point x="569" y="1257" type="line"/>
      <point x="639" y="1257"/>
      <point x="729" y="1238"/>
      <point x="781" y="1200"/>
      <point x="801" y="1143"/>
      <point x="801" y="1106" type="qcurve"/>
      <point x="801" y="1071"/>
      <point x="786" y="1020"/>
      <point x="752" y="985"/>
      <point x="698" y="962"/>
      <point x="659" y="955" type="qcurve"/>
      <point x="671" y="938"/>
      <point x="683" y="919" type="qcurve"/>
      <point x="694" y="902"/>
      <point x="721" y="860"/>
      <point x="735" y="838" type="qcurve"/>
      <point x="811" y="720" type="line"/>
    </contour>
    <contour>
      <point x="110" y="981" type="qcurve"/>
      <point x="110" y="1085"/>
      <point x="188" y="1267"/>
      <point x="323" y="1403"/>
      <point x="506" y="1481"/>
      <point x="610" y="1481" type="qcurve"/>
      <point x="714" y="1481"/>
      <point x="896" y="1403"/>
      <point x="1031" y="1267"/>
      <point x="1108" y="1085"/>
      <point x="1108" y="981" type="qcurve"/>
      <point x="1108" y="877"/>
      <point x="1031" y="695"/>
      <point x="896" y="560"/>
      <point x="714" y="482"/>
      <point x="610" y="482" type="qcurve"/>
      <point x="506" y="482"/>
      <point x="323" y="560"/>
      <point x="188" y="695"/>
      <point x="110" y="877"/>
    </contour>
    <contour>
      <point x="197" y="980" type="qcurve"/>
      <point x="197" y="891"/>
      <point x="261" y="739"/>
      <point x="373" y="628"/>
      <point x="524" y="565"/>
      <point x="610" y="565" type="qcurve"/>
      <point x="696" y="565"/>
      <point x="847" y="628"/>
      <point x="959" y="739"/>
      <point x="1023" y="891"/>
      <point x="1023" y="980" type="qcurve"/>
      <point x="1023" y="1068"/>
      <point x="959" y="1221"/>
      <point x="847" y="1333"/>
      <point x="696" y="1397"/>
      <point x="610" y="1397" type="qcurve"/>
      <point x="524" y="1397"/>
      <point x="373" y="1333"/>
      <point x="261" y="1221"/>
      <point x="197" y="1068"/>
    </contour>
  </outline>
</glyph>
<glyph name="macron" format="1">
  <advance width="890"/>
  <unicode hex="00AF"/>
  <outline>
    <contour>
      <point x="150" y="1185" type="line"/>
      <point x="150" y="1319" type="line"/>
      <point x="741" y="1319" type="line"/>
      <point x="741" y="1185" type="line"/>
    </contour>
  </outline>
</glyph>
<glyph name="degree" format="1">
  <advance width="675"/>
  <unicode hex="00B0"/>
  <outline>
    <contour>
      <point x="456" y="985" type="qcurve"/>
      <point x="456" y="1036"/>
      <point x="393" y="1103"/>
      <point x="337" y="1103" type="qcurve"/>
      <point x="283" y="1103"/>
      <point x="218" y="1037"/>
      <point x="218" y="985" type="qcurve"/>
      <point x="218" y="934"/>
      <point x="280" y="869"/>
      <point x="337" y="869" type="qcurve"/>
      <point x="391" y="869"/>
      <point x="456" y="933"/>
    </contour>
    <contour>
      <point x="570" y="985" type="qcurve"/>
      <point x="570" y="936"/>
      <point x="535" y="852"/>
      <point x="474" y="790"/>
      <point x="388" y="755"/>
      <point x="337" y="755" type="qcurve"/>
      <point x="287" y="755"/>
      <point x="202" y="790"/>
      <point x="140" y="851"/>
      <point x="106" y="935"/>
      <point x="106" y="985" type="qcurve"/>
      <point x="106" y="1034"/>
      <point x="140" y="1118"/>
      <point x="202" y="1179"/>
      <point x="287" y="1213"/>
      <point x="337" y="1213" type="qcurve"/>
      <point x="388" y="1213"/>
      <point x="474" y="1178"/>
      <point x="535" y="1117"/>
      <point x="570" y="1034"/>
    </contour>
  </outline>
</glyph>
<glyph name="plusminus" format="1">
  <advance width="1047"/>
  <unicode hex="00B1"/>
  <outline>
    <contour>
      <point x="132" y="-5" type="line"/>
      <point x="132" y="109" type="line"/>
      <point x="916" y="109" type="line"/>
      <point x="916" y="-5" type="line"/>
    </contour>
    <contour>
      <point x="598" y="762" type="line"/>
      <point x="598" y="403" type="line"/>
      <point x="453" y="403" type="line"/>
      <point x="453" y="762" type="line"/>
      <point x="132" y="762" type="line"/>
      <point x="132" y="884" type="line"/>
      <point x="453" y="884" type="line"/>
      <point x="453" y="1247" type="line"/>
      <point x="598" y="1247" type="line"/>
      <point x="598" y="884" type="line"/>
      <point x="916" y="884" type="line"/>
      <point x="916" y="762" type="line"/>
    </contour>
  </outline>
</glyph>
<glyph name="twosuperior" format="1">
  <advance width="843"/>
  <unicode hex="00B2"/>
  <outline>
    <contour>
      <point x="414" y="988" type="qcurve"/>
      <point x="495" y="988"/>
      <point x="616" y="950"/>
      <point x="697" y="881"/>
      <point x="737" y="784"/>
      <point x="737" y="726" type="qcurve"/>
      <point x="737" y="683"/>
      <point x="714" y="606"/>
      <point x="674" y="535"/>
      <point x="617" y="467"/>
      <point x="584" y="434" type="qcurve"/>
      <point x="292" y="136" type="line"/>
      <point x="722" y="136" type="line"/>
      <point x="710" y="0" type="line"/>
      <point x="113" y="0" type="line"/>
      <point x="93" y="136" type="line"/>
      <point x="474" y="542" type="line"/>
      <point x="490" y="560"/>
      <point x="523" y="603"/>
      <point x="550" y="649"/>
      <point x="566" y="698"/>
      <point x="566" y="722" type="qcurve"/>
      <point x="566" y="777"/>
      <point x="483" y="849"/>
      <point x="395" y="849" type="qcurve"/>
      <point x="349" y="849"/>
      <point x="250" y="829"/>
      <point x="208" y="818" type="qcurve"/>
      <point x="159" y="804"/>
      <point x="112" y="787" type="qcurve"/>
      <point x="131" y="933" type="line"/>
      <point x="172" y="948"/>
      <point x="219" y="960" type="qcurve"/>
      <point x="259" y="971"/>
      <point x="360" y="988"/>
    </contour>
  </outline>
</glyph>
<glyph name="threesuperior" format="1">
  <advance width="886"/>
  <unicode hex="00B3"/>
  <outline>
    <contour>
      <point x="120" y="155" type="line"/>
      <point x="162" y="141"/>
      <point x="208" y="130" type="qcurve"/>
      <point x="247" y="120"/>
      <point x="345" y="105"/>
      <point x="395" y="105" type="qcurve"/>
      <point x="604" y="105"/>
      <point x="604" y="250" type="qcurve"/>
      <point x="604" y="290"/>
      <point x="571" y="349"/>
      <point x="494" y="388"/>
      <point x="369" y="407"/>
      <point x="277" y="407" type="qcurve"/>
      <point x="277" y="536" type="line"/>
      <point x="363" y="536"/>
      <point x="477" y="553"/>
      <point x="545" y="589"/>
      <point x="573" y="644"/>
      <point x="573" y="682" type="qcurve"/>
      <point x="573" y="760"/>
      <point x="471" y="820"/>
      <point x="371" y="820" type="qcurve"/>
      <point x="334" y="820"/>
      <point x="251" y="810"/>
      <point x="177" y="797"/>
      <point x="122" y="785"/>
      <point x="113" y="783" type="qcurve"/>
      <point x="134" y="910" type="line"/>
      <point x="172" y="920"/>
      <point x="213" y="929" type="qcurve"/>
      <point x="248" y="936"/>
      <point x="334" y="948"/>
      <point x="376" y="948" type="qcurve"/>
      <point x="564" y="948"/>
      <point x="732" y="820"/>
      <point x="732" y="699" type="qcurve"/>
      <point x="732" y="636"/>
      <point x="680" y="554"/>
      <point x="612" y="505"/>
      <point x="549" y="481"/>
      <point x="537" y="476" type="qcurve"/>
      <point x="547" y="475"/>
      <point x="589" y="468"/>
      <point x="642" y="451"/>
      <point x="698" y="421"/>
      <point x="744" y="370"/>
      <point x="774" y="296"/>
      <point x="774" y="244" type="qcurve"/>
      <point x="774" y="170"/>
      <point x="713" y="68"/>
      <point x="608" y="4"/>
      <point x="470" y="-25"/>
      <point x="392" y="-25" type="qcurve"/>
      <point x="338" y="-25"/>
      <point x="236" y="-9"/>
      <point x="153" y="11"/>
      <point x="98" y="29"/>
      <point x="91" y="31" type="qcurve"/>
    </contour>
  </outline>
</glyph>
<glyph name="mu" format="1">
  <advance width="1161"/>
  <unicode hex="00B5"/>
  <outline>
    <contour>
      <point x="1020" y="3" type="line"/>
      <point x="887" y="-8" type="line"/>
      <point x="862" y="132" type="line"/>
      <point x="827" y="87"/>
      <point x="779" y="52" type="qcurve"/>
      <point x="737" y="22"/>
      <point x="615" y="-28"/>
      <point x="534" y="-28" type="qcurve"/>
      <point x="489" y="-28"/>
      <point x="419" y="-5"/>
      <point x="368" y="35"/>
      <point x="336" y="89"/>
      <point x="330" y="120" type="qcurve"/>
      <point x="326" y="-300" type="line"/>
      <point x="171" y="-300" type="line"/>
      <point x="171" y="1019" type="line"/>
      <point x="354" y="1019" type="line"/>
      <point x="354" y="435" type="line"/>
      <point x="354" y="348"/>
      <point x="374" y="226"/>
      <point x="420" y="148"/>
      <point x="495" y="113"/>
      <point x="551" y="113" type="qcurve"/>
      <point x="614" y="113"/>
      <point x="717" y="149"/>
      <point x="755" y="172" type="qcurve"/>
      <point x="799" y="198"/>
      <point x="835" y="231" type="qcurve"/>
      <point x="835" y="1019" type="line"/>
      <point x="1020" y="1019" type="line"/>
    </contour>
  </outline>
</glyph>
<glyph name="paragraph" format="1">
  <advance width="1182"/>
  <unicode hex="00B6"/>
  <outline>
    <contour>
      <point x="440" y="878" type="line"/>
      <point x="354" y="875"/>
      <point x="216" y="898"/>
      <point x="119" y="961"/>
      <point x="67" y="1068"/>
      <point x="67" y="1148" type="qcurve"/>
      <point x="68" y="1248"/>
      <point x="141" y="1364"/>
      <point x="278" y="1422"/>
      <point x="476" y="1437"/>
      <point x="603" y="1437" type="qcurve"/>
      <point x="1101" y="1437" type="line"/>
      <point x="1126" y="1298" type="line"/>
      <point x="901" y="1298" type="line"/>
      <point x="901" y="-3" type="line"/>
      <point x="733" y="-3" type="line"/>
      <point x="733" y="1298" type="line"/>
      <point x="608" y="1298" type="line"/>
      <point x="608" y="-3" type="line"/>
      <point x="440" y="-3" type="line"/>
    </contour>
  </outline>
</glyph>
<glyph name="periodcentered" format="1">
  <advance width="469"/>
  <unicode hex="00B7"/>
  <outline>
    <contour>
      <point x="321" y="672" type="line"/>
      <point x="321" y="477" type="line"/>
      <point x="148" y="477" type="line"/>
      <point x="148" y="672" type="line"/>
    </contour>
  </outline>
</glyph>
<glyph name="cedilla" format="1">
  <advance width="537"/>
  <unicode hex="00B8"/>
  <outline>
    <contour>
      <point x="498" y="-340" type="qcurve"/>
      <point x="498" y="-387"/>
      <point x="465" y="-461"/>
      <point x="406" y="-512"/>
      <point x="328" y="-538"/>
      <point x="283" y="-538" type="qcurve"/>
      <point x="243" y="-538"/>
      <point x="180" y="-523"/>
      <point x="157" y="-514" type="qcurve"/>
      <point x="131" y="-503"/>
      <point x="111" y="-490" type="qcurve"/>
      <point x="101" y="-394" type="line"/>
      <point x="130" y="-406"/>
      <point x="161" y="-416" type="qcurve"/>
      <point x="187" y="-424"/>
      <point x="249" y="-437"/>
      <point x="278" y="-437" type="qcurve"/>
      <point x="314" y="-437"/>
      <point x="356" y="-416"/>
      <point x="379" y="-387"/>
      <point x="386" y="-356"/>
      <point x="386" y="-345" type="qcurve"/>
      <point x="386" y="-310"/>
      <point x="348" y="-269"/>
      <point x="279" y="-247"/>
      <point x="182" y="-237"/>
      <point x="123" y="-232" type="qcurve"/>
      <point x="123" y="-227"/>
      <point x="127" y="-202"/>
      <point x="133" y="-167"/>
      <point x="140" y="-126"/>
      <point x="143" y="-105" type="qcurve"/>
      <point x="151" y="-57"/>
      <point x="161" y="2" type="qcurve"/>
      <point x="263" y="2" type="line"/>
      <point x="254" y="-36"/>
      <point x="246" y="-69" type="qcurve"/>
      <point x="239" y="-97"/>
      <point x="228" y="-147"/>
      <point x="226" y="-155" type="qcurve"/>
      <point x="250" y="-155"/>
      <point x="309" y="-160"/>
      <point x="370" y="-174"/>
      <point x="427" y="-200"/>
      <point x="471" y="-241"/>
      <point x="498" y="-300"/>
    </contour>
  </outline>
</glyph>
<glyph name="AE" format="1">
  <advance width="1576"/>
  <unicode hex="00C6"/>
  <outline>
    <contour>
      <point x="706" y="0" type="line"/>
      <point x="706" y="288" type="line"/>
      <point x="351" y="288" type="line"/>
      <point x="240" y="0" type="line"/>
      <point x="19" y="0" type="line"/>
      <point x="581" y="1409" type="line"/>
      <point x="1459" y="1409" type="line"/>
      <point x="1459" y="1263" type="line"/>
      <point x="894" y="1263" type="line"/>
      <point x="894" y="810" type="line"/>
      <point x="1400" y="810" type="line"/>
      <point x="1400" y="665" type="line"/>
      <point x="894" y="665" type="line"/>
      <point x="894" y="146" type="line"/>
      <point x="1471" y="146" type="line"/>
      <point x="1471" y="0" type="line"/>
    </contour>
    <contour>
      <point x="387" y="421" type="line"/>
      <point x="706" y="421" type="line"/>
      <point x="706" y="1276" type="line"/>
      <point x="599" y="960" type="line"/>
    </contour>
  </outline>
</glyph>
<glyph name="Eth" format="1">
  <advance width="1391"/>
  <unicode hex="00D0"/>
  <outline>
    <contour>
      <point x="194" y="0" type="line"/>
      <point x="194" y="677" type="line"/>
      <point x="45" y="677" type="line"/>
      <point x="45" y="806" type="line"/>
      <point x="194" y="806" type="line"/>
      <point x="194" y="1437" type="line"/>
      <point x="606" y="1437" type="line"/>
      <point x="690" y="1437"/>
      <point x="853" y="1420"/>
      <point x="1001" y="1368"/>
      <point x="1127" y="1276"/>
      <point x="1219" y="1126"/>
      <point x="1271" y="910"/>
      <point x="1271" y="749" type="qcurve"/>
      <point x="1271" y="622"/>
      <point x="1249" y="427"/>
      <point x="1194" y="264"/>
      <point x="1103" y="136"/>
      <point x="965" y="47"/>
      <point x="777" y="0"/>
      <point x="652" y="0" type="qcurve"/>
    </contour>
    <contour>
      <point x="588" y="139" type="line"/>
      <point x="685" y="139"/>
      <point x="835" y="163"/>
      <point x="945" y="217"/>
      <point x="1019" y="306"/>
      <point x="1064" y="436"/>
      <point x="1083" y="611"/>
      <point x="1083" y="741" type="qcurve"/>
      <point x="1083" y="886"/>
      <point x="1044" y="1088"/>
      <point x="946" y="1224"/>
      <point x="782" y="1293"/>
      <point x="658" y="1293" type="qcurve"/>
      <point x="386" y="1293" type="line"/>
      <point x="386" y="806" type="line"/>
      <point x="612" y="806" type="line"/>
      <point x="612" y="677" type="line"/>
      <point x="386" y="677" type="line"/>
      <point x="386" y="139" type="line"/>
    </contour>
  </outline>
</glyph>
<glyph name="multiply" format="1">
  <advance width="865"/>
  <unicode hex="00D7"/>
  <outline>
    <contour>
      <point x="529" y="524" type="line"/>
      <point x="731" y="323" type="line"/>
      <point x="633" y="226" type="line"/>
      <point x="432" y="427" type="line"/>
      <point x="231" y="226" type="line"/>
      <point x="134" y="323" type="line"/>
      <point x="334" y="524" type="line"/>
      <point x="134" y="725" type="line"/>
      <point x="231" y="823" type="line"/>
      <point x="432" y="622" type="line"/>
      <point x="633" y="823" type="line"/>
      <point x="731" y="725" type="line"/>
    </contour>
  </outline>
</glyph>
<glyph name="Oslash" format="1">
  <advance width="1398"/>
  <unicode hex="00D8"/>
  <outline>
    <contour>
      <point x="289" y="-106" type="line"/>
      <point x="365" y="62" type="line"/>
      <point x="120" y="231"/>
      <point x="120" y="720" type="qcurve"/>
      <point x="120" y="1098"/>
      <point x="415" y="1466"/>
      <point x="697" y="1466" type="qcurve"/>
      <point x="776" y="1466"/>
      <point x="917" y="1434"/>
      <point x="977" y="1402" type="qcurve"/>
      <point x="1060" y="1586" type="line"/>
      <point x="1117" y="1554" type="line"/>
      <point x="1033" y="1370" type="line"/>
      <point x="1158" y="1285"/>
      <point x="1278" y="959"/>
      <point x="1278" y="720" type="qcurve"/>
      <point x="1278" y="338"/>
      <point x="981" y="-30"/>
      <point x="697" y="-30" type="qcurve"/>
      <point x="538" y="-30"/>
      <point x="421" y="28" type="qcurve"/>
      <point x="346" y="-135" type="line"/>
    </contour>
    <contour>
      <point x="697" y="117" type="qcurve"/>
      <point x="802" y="117"/>
      <point x="949" y="198"/>
      <point x="1043" y="352"/>
      <point x="1086" y="578"/>
      <point x="1086" y="720" type="qcurve"/>
      <point x="1086" y="884"/>
      <point x="1030" y="1136"/>
      <point x="961" y="1214" type="qcurve"/>
      <point x="488" y="176" type="line"/>
      <point x="572" y="117"/>
    </contour>
    <contour>
      <point x="311" y="720" type="qcurve"/>
      <point x="311" y="548"/>
      <point x="372" y="299"/>
      <point x="439" y="222" type="qcurve"/>
      <point x="911" y="1257" type="line"/>
      <point x="867" y="1290"/>
      <point x="760" y="1319"/>
      <point x="697" y="1319" type="qcurve"/>
      <point x="594" y="1319"/>
      <point x="448" y="1238"/>
      <point x="355" y="1085"/>
      <point x="311" y="862"/>
    </contour>
  </outline>
</glyph>
<glyph name="Thorn" format="1">
  <advance width="1226"/>
  <unicode hex="00DE"/>
  <outline>
    <contour>
      <point x="544" y="512" type="line"/>
      <point x="665" y="512"/>
      <point x="824" y="543"/>
      <point x="917" y="610"/>
      <point x="954" y="714"/>
      <point x="954" y="787" type="qcurve"/>
      <point x="954" y="876"/>
      <point x="918" y="987"/>
      <point x="822" y="1049"/>
      <point x="652" y="1071"/>
      <point x="517" y="1071" type="qcurve"/>
      <point x="370" y="1071" type="line"/>
      <point x="370" y="512" type="line"/>
    </contour>
    <contour>
      <point x="1147" y="785" type="qcurve"/>
      <point x="1147" y="669"/>
      <point x="1075" y="510"/>
      <point x="924" y="411"/>
      <point x="690" y="367"/>
      <point x="528" y="367" type="qcurve"/>
      <point x="433" y="367" type="line"/>
      <point x="403" y="367"/>
      <point x="370" y="368" type="qcurve"/>
      <point x="370" y="0" type="line"/>
      <point x="185" y="0" type="line"/>
      <point x="185" y="1409" type="line"/>
      <point x="370" y="1409" type="line"/>
      <point x="371" y="1216" type="line"/>
      <point x="494" y="1216" type="line"/>
      <point x="688" y="1216"/>
      <point x="940" y="1173"/>
      <point x="1088" y="1072"/>
      <point x="1147" y="907"/>
    </contour>
  </outline>
</glyph>
<glyph name="germandbls" format="1">
  <advance width="1334"/>
  <unicode hex="00DF"/>
  <outline>
    <contour>
      <point x="571" y="1402" type="qcurve"/>
      <point x="509" y="1402"/>
      <point x="431" y="1360"/>
      <point x="387" y="1284"/>
      <point x="372" y="1177"/>
      <point x="372" y="1112" type="qcurve"/>
      <point x="372" y="-4" type="line"/>
      <point x="185" y="-4" type="line"/>
      <point x="185" y="1110" type="line"/>
      <point x="185" y="1331"/>
      <point x="377" y="1549"/>
      <point x="571" y="1549" type="qcurve"/>
      <point x="663" y="1549"/>
      <point x="792" y="1518"/>
      <point x="877" y="1465"/>
      <point x="924" y="1392"/>
      <point x="942" y="1307"/>
      <point x="936" y="1214"/>
      <point x="927" y="1168" type="qcurve"/>
      <point x="927" y="1159"/>
      <point x="917" y="1122"/>
      <point x="901" y="1074"/>
      <point x="880" y="1017"/>
      <point x="870" y="989" type="qcurve"/>
      <point x="845" y="923"/>
      <point x="814" y="844" type="qcurve"/>
      <point x="900" y="838"/>
      <point x="1058" y="764"/>
      <point x="1178" y="635"/>
      <point x="1250" y="453"/>
      <point x="1250" y="339" type="qcurve"/>
      <point x="1250" y="216"/>
      <point x="1185" y="33"/>
      <point x="1071" y="-89"/>
      <point x="915" y="-149"/>
      <point x="823" y="-147" type="qcurve"/>
      <point x="775" y="-146"/>
      <point x="697" y="-134"/>
      <point x="669" y="-126" type="qcurve"/>
      <point x="636" y="-117"/>
      <point x="611" y="-107" type="qcurve"/>
      <point x="591" y="34" type="line"/>
      <point x="616" y="23"/>
      <point x="647" y="15" type="qcurve"/>
      <point x="673" y="8"/>
      <point x="746" y="-3"/>
      <point x="791" y="-3" type="qcurve"/>
      <point x="866" y="-3"/>
      <point x="968" y="52"/>
      <point x="1031" y="148"/>
      <point x="1058" y="279"/>
      <point x="1058" y="356" type="qcurve"/>
      <point x="1058" y="467"/>
      <point x="996" y="618"/>
      <point x="881" y="710"/>
      <point x="715" y="751"/>
      <point x="611" y="752" type="qcurve"/>
      <point x="649" y="857"/>
      <point x="680" y="942" type="qcurve"/>
      <point x="693" y="978"/>
      <point x="718" y="1049"/>
      <point x="738" y="1107"/>
      <point x="750" y="1147"/>
      <point x="750" y="1153" type="qcurve"/>
      <point x="763" y="1201"/>
      <point x="768" y="1291"/>
      <point x="733" y="1360"/>
      <point x="648" y="1402"/>
    </contour>
  </outline>
</glyph>
<glyph name="ae" format="1">
  <advance width="1648"/>
  <unicode hex="00E6"/>
  <outline>
    <contour>
      <point x="1486" y="20" type="line"/>
      <point x="1449" y="7"/>
      <point x="1402" y="-4" type="qcurve"/>
      <point x="1362" y="-13"/>
      <point x="1254" y="-28"/>
      <point x="1190" y="-28" type="qcurve"/>
      <point x="959" y="-28"/>
      <point x="842" y="116" type="qcurve"/>
      <point x="827" y="101"/>
      <point x="758" y="53"/>
      <point x="646" y="6"/>
      <point x="489" y="-28"/>
      <point x="386" y="-28" type="qcurve"/>
      <point x="318" y="-28"/>
      <point x="206" y="11"/>
      <point x="126" y="86"/>
      <point x="82" y="197"/>
      <point x="82" y="268" type="qcurve"/>
      <point x="82" y="336"/>
      <point x="130" y="433"/>
      <point x="210" y="499"/>
      <point x="316" y="536"/>
      <point x="432" y="554"/>
      <point x="551" y="557"/>
      <point x="604" y="555" type="qcurve"/>
      <point x="625" y="553"/>
      <point x="667" y="551"/>
      <point x="684" y="549" type="qcurve"/>
      <point x="703" y="547"/>
      <point x="722" y="546" type="qcurve"/>
      <point x="722" y="651" type="line"/>
      <point x="722" y="717"/>
      <point x="704" y="806"/>
      <point x="665" y="861"/>
      <point x="600" y="888"/>
      <point x="554" y="892" type="qcurve"/>
      <point x="455" y="901"/>
      <point x="257" y="869"/>
      <point x="163" y="836" type="qcurve"/>
      <point x="183" y="969" type="line"/>
      <point x="226" y="991"/>
      <point x="322" y="1020"/>
      <point x="422" y="1034"/>
      <point x="524" y="1036"/>
      <point x="572" y="1032" type="qcurve"/>
      <point x="681" y="1023"/>
      <point x="821" y="933"/>
      <point x="840" y="839" type="qcurve"/>
      <point x="868" y="895"/>
      <point x="942" y="970"/>
      <point x="1027" y="1016"/>
      <point x="1121" y="1035"/>
      <point x="1171" y="1035" type="qcurve"/>
      <point x="1266" y="1035"/>
      <point x="1407" y="975"/>
      <point x="1502" y="876"/>
      <point x="1550" y="748"/>
      <point x="1552" y="679" type="qcurve"/>
      <point x="1552" y="658"/>
      <point x="1549" y="603"/>
      <point x="1544" y="550"/>
      <point x="1539" y="506"/>
      <point x="1537" y="496" type="qcurve"/>
      <point x="914" y="496" type="line"/>
      <point x="914" y="460" type="line"/>
      <point x="914" y="371"/>
      <point x="949" y="247"/>
      <point x="1012" y="166"/>
      <point x="1099" y="124"/>
      <point x="1150" y="117" type="qcurve"/>
      <point x="1205" y="111"/>
      <point x="1311" y="117"/>
      <point x="1405" y="131"/>
      <point x="1483" y="148"/>
      <point x="1510" y="154" type="qcurve"/>
    </contour>
    <contour>
      <point x="570" y="445" type="qcurve"/>
      <point x="517" y="445"/>
      <point x="404" y="436"/>
      <point x="311" y="400"/>
      <point x="251" y="326"/>
      <point x="251" y="261" type="qcurve"/>
      <point x="251" y="179"/>
      <point x="350" y="106"/>
      <point x="441" y="106" type="qcurve"/>
      <point x="506" y="106"/>
      <point x="619" y="135"/>
      <point x="706" y="172"/>
      <point x="763" y="209"/>
      <point x="773" y="217" type="qcurve"/>
      <point x="763" y="240"/>
      <point x="747" y="297"/>
      <point x="734" y="356"/>
      <point x="727" y="415"/>
      <point x="726" y="439" type="qcurve"/>
      <point x="700" y="440"/>
      <point x="674" y="442" type="qcurve"/>
      <point x="651" y="443"/>
      <point x="596" y="445"/>
    </contour>
    <contour>
      <point x="1176" y="898" type="qcurve"/>
      <point x="1126" y="898"/>
      <point x="1038" y="869"/>
      <point x="969" y="801"/>
      <point x="923" y="690"/>
      <point x="917" y="608" type="qcurve"/>
      <point x="1392" y="608" type="line"/>
      <point x="1393" y="607"/>
      <point x="1393" y="640"/>
      <point x="1393" y="656" type="qcurve"/>
      <point x="1391" y="720"/>
      <point x="1358" y="811"/>
      <point x="1300" y="870"/>
      <point x="1222" y="898"/>
    </contour>
  </outline>
</glyph>
<glyph name="eth" format="1">
  <advance width="1202"/>
  <unicode hex="00F0"/>
  <outline>
    <contour>
      <point x="607" y="947" type="line"/>
      <point x="571" y="1057" type="line"/>
      <point x="766" y="1122" type="line"/>
      <point x="748" y="1159"/>
      <point x="696" y="1236"/>
      <point x="639" y="1305"/>
      <point x="584" y="1359"/>
      <point x="562" y="1372" type="qcurve"/>
      <point x="726" y="1371" type="line"/>
      <point x="785" y="1329"/>
      <point x="877" y="1228"/>
      <point x="912" y="1170" type="qcurve"/>
      <point x="1113" y="1240" type="line"/>
      <point x="1149" y="1129" type="line"/>
      <point x="971" y="1067" type="line"/>
      <point x="1031" y="946"/>
      <point x="1086" y="696"/>
      <point x="1086" y="567" type="qcurve"/>
      <point x="1086" y="438"/>
      <point x="1024" y="223"/>
      <point x="902" y="68"/>
      <point x="720" y="-18"/>
      <point x="599" y="-18" type="qcurve"/>
      <point x="470" y="-18"/>
      <point x="284" y="57"/>
      <point x="164" y="181"/>
      <point x="106" y="343"/>
      <point x="106" y="429" type="qcurve"/>
      <point x="106" y="514"/>
      <point x="153" y="661"/>
      <point x="255" y="769"/>
      <point x="417" y="831"/>
      <point x="532" y="831" type="qcurve"/>
      <point x="604" y="831"/>
      <point x="728" y="797"/>
      <point x="824" y="754"/>
      <point x="886" y="712"/>
      <point x="895" y="703" type="qcurve"/>
      <point x="894" y="741"/>
      <point x="883" y="824"/>
      <point x="863" y="906"/>
      <point x="834" y="984"/>
      <point x="815" y="1017" type="qcurve"/>
    </contour>
    <contour>
      <point x="546" y="693" type="qcurve"/>
      <point x="478" y="693"/>
      <point x="379" y="655"/>
      <point x="316" y="586"/>
      <point x="286" y="487"/>
      <point x="286" y="426" type="qcurve"/>
      <point x="286" y="272"/>
      <point x="442" y="125"/>
      <point x="591" y="125" type="qcurve"/>
      <point x="676" y="125"/>
      <point x="791" y="188"/>
      <point x="862" y="296"/>
      <point x="893" y="441"/>
      <point x="893" y="523" type="qcurve"/>
      <point x="893" y="582" type="line"/>
      <point x="843" y="612"/>
      <point x="787" y="637" type="qcurve"/>
      <point x="739" y="658"/>
      <point x="613" y="693"/>
    </contour>
  </outline>
</glyph>
<glyph name="divide" format="1">
  <advance width="1022"/>
  <unicode hex="00F7"/>
  <outline>
    <contour>
      <point x="427" y="731" type="line"/>
      <point x="427" y="908" type="line"/>
      <point x="602" y="908" type="line"/>
      <point x="602" y="731" type="line"/>
    </contour>
    <contour>
      <point x="127" y="521" type="line"/>
      <point x="127" y="641" type="line"/>
      <point x="896" y="641" type="line"/>
      <point x="896" y="521" type="line"/>
    </contour>
    <contour>
      <point x="427" y="243" type="line"/>
      <point x="427" y="421" type="line"/>
      <point x="602" y="421" type="line"/>
      <point x="602" y="243" type="line"/>
    </contour>
  </outline>
</glyph>
<glyph name="oslash" format="1">
  <advance width="1119"/>
  <unicode hex="00F8"/>
  <outline>
    <contour>
      <point x="560" y="1035" type="qcurve"/>
      <point x="611" y="1035"/>
      <point x="702" y="1018"/>
      <point x="741" y="1000" type="qcurve"/>
      <point x="841" y="1226" type="line"/>
      <point x="923" y="1183" type="line"/>
      <point x="919" y="1175"/>
      <point x="899" y="1133"/>
      <point x="871" y="1072"/>
      <point x="837" y="998"/>
      <point x="820" y="960" type="qcurve"/>
      <point x="918" y="892"/>
      <point x="1013" y="654"/>
      <point x="1013" y="504" type="qcurve"/>
      <point x="1013" y="391"/>
      <point x="958" y="196"/>
      <point x="846" y="53"/>
      <point x="676" y="-28"/>
      <point x="560" y="-28" type="qcurve"/>
      <point x="512" y="-28"/>
      <point x="429" y="-13"/>
      <point x="392" y="0" type="qcurve"/>
      <point x="360" y="-75"/>
      <point x="314" y="-179"/>
      <point x="306" y="-197" type="qcurve"/>
      <point x="221" y="-157" type="line"/>
      <point x="311" y="38" type="line"/>
      <point x="259" y="72"/>
      <point x="182" y="169"/>
      <point x="131" y="289"/>
      <point x="106" y="428"/>
      <point x="106" y="504" type="qcurve"/>
      <point x="106" y="618"/>
      <point x="161" y="812"/>
      <point x="273" y="955"/>
      <point x="444" y="1035"/>
    </contour>
    <contour>
      <point x="293" y="506" type="qcurve"/>
      <point x="293" y="408"/>
      <point x="335" y="245"/>
      <point x="383" y="192" type="qcurve"/>
      <point x="682" y="868" type="line"/>
      <point x="656" y="882"/>
      <point x="596" y="896"/>
      <point x="560" y="896" type="qcurve"/>
      <point x="485" y="896"/>
      <point x="383" y="839"/>
      <point x="320" y="735"/>
      <point x="293" y="592"/>
    </contour>
    <contour>
      <point x="560" y="109" type="qcurve"/>
      <point x="635" y="109"/>
      <point x="737" y="171"/>
      <point x="800" y="278"/>
      <point x="827" y="423"/>
      <point x="827" y="506" type="qcurve"/>
      <point x="827" y="600"/>
      <point x="788" y="752"/>
      <point x="745" y="803" type="qcurve"/>
      <point x="449" y="131" type="line"/>
      <point x="496" y="109"/>
    </contour>
  </outline>
</glyph>
<glyph name="thorn" format="1">
  <advance width="1134"/>
  <unicode hex="00FE"/>
  <outline>
    <contour>
      <point x="158" y="-340" type="line"/>
      <point x="158" y="1473" type="line"/>
      <point x="343" y="1499" type="line"/>
      <point x="343" y="958" type="line"/>
      <point x="379" y="982"/>
      <point x="425" y="1001" type="qcurve"/>
      <point x="464" y="1018"/>
      <point x="571" y="1045"/>
      <point x="637" y="1045" type="qcurve"/>
      <point x="716" y="1045"/>
      <point x="858" y="984"/>
      <point x="965" y="854"/>
      <point x="1028" y="650"/>
      <point x="1028" y="507" type="qcurve"/>
      <point x="1028" y="361"/>
      <point x="956" y="160"/>
      <point x="839" y="36"/>
      <point x="692" y="-18"/>
      <point x="616" y="-18" type="qcurve"/>
      <point x="548" y="-18"/>
      <point x="446" y="18"/>
      <point x="411" y="41" type="qcurve"/>
      <point x="371" y="67"/>
      <point x="341" y="101" type="qcurve"/>
      <point x="341" y="-349" type="line"/>
    </contour>
    <contour>
      <point x="343" y="217" type="line"/>
      <point x="373" y="190"/>
      <point x="411" y="169" type="qcurve"/>
      <point x="443" y="151"/>
      <point x="534" y="122"/>
      <point x="589" y="122" type="qcurve"/>
      <point x="641" y="122"/>
      <point x="733" y="163"/>
      <point x="802" y="254"/>
      <point x="843" y="399"/>
      <point x="843" y="503" type="qcurve"/>
      <point x="843" y="694"/>
      <point x="723" y="903"/>
      <point x="601" y="903" type="qcurve"/>
      <point x="546" y="903"/>
      <point x="453" y="878"/>
      <point x="418" y="863" type="qcurve"/>
      <point x="378" y="845"/>
      <point x="343" y="824" type="qcurve"/>
    </contour>
  </outline>
</glyph>
<glyph name="lslash" format="1">
  <advance width="683"/>
  <unicode hex="0142"/>
  <outline>
    <contour>
      <point x="261" y="713" type="line"/>
      <point x="37" y="605" type="line"/>
      <point x="37" y="750" type="line"/>
      <point x="261" y="858" type="line"/>
      <point x="261" y="1470" type="line"/>
      <point x="445" y="1496" type="line"/>
      <point x="445" y="949" type="line"/>
      <point x="664" y="1055" type="line"/>
      <point x="664" y="911" type="line"/>
      <point x="445" y="805" type="line"/>
      <point x="445" y="0" type="line"/>
      <point x="261" y="0" type="line"/>
    </contour>
  </outline>
</glyph>
<glyph name="OE" format="1">
  <advance width="1988"/>
  <unicode hex="0152"/>
  <outline>
    <contour>
      <point x="120" y="724" type="qcurve"/>
      <point x="120" y="936"/>
      <point x="211" y="1213"/>
      <point x="367" y="1387"/>
      <point x="574" y="1464"/>
      <point x="691" y="1464" type="qcurve"/>
      <point x="750" y="1464"/>
      <point x="846" y="1446"/>
      <point x="923" y="1414"/>
      <point x="982" y="1375"/>
      <point x="1004" y="1354" type="qcurve"/>
      <point x="1055" y="1305"/>
      <point x="1080" y="1243" type="qcurve"/>
      <point x="1080" y="1437" type="line"/>
      <point x="1878" y="1437" type="line"/>
      <point x="1878" y="1292" type="line"/>
      <point x="1265" y="1292" type="line"/>
      <point x="1265" y="826" type="line"/>
      <point x="1795" y="826" type="line"/>
      <point x="1795" y="681" type="line"/>
      <point x="1265" y="681" type="line"/>
      <point x="1265" y="146" type="line"/>
      <point x="1888" y="146" type="line"/>
      <point x="1888" y="0" type="line"/>
      <point x="1080" y="0" type="line"/>
      <point x="1080" y="216" type="line"/>
      <point x="1054" y="138"/>
      <point x="1003" y="99" type="qcurve"/>
      <point x="981" y="77"/>
      <point x="922" y="35"/>
      <point x="845" y="2"/>
      <point x="749" y="-18"/>
      <point x="691" y="-18" type="qcurve"/>
      <point x="574" y="-18"/>
      <point x="366" y="60"/>
      <point x="210" y="235"/>
      <point x="120" y="516"/>
    </contour>
    <contour>
      <point x="318" y="724" type="qcurve"/>
      <point x="318" y="552"/>
      <point x="372" y="326"/>
      <point x="470" y="188"/>
      <point x="607" y="130"/>
      <point x="691" y="130" type="qcurve"/>
      <point x="776" y="130"/>
      <point x="915" y="188"/>
      <point x="1013" y="326"/>
      <point x="1066" y="552"/>
      <point x="1066" y="724" type="qcurve"/>
      <point x="1066" y="902"/>
      <point x="1013" y="1124"/>
      <point x="915" y="1260"/>
      <point x="776" y="1317"/>
      <point x="691" y="1317" type="qcurve"/>
      <point x="607" y="1317"/>
      <point x="470" y="1260"/>
      <point x="372" y="1124"/>
      <point x="318" y="902"/>
    </contour>
  </outline>
</glyph>
<glyph name="florin" format="1">
  <advance width="771"/>
  <unicode hex="0192"/>
  <outline>
    <contour>
      <point x="110" y="0" type="line"/>
      <point x="270" y="886" type="line"/>
      <point x="93" y="886" type="line"/>
      <point x="112" y="991" type="line"/>
      <point x="289" y="991" type="line"/>
      <point x="313" y="1125"/>
      <point x="378" y="1305"/>
      <point x="469" y="1413"/>
      <point x="588" y="1459"/>
      <point x="666" y="1459" type="qcurve"/>
      <point x="709" y="1459"/>
      <point x="775" y="1447"/>
      <point x="798" y="1439" type="qcurve"/>
      <point x="824" y="1430"/>
      <point x="845" y="1419" type="qcurve"/>
      <point x="839" y="1296" type="line"/>
      <point x="817" y="1303"/>
      <point x="791" y="1309" type="qcurve"/>
      <point x="769" y="1314"/>
      <point x="715" y="1322"/>
      <point x="686" y="1322" type="qcurve"/>
      <point x="639" y="1322"/>
      <point x="575" y="1303"/>
      <point x="529" y="1252"/>
      <point x="498" y="1162"/>
      <point x="485" y="1092" type="qcurve"/>
      <point x="468" y="991" type="line"/>
      <point x="744" y="991" type="line"/>
      <point x="725" y="886" type="line"/>
      <point x="449" y="886" type="line"/>
      <point x="290" y="0" type="line"/>
    </contour>
  </outline>
</glyph>
<glyph name="circumflex" format="1">
  <advance width="754"/>
  <unicode hex="02C6"/>
  <outline>
    <contour>
      <point x="281" y="1665" type="line"/>
      <point x="470" y="1665" type="line"/>
      <point x="692" y="1172" type="line"/>
      <point x="496" y="1172" type="line"/>
      <point x="381" y="1539" type="line"/>
      <point x="369" y="1539" type="line"/>
      <point x="257" y="1172" type="line"/>
      <point x="62" y="1172" type="line"/>
    </contour>
  </outline>
</glyph>
<glyph name="caron" format="1">
  <advance width="703"/>
  <unicode hex="02C7"/>
  <outline>
    <contour>
      <point x="60" y="1681" type="line"/>
      <point x="246" y="1681" type="line"/>
      <point x="344" y="1309" type="line"/>
      <point x="358" y="1309" type="line"/>
      <point x="458" y="1681" type="line"/>
      <point x="642" y="1681" type="line"/>
      <point x="443" y="1186" type="line"/>
      <point x="260" y="1186" type="line"/>
    </contour>
  </outline>
</glyph>
<glyph name="breve" format="1">
  <advance width="861"/>
  <unicode hex="02D8"/>
  <outline>
    <contour>
      <point x="431" y="1190" type="qcurve"/>
      <point x="365" y="1190"/>
      <point x="255" y="1224"/>
      <point x="169" y="1279"/>
      <point x="106" y="1349"/>
      <point x="85" y="1384" type="qcurve"/>
      <point x="162" y="1456" type="line"/>
      <point x="206" y="1399"/>
      <point x="338" y="1322"/>
      <point x="431" y="1322" type="qcurve"/>
      <point x="479" y="1322"/>
      <point x="560" y="1344"/>
      <point x="627" y="1381"/>
      <point x="680" y="1430"/>
      <point x="700" y="1456" type="qcurve"/>
      <point x="775" y="1384" type="line"/>
      <point x="757" y="1352"/>
      <point x="699" y="1284"/>
      <point x="614" y="1227"/>
      <point x="502" y="1190"/>
    </contour>
  </outline>
</glyph>
<glyph name="dotaccent" format="1">
  <advance width="421"/>
  <unicode hex="02D9"/>
  <outline>
    <contour>
      <point x="293" y="1304" type="qcurve"/>
      <point x="302" y="1287"/>
      <point x="304" y="1251"/>
      <point x="294" y="1218"/>
      <point x="272" y="1190"/>
      <point x="256" y="1183" type="qcurve"/>
      <point x="222" y="1167"/>
      <point x="152" y="1191"/>
      <point x="135" y="1226" type="qcurve"/>
      <point x="126" y="1242"/>
      <point x="124" y="1279"/>
      <point x="135" y="1312"/>
      <point x="157" y="1339"/>
      <point x="174" y="1347" type="qcurve"/>
      <point x="206" y="1363"/>
      <point x="276" y="1339"/>
    </contour>
  </outline>
</glyph>
<glyph name="ring" format="1">
  <advance width="579"/>
  <unicode hex="02DA"/>
  <outline>
    <contour>
      <point x="299" y="1102" type="qcurve"/>
      <point x="243" y="1102"/>
      <point x="151" y="1135"/>
      <point x="84" y="1198"/>
      <point x="47" y="1289"/>
      <point x="47" y="1347" type="qcurve"/>
      <point x="47" y="1403"/>
      <point x="84" y="1492"/>
      <point x="151" y="1554"/>
      <point x="243" y="1587"/>
      <point x="299" y="1587" type="qcurve"/>
      <point x="353" y="1587"/>
      <point x="443" y="1554"/>
      <point x="508" y="1492"/>
      <point x="545" y="1403"/>
      <point x="545" y="1347" type="qcurve"/>
      <point x="545" y="1288"/>
      <point x="508" y="1197"/>
      <point x="442" y="1135"/>
      <point x="352" y="1102"/>
    </contour>
    <contour>
      <point x="299" y="1195" type="qcurve"/>
      <point x="340" y="1195"/>
      <point x="395" y="1224"/>
      <point x="428" y="1268"/>
      <point x="441" y="1322"/>
      <point x="441" y="1347" type="qcurve"/>
      <point x="441" y="1370"/>
      <point x="428" y="1422"/>
      <point x="395" y="1466"/>
      <point x="341" y="1495"/>
      <point x="299" y="1495" type="qcurve"/>
      <point x="249" y="1495"/>
      <point x="190" y="1464"/>
      <point x="160" y="1419"/>
      <point x="152" y="1367"/>
      <point x="152" y="1347" type="qcurve"/>
      <point x="152" y="1323"/>
      <point x="167" y="1269"/>
      <point x="202" y="1224"/>
      <point x="258" y="1195"/>
    </contour>
  </outline>
</glyph>
<glyph name="ogonek" format="1">
  <advance width="591"/>
  <unicode hex="02DB"/>
  <outline>
    <contour>
      <point x="526" y="-428" type="line"/>
      <point x="510" y="-439"/>
      <point x="486" y="-448" type="qcurve"/>
      <point x="466" y="-456"/>
      <point x="406" y="-468"/>
      <point x="364" y="-468" type="qcurve"/>
      <point x="290" y="-468"/>
      <point x="184" y="-427"/>
      <point x="114" y="-358"/>
      <point x="81" y="-268"/>
      <point x="81" y="-218" type="qcurve"/>
      <point x="81" y="-152"/>
      <point x="133" y="-54"/>
      <point x="216" y="17"/>
      <point x="320" y="62"/>
      <point x="373" y="75" type="qcurve"/>
      <point x="373" y="12" type="line"/>
      <point x="289" y="-20"/>
      <point x="202" y="-127"/>
      <point x="202" y="-193" type="qcurve"/>
      <point x="202" y="-277"/>
      <point x="286" y="-351"/>
      <point x="373" y="-351" type="qcurve"/>
      <point x="410" y="-351"/>
      <point x="470" y="-338"/>
      <point x="493" y="-330" type="qcurve"/>
      <point x="519" y="-321"/>
      <point x="540" y="-309" type="qcurve"/>
    </contour>
  </outline>
</glyph>
<glyph name="tilde" format="1">
  <advance width="893"/>
  <unicode hex="02DC"/>
  <outline>
    <contour>
      <point x="297" y="1414" type="qcurve"/>
      <point x="340" y="1414"/>
      <point x="421" y="1379"/>
      <point x="495" y="1338"/>
      <point x="561" y="1303"/>
      <point x="590" y="1303" type="qcurve"/>
      <point x="606" y="1303"/>
      <point x="627" y="1320"/>
      <point x="637" y="1347"/>
      <point x="641" y="1382"/>
      <point x="641" y="1401" type="qcurve"/>
      <point x="772" y="1401" type="line"/>
      <point x="772" y="1394" type="line"/>
      <point x="772" y="1329"/>
      <point x="743" y="1245"/>
      <point x="695" y="1196"/>
      <point x="634" y="1177"/>
      <point x="601" y="1177" type="qcurve"/>
      <point x="590" y="1178"/>
      <point x="572" y="1179"/>
      <point x="563" y="1181" type="qcurve"/>
      <point x="524" y="1189"/>
      <point x="448" y="1223"/>
      <point x="382" y="1258"/>
      <point x="326" y="1285"/>
      <point x="307" y="1285" type="qcurve"/>
      <point x="291" y="1285"/>
      <point x="271" y="1269"/>
      <point x="259" y="1242"/>
      <point x="255" y="1205"/>
      <point x="255" y="1184" type="qcurve"/>
      <point x="123" y="1184" type="line"/>
      <point x="123" y="1198" type="line"/>
      <point x="123" y="1262"/>
      <point x="153" y="1345"/>
      <point x="201" y="1394"/>
      <point x="263" y="1414"/>
    </contour>
  </outline>
</glyph>
<glyph name="uni0311" format="1">
  <advance width="861"/>
  <unicode hex="0311"/>
  <outline>
    <contour>
      <point x="431" y="1456" type="qcurve"/>
      <point x="502" y="1456"/>
      <point x="614" y="1419"/>
      <point x="699" y="1362"/>
      <point x="757" y="1293"/>
      <point x="775" y="1262" type="qcurve"/>
      <point x="700" y="1190" type="line"/>
      <point x="680" y="1217"/>
      <point x="627" y="1265"/>
      <point x="560" y="1302"/>
      <point x="479" y="1324"/>
      <point x="431" y="1324" type="qcurve"/>
      <point x="338" y="1324"/>
      <point x="206" y="1247"/>
      <point x="162" y="1190" type="qcurve"/>
      <point x="85" y="1262" type="line"/>
      <point x="106" y="1297"/>
      <point x="169" y="1367"/>
      <point x="255" y="1422"/>
      <point x="365" y="1456"/>
    </contour>
  </outline>
</glyph>
<glyph name="uni0326" format="1">
  <advance width="441"/>
  <unicode hex="0326"/>
  <outline>
    <contour>
      <point x="119" y="-125" type="line"/>
      <point x="344" y="-109" type="line"/>
      <point x="347" y="-133"/>
      <point x="350" y="-161" type="qcurve"/>
      <point x="352" y="-185"/>
      <point x="356" y="-247"/>
      <point x="356" y="-282" type="qcurve"/>
      <point x="356" y="-328"/>
      <point x="336" y="-408"/>
      <point x="290" y="-472"/>
      <point x="212" y="-522"/>
      <point x="155" y="-538" type="qcurve"/>
      <point x="127" y="-458" type="line"/>
      <point x="183" y="-451"/>
      <point x="239" y="-378"/>
      <point x="239" y="-325" type="qcurve"/>
      <point x="119" y="-325" type="line"/>
    </contour>
  </outline>
</glyph>
<glyph name="pi" format="1">
  <advance width="1204"/>
  <unicode hex="03C0"/>
  <outline>
    <contour>
      <point x="805" y="866" type="line"/>
      <point x="570" y="866" type="line"/>
      <point x="462" y="421" type="line"/>
      <point x="436" y="319"/>
      <point x="376" y="176"/>
      <point x="311" y="82"/>
      <point x="243" y="29"/>
      <point x="173" y="3"/>
      <point x="104" y="-3"/>
      <point x="71" y="-3" type="qcurve"/>
      <point x="69" y="6"/>
      <point x="59" y="47"/>
      <point x="48" y="91"/>
      <point x="38" y="131"/>
      <point x="36" y="140" type="qcurve"/>
      <point x="84" y="140"/>
      <point x="161" y="166"/>
      <point x="224" y="236"/>
      <point x="278" y="358"/>
      <point x="304" y="455" type="qcurve"/>
      <point x="316" y="501"/>
      <point x="344" y="606"/>
      <point x="373" y="715"/>
      <point x="401" y="820"/>
      <point x="413" y="866" type="qcurve"/>
      <point x="219" y="866" type="line"/>
      <point x="224" y="898"/>
      <point x="236" y="964"/>
      <point x="242" y="997" type="qcurve"/>
      <point x="1163" y="997" type="line"/>
      <point x="1157" y="964"/>
      <point x="1146" y="898"/>
      <point x="1140" y="866" type="qcurve"/>
      <point x="970" y="866" type="line"/>
      <point x="949" y="732"/>
      <point x="908" y="468"/>
      <point x="887" y="334" type="qcurve"/>
      <point x="878" y="277"/>
      <point x="875" y="195"/>
      <point x="891" y="142"/>
      <point x="932" y="116"/>
      <point x="967" y="116" type="qcurve"/>
      <point x="997" y="116"/>
      <point x="1050" y="125"/>
      <point x="1070" y="130" type="qcurve"/>
      <point x="1093" y="136"/>
      <point x="1112" y="145" type="qcurve"/>
      <point x="1104" y="110"/>
      <point x="1088" y="42"/>
      <point x="1080" y="6" type="qcurve"/>
      <point x="1061" y="-2"/>
      <point x="1037" y="-7" type="qcurve"/>
      <point x="1016" y="-12"/>
      <point x="958" y="-20"/>
      <point x="922" y="-20" type="qcurve"/>
      <point x="863" y="-20"/>
      <point x="774" y="18"/>
      <point x="721" y="101"/>
      <point x="706" y="234"/>
      <point x="720" y="329" type="qcurve"/>
    </contour>
  </outline>
</glyph>
<glyph name="emdash" format="1">
  <advance width="1235"/>
  <unicode hex="2014"/>
  <outline>
    <contour>
      <point x="134" y="704" type="line"/>
      <point x="134" y="844" type="line"/>
      <point x="1100" y="844" type="line"/>
      <point x="1100" y="704" type="line"/>
    </contour>
  </outline>
</glyph>
<glyph name="quoteleft" format="1">
  <advance width="471"/>
  <unicode hex="2018"/>
  <outline>
    <contour>
      <point x="359" y="1134" type="line"/>
      <point x="131" y="1118" type="line"/>
      <point x="128" y="1144"/>
      <point x="125" y="1172" type="qcurve"/>
      <point x="123" y="1196"/>
      <point x="119" y="1258"/>
      <point x="119" y="1290" type="qcurve"/>
      <point x="119" y="1398"/>
      <point x="220" y="1531"/>
      <point x="336" y="1566" type="qcurve"/>
      <point x="364" y="1486" type="line"/>
      <point x="329" y="1481"/>
      <point x="276" y="1452"/>
      <point x="242" y="1411"/>
      <point x="225" y="1363"/>
      <point x="225" y="1339" type="qcurve"/>
      <point x="359" y="1339" type="line"/>
    </contour>
  </outline>
</glyph>
<glyph name="quoteright" format="1">
  <advance width="441"/>
  <unicode hex="2019"/>
  <outline>
    <contour>
      <point x="117" y="1537" type="line"/>
      <point x="345" y="1553" type="line"/>
      <point x="348" y="1527"/>
      <point x="351" y="1499" type="qcurve"/>
      <point x="353" y="1475"/>
      <point x="357" y="1413"/>
      <point x="357" y="1381" type="qcurve"/>
      <point x="357" y="1272"/>
      <point x="256" y="1139"/>
      <point x="140" y="1104" type="qcurve"/>
      <point x="112" y="1185" type="line"/>
      <point x="147" y="1190"/>
      <point x="199" y="1219"/>
      <point x="233" y="1260"/>
      <point x="250" y="1309"/>
      <point x="250" y="1333" type="qcurve"/>
      <point x="117" y="1333" type="line"/>
    </contour>
  </outline>
</glyph>
<glyph name="quotesinglbase" format="1">
  <advance width="481"/>
  <unicode hex="201A"/>
  <outline>
    <contour>
      <point x="338" y="205" type="line"/>
      <point x="341" y="185"/>
      <point x="344" y="160" type="qcurve"/>
      <point x="346" y="139"/>
      <point x="350" y="82"/>
      <point x="350" y="47" type="qcurve"/>
      <point x="350" y="-71"/>
      <point x="253" y="-189"/>
      <point x="151" y="-198" type="qcurve"/>
      <point x="151" y="-197"/>
      <point x="145" y="-178"/>
      <point x="139" y="-156"/>
      <point x="134" y="-137"/>
      <point x="134" y="-136" type="qcurve"/>
      <point x="172" y="-130"/>
      <point x="219" y="-106"/>
      <point x="245" y="-73"/>
      <point x="254" y="-30"/>
      <point x="254" y="-3" type="qcurve"/>
      <point x="133" y="-3" type="line"/>
      <point x="133" y="195" type="line"/>
    </contour>
  </outline>
</glyph>
<glyph name="quotedblleft" format="1">
  <advance width="824"/>
  <unicode hex="201C"/>
  <outline>
    <contour>
      <point x="712" y="1129" type="line"/>
      <point x="484" y="1113" type="line"/>
      <point x="481" y="1138"/>
      <point x="478" y="1167" type="qcurve"/>
      <point x="476" y="1191"/>
      <point x="473" y="1254"/>
      <point x="473" y="1286" type="qcurve"/>
      <point x="473" y="1394"/>
      <point x="575" y="1527"/>
      <point x="691" y="1562" type="qcurve"/>
      <point x="717" y="1481" type="line"/>
      <point x="682" y="1476"/>
      <point x="631" y="1446"/>
      <point x="598" y="1406"/>
      <point x="581" y="1358"/>
      <point x="581" y="1334" type="qcurve"/>
      <point x="712" y="1334" type="line"/>
    </contour>
    <contour>
      <point x="361" y="1129" type="line"/>
      <point x="133" y="1113" type="line"/>
      <point x="130" y="1138"/>
      <point x="127" y="1167" type="qcurve"/>
      <point x="125" y="1191"/>
      <point x="121" y="1254"/>
      <point x="121" y="1286" type="qcurve"/>
      <point x="121" y="1394"/>
      <point x="222" y="1527"/>
      <point x="338" y="1562" type="qcurve"/>
      <point x="366" y="1481" type="line"/>
      <point x="331" y="1476"/>
      <point x="278" y="1446"/>
      <point x="244" y="1406"/>
      <point x="227" y="1358"/>
      <point x="227" y="1334" type="qcurve"/>
      <point x="361" y="1334" type="line"/>
    </contour>
  </outline>
</glyph>
<glyph name="quotedblright" format="1">
  <advance width="792"/>
  <unicode hex="201D"/>
  <outline>
    <contour>
      <point x="470" y="1542" type="line"/>
      <point x="698" y="1557" type="line"/>
      <point x="700" y="1531"/>
      <point x="703" y="1503" type="qcurve"/>
      <point x="705" y="1479"/>
      <point x="709" y="1418"/>
      <point x="709" y="1386" type="qcurve"/>
      <point x="709" y="1277"/>
      <point x="608" y="1144"/>
      <point x="492" y="1109" type="qcurve"/>
      <point x="465" y="1190" type="line"/>
      <point x="500" y="1195"/>
      <point x="552" y="1224"/>
      <point x="586" y="1264"/>
      <point x="603" y="1313"/>
      <point x="603" y="1337" type="qcurve"/>
      <point x="470" y="1337" type="line"/>
    </contour>
    <contour>
      <point x="116" y="1542" type="line"/>
      <point x="345" y="1557" type="line"/>
      <point x="347" y="1531"/>
      <point x="350" y="1503" type="qcurve"/>
      <point x="352" y="1479"/>
      <point x="355" y="1418"/>
      <point x="355" y="1386" type="qcurve"/>
      <point x="355" y="1277"/>
      <point x="254" y="1144"/>
      <point x="138" y="1109" type="qcurve"/>
      <point x="111" y="1190" type="line"/>
      <point x="146" y="1195"/>
      <point x="197" y="1224"/>
      <point x="231" y="1265"/>
      <point x="247" y="1313"/>
      <point x="247" y="1337" type="qcurve"/>
      <point x="116" y="1337" type="line"/>
    </contour>
  </outline>
</glyph>
<glyph name="quotedblbase" format="1">
  <advance width="772"/>
  <unicode hex="201E"/>
  <outline>
    <contour>
      <point x="631" y="205" type="line"/>
      <point x="633" y="185"/>
      <point x="636" y="160" type="qcurve"/>
      <point x="638" y="139"/>
      <point x="641" y="83"/>
      <point x="641" y="50" type="qcurve"/>
      <point x="641" y="-63"/>
      <point x="548" y="-189"/>
      <point x="443" y="-198" type="qcurve"/>
      <point x="443" y="-197"/>
      <point x="437" y="-178"/>
      <point x="431" y="-156"/>
      <point x="425" y="-137"/>
      <point x="425" y="-136" type="qcurve"/>
      <point x="464" y="-130"/>
      <point x="511" y="-106"/>
      <point x="537" y="-72"/>
      <point x="545" y="-29"/>
      <point x="545" y="-3" type="qcurve"/>
      <point x="426" y="-3" type="line"/>
      <point x="426" y="195" type="line"/>
    </contour>
    <contour>
      <point x="338" y="205" type="line"/>
      <point x="341" y="185"/>
      <point x="344" y="160" type="qcurve"/>
      <point x="346" y="139"/>
      <point x="350" y="83"/>
      <point x="350" y="50" type="qcurve"/>
      <point x="350" y="-63"/>
      <point x="256" y="-189"/>
      <point x="151" y="-198" type="qcurve"/>
      <point x="151" y="-197"/>
      <point x="145" y="-178"/>
      <point x="139" y="-156"/>
      <point x="133" y="-137"/>
      <point x="133" y="-136" type="qcurve"/>
      <point x="172" y="-130"/>
      <point x="219" y="-106"/>
      <point x="244" y="-72"/>
      <point x="253" y="-29"/>
      <point x="253" y="-3" type="qcurve"/>
      <point x="133" y="-3" type="line"/>
      <point x="133" y="195" type="line"/>
    </contour>
  </outline>
</glyph>
<glyph name="daggerdbl" format="1">
  <advance width="831"/>
  <unicode hex="2021"/>
  <outline>
    <contour>
      <point x="117" y="410" type="line"/>
      <point x="117" y="522" type="line"/>
      <point x="332" y="522" type="line"/>
      <point x="332" y="867" type="line"/>
      <point x="117" y="867" type="line"/>
      <point x="117" y="979" type="line"/>
      <point x="332" y="979" type="line"/>
      <point x="332" y="1252" type="line"/>
      <point x="497" y="1252" type="line"/>
      <point x="497" y="979" type="line"/>
      <point x="714" y="979" type="line"/>
      <point x="714" y="867" type="line"/>
      <point x="497" y="867" type="line"/>
      <point x="497" y="522" type="line"/>
      <point x="714" y="522" type="line"/>
      <point x="714" y="410" type="line"/>
      <point x="497" y="410" type="line"/>
      <point x="497" y="129" type="line"/>
      <point x="332" y="129" type="line"/>
      <point x="332" y="410" type="line"/>
    </contour>
  </outline>
</glyph>
<glyph name="bullet" format="1">
  <advance width="926"/>
  <unicode hex="2022"/>
  <outline>
    <contour>
      <point x="811" y="607" type="qcurve"/>
      <point x="811" y="521"/>
      <point x="749" y="393"/>
      <point x="649" y="307"/>
      <point x="525" y="264"/>
      <point x="464" y="264" type="qcurve"/>
      <point x="384" y="264"/>
      <point x="256" y="319"/>
      <point x="165" y="413"/>
      <point x="116" y="537"/>
      <point x="116" y="605" type="qcurve"/>
      <point x="116" y="677"/>
      <point x="168" y="802"/>
      <point x="261" y="895"/>
      <point x="389" y="949"/>
      <point x="464" y="949" type="qcurve"/>
      <point x="539" y="949"/>
      <point x="666" y="894"/>
      <point x="759" y="801"/>
      <point x="811" y="676"/>
    </contour>
  </outline>
</glyph>
<glyph name="perthousand" format="1">
  <advance width="2025"/>
  <unicode hex="2030"/>
  <outline>
    <contour>
      <point x="1073" y="1481" type="line"/>
      <point x="1186" y="1414" type="line"/>
      <point x="305" y="-87" type="line"/>
      <point x="196" y="-21" type="line"/>
    </contour>
    <contour>
      <point x="84" y="1098" type="qcurve"/>
      <point x="84" y="1183"/>
      <point x="124" y="1310"/>
      <point x="196" y="1395"/>
      <point x="294" y="1437"/>
      <point x="352" y="1437" type="qcurve"/>
      <point x="412" y="1437"/>
      <point x="511" y="1395"/>
      <point x="582" y="1310"/>
      <point x="621" y="1183"/>
      <point x="621" y="1098" type="qcurve"/>
      <point x="621" y="1013"/>
      <point x="582" y="886"/>
      <point x="512" y="802"/>
      <point x="413" y="760"/>
      <point x="352" y="760" type="qcurve"/>
      <point x="293" y="760"/>
      <point x="194" y="802"/>
      <point x="123" y="886"/>
      <point x="84" y="1013"/>
    </contour>
    <contour>
      <point x="498" y="1098" type="qcurve"/>
      <point x="498" y="1153"/>
      <point x="482" y="1240"/>
      <point x="447" y="1301"/>
      <point x="392" y="1334"/>
      <point x="352" y="1334" type="qcurve"/>
      <point x="313" y="1334"/>
      <point x="257" y="1301"/>
      <point x="222" y="1240"/>
      <point x="206" y="1153"/>
      <point x="206" y="1098" type="qcurve"/>
      <point x="206" y="1044"/>
      <point x="222" y="957"/>
      <point x="257" y="896"/>
      <point x="313" y="863"/>
      <point x="352" y="863" type="qcurve"/>
      <point x="431" y="863"/>
      <point x="498" y="989"/>
    </contour>
    <contour>
      <point x="1423" y="310" type="qcurve"/>
      <point x="1423" y="395"/>
      <point x="1461" y="522"/>
      <point x="1532" y="606"/>
      <point x="1630" y="648"/>
      <point x="1690" y="648" type="qcurve"/>
      <point x="1750" y="648"/>
      <point x="1849" y="606"/>
      <point x="1919" y="522"/>
      <point x="1958" y="395"/>
      <point x="1958" y="310" type="qcurve"/>
      <point x="1958" y="225"/>
      <point x="1920" y="98"/>
      <point x="1850" y="13"/>
      <point x="1751" y="-29"/>
      <point x="1690" y="-29" type="qcurve"/>
      <point x="1631" y="-29"/>
      <point x="1533" y="13"/>
      <point x="1463" y="98"/>
      <point x="1423" y="225"/>
    </contour>
    <contour>
      <point x="1835" y="310" type="qcurve"/>
      <point x="1835" y="364"/>
      <point x="1820" y="451"/>
      <point x="1785" y="512"/>
      <point x="1730" y="545"/>
      <point x="1690" y="545" type="qcurve"/>
      <point x="1651" y="545"/>
      <point x="1595" y="512"/>
      <point x="1560" y="451"/>
      <point x="1544" y="364"/>
      <point x="1544" y="310" type="qcurve"/>
      <point x="1544" y="255"/>
      <point x="1560" y="168"/>
      <point x="1595" y="107"/>
      <point x="1651" y="74"/>
      <point x="1690" y="74" type="qcurve"/>
      <point x="1730" y="74"/>
      <point x="1785" y="107"/>
      <point x="1820" y="168"/>
      <point x="1835" y="255"/>
    </contour>
    <contour>
      <point x="754" y="310" type="qcurve"/>
      <point x="754" y="395"/>
      <point x="793" y="522"/>
      <point x="863" y="606"/>
      <point x="962" y="648"/>
      <point x="1022" y="648" type="qcurve"/>
      <point x="1082" y="648"/>
      <point x="1180" y="606"/>
      <point x="1250" y="522"/>
      <point x="1289" y="395"/>
      <point x="1289" y="310" type="qcurve"/>
      <point x="1289" y="225"/>
      <point x="1251" y="98"/>
      <point x="1181" y="13"/>
      <point x="1082" y="-29"/>
      <point x="1022" y="-29" type="qcurve"/>
      <point x="963" y="-29"/>
      <point x="865" y="13"/>
      <point x="794" y="98"/>
      <point x="754" y="225"/>
    </contour>
    <contour>
      <point x="1167" y="310" type="qcurve"/>
      <point x="1167" y="364"/>
      <point x="1151" y="451"/>
      <point x="1117" y="512"/>
      <point x="1062" y="545"/>
      <point x="1022" y="545" type="qcurve"/>
      <point x="982" y="545"/>
      <point x="927" y="512"/>
      <point x="892" y="451"/>
      <point x="876" y="364"/>
      <point x="876" y="310" type="qcurve"/>
      <point x="876" y="255"/>
      <point x="892" y="168"/>
      <point x="927" y="107"/>
      <point x="982" y="74"/>
      <point x="1022" y="74" type="qcurve"/>
      <point x="1101" y="74"/>
      <point x="1167" y="200"/>
    </contour>
  </outline>
</glyph>
<glyph name="guilsinglleft" format="1">
  <advance width="709"/>
  <unicode hex="2039"/>
  <outline>
    <contour>
      <point x="603" y="189" type="line"/>
      <point x="529" y="76" type="line"/>
      <point x="57" y="552" type="line"/>
      <point x="529" y="1026" type="line"/>
      <point x="604" y="914" type="line"/>
      <point x="242" y="552" type="line"/>
    </contour>
  </outline>
</glyph>
<glyph name="foursuperior" format="1">
  <advance width="935"/>
  <unicode hex="2074"/>
  <outline>
    <contour>
      <point x="469" y="963" type="line"/>
      <point x="705" y="956" type="line"/>
      <point x="705" y="335" type="line"/>
      <point x="865" y="335" type="line"/>
      <point x="865" y="215" type="line"/>
      <point x="705" y="215" type="line"/>
      <point x="705" y="0" type="line"/>
      <point x="548" y="-6" type="line"/>
      <point x="548" y="215" type="line"/>
      <point x="88" y="215" type="line"/>
      <point x="45" y="320" type="line"/>
    </contour>
    <contour>
      <point x="548" y="335" type="line"/>
      <point x="548" y="613" type="line"/>
      <point x="552" y="853" type="line"/>
      <point x="396" y="601" type="line"/>
      <point x="222" y="332" type="line"/>
      <point x="408" y="335" type="line"/>
    </contour>
  </outline>
</glyph>
<glyph name="Euro" format="1">
  <advance width="1279"/>
  <unicode hex="20AC"/>
  <outline>
    <contour>
      <point x="80" y="890" type="line"/>
      <point x="204" y="890" type="line"/>
      <point x="223" y="1041"/>
      <point x="325" y="1250"/>
      <point x="478" y="1379"/>
      <point x="673" y="1436"/>
      <point x="786" y="1436" type="qcurve"/>
      <point x="867" y="1436"/>
      <point x="1006" y="1417"/>
      <point x="1057" y="1406" type="qcurve"/>
      <point x="1117" y="1393"/>
      <point x="1165" y="1377" type="qcurve"/>
      <point x="1180" y="1226" type="line"/>
      <point x="1130" y="1243"/>
      <point x="1070" y="1257" type="qcurve"/>
      <point x="1019" y="1268"/>
      <point x="884" y="1288"/>
      <point x="807" y="1288" type="qcurve"/>
      <point x="725" y="1288"/>
      <point x="589" y="1246"/>
      <point x="486" y="1151"/>
      <point x="417" y="1000"/>
      <point x="403" y="890" type="qcurve"/>
      <point x="699" y="890" type="line"/>
      <point x="699" y="762" type="line"/>
      <point x="391" y="762" type="line"/>
      <point x="391" y="718" type="line"/>
      <point x="391" y="700"/>
      <point x="391" y="666"/>
      <point x="392" y="649" type="qcurve"/>
      <point x="701" y="649" type="line"/>
      <point x="701" y="521" type="line"/>
      <point x="406" y="521" type="line"/>
      <point x="419" y="413"/>
      <point x="481" y="261"/>
      <point x="576" y="165"/>
      <point x="706" y="121"/>
      <point x="788" y="121" type="qcurve"/>
      <point x="870" y="121"/>
      <point x="1012" y="142"/>
      <point x="1066" y="156" type="qcurve"/>
      <point x="1128" y="171"/>
      <point x="1180" y="191" type="qcurve"/>
      <point x="1164" y="39" type="line"/>
      <point x="1115" y="20"/>
      <point x="1053" y="5" type="qcurve"/>
      <point x="1000" y="-8"/>
      <point x="854" y="-28"/>
      <point x="766" y="-28" type="qcurve"/>
      <point x="661" y="-28"/>
      <point x="474" y="24"/>
      <point x="327" y="151"/>
      <point x="227" y="362"/>
      <point x="207" y="521" type="qcurve"/>
      <point x="81" y="521" type="line"/>
      <point x="81" y="649" type="line"/>
      <point x="194" y="649" type="line"/>
      <point x="193" y="666"/>
      <point x="192" y="699"/>
      <point x="192" y="716" type="qcurve"/>
      <point x="192" y="722"/>
      <point x="192" y="756"/>
      <point x="193" y="762" type="qcurve"/>
      <point x="80" y="762" type="line"/>
    </contour>
  </outline>
</glyph>
<glyph name="trademark" format="1">
  <advance width="1169"/>
  <unicode hex="2122"/>
  <outline>
    <contour>
      <point x="345" y="1330" type="line"/>
      <point x="345" y="897" type="line"/>
      <point x="248" y="897" type="line"/>
      <point x="248" y="1330" type="line"/>
      <point x="116" y="1330" type="line"/>
      <point x="116" y="1405" type="line"/>
      <point x="478" y="1405" type="line"/>
      <point x="478" y="1330" type="line"/>
    </contour>
    <contour>
      <point x="928" y="897" type="line"/>
      <point x="928" y="1172" type="line"/>
      <point x="940" y="1368" type="line"/>
      <point x="900" y="1186" type="line"/>
      <point x="881" y="1115"/>
      <point x="844" y="977"/>
      <point x="824" y="905" type="qcurve"/>
      <point x="728" y="905" type="line"/>
      <point x="695" y="1019"/>
      <point x="639" y="1247"/>
      <point x="614" y="1363" type="qcurve"/>
      <point x="626" y="1172" type="line"/>
      <point x="626" y="1127" type="line"/>
      <point x="626" y="897" type="line"/>
      <point x="537" y="897" type="line"/>
      <point x="537" y="1405" type="line"/>
      <point x="677" y="1405" type="line"/>
      <point x="692" y="1343"/>
      <point x="725" y="1222"/>
      <point x="739" y="1159" type="qcurve"/>
      <point x="777" y="986" type="line"/>
      <point x="814" y="1184" type="line"/>
      <point x="817" y="1193"/>
      <point x="823" y="1213"/>
      <point x="826" y="1223" type="qcurve"/>
      <point x="877" y="1405" type="line"/>
      <point x="1017" y="1405" type="line"/>
      <point x="1017" y="897" type="line"/>
    </contour>
  </outline>
</glyph>
<glyph name="partialdiff" format="1">
  <advance width="1105"/>
  <unicode hex="2202"/>
  <outline>
    <contour>
      <point x="533" y="1539" type="qcurve"/>
      <point x="624" y="1539"/>
      <point x="760" y="1477"/>
      <point x="858" y="1369"/>
      <point x="922" y="1220"/>
      <point x="959" y="1047"/>
      <point x="974" y="855"/>
      <point x="974" y="757" type="qcurve"/>
      <point x="974" y="524"/>
      <point x="917" y="220"/>
      <point x="802" y="42"/>
      <point x="629" y="-29"/>
      <point x="514" y="-29" type="qcurve"/>
      <point x="461" y="-29"/>
      <point x="358" y="-9"/>
      <point x="264" y="39"/>
      <point x="184" y="118"/>
      <point x="125" y="237"/>
      <point x="92" y="399"/>
      <point x="92" y="505" type="qcurve"/>
      <point x="92" y="621"/>
      <point x="143" y="816"/>
      <point x="244" y="958"/>
      <point x="396" y="1038"/>
      <point x="497" y="1038" type="qcurve"/>
      <point x="569" y="1038"/>
      <point x="682" y="992"/>
      <point x="722" y="965" type="qcurve"/>
      <point x="769" y="933"/>
      <point x="805" y="893" type="qcurve"/>
      <point x="802" y="950"/>
      <point x="794" y="1073"/>
      <point x="775" y="1191"/>
      <point x="738" y="1297"/>
      <point x="673" y="1377"/>
      <point x="574" y="1424"/>
      <point x="503" y="1424" type="qcurve"/>
      <point x="459" y="1424"/>
      <point x="383" y="1410"/>
      <point x="354" y="1402" type="qcurve"/>
      <point x="321" y="1392"/>
      <point x="293" y="1381" type="qcurve"/>
      <point x="293" y="1388"/>
      <point x="297" y="1419"/>
      <point x="300" y="1453"/>
      <point x="304" y="1484"/>
      <point x="304" y="1492" type="qcurve"/>
      <point x="332" y="1504"/>
      <point x="367" y="1515" type="qcurve"/>
      <point x="397" y="1524"/>
      <point x="481" y="1539"/>
    </contour>
    <contour>
      <point x="525" y="109" type="qcurve"/>
      <point x="571" y="109"/>
      <point x="648" y="128"/>
      <point x="711" y="180"/>
      <point x="759" y="270"/>
      <point x="791" y="414"/>
      <point x="806" y="616"/>
      <point x="806" y="753" type="qcurve"/>
      <point x="767" y="792"/>
      <point x="721" y="824" type="qcurve"/>
      <point x="682" y="851"/>
      <point x="579" y="895"/>
      <point x="522" y="896" type="qcurve"/>
      <point x="453" y="897"/>
      <point x="355" y="836"/>
      <point x="293" y="734"/>
      <point x="264" y="603"/>
      <point x="264" y="533" type="qcurve"/>
      <point x="264" y="422"/>
      <point x="296" y="261"/>
      <point x="360" y="158"/>
      <point x="459" y="109"/>
    </contour>
  </outline>
</glyph>
<glyph name="summation" format="1">
  <advance width="1062"/>
  <unicode hex="2211"/>
  <outline>
    <contour>
      <point x="683" y="707" type="line"/>
      <point x="449" y="338" type="line"/>
      <point x="319" y="151" type="line"/>
      <point x="491" y="160" type="line"/>
      <point x="972" y="160" type="line"/>
      <point x="972" y="-3" type="line"/>
      <point x="59" y="-3" type="line"/>
      <point x="497" y="707" type="line"/>
      <point x="72" y="1398" type="line"/>
      <point x="948" y="1398" type="line"/>
      <point x="949" y="1248" type="line"/>
      <point x="496" y="1248" type="line"/>
      <point x="315" y="1253" type="line"/>
      <point x="455" y="1059" type="line"/>
    </contour>
  </outline>
</glyph>
<glyph name="radical" format="1">
  <advance width="1153"/>
  <unicode hex="221A"/>
  <outline>
    <contour>
      <point x="30" y="895" type="line"/>
      <point x="339" y="895" type="line"/>
      <point x="343" y="880"/>
      <point x="364" y="808"/>
      <point x="394" y="711"/>
      <point x="429" y="596"/>
      <point x="466" y="477"/>
      <point x="501" y="361"/>
      <point x="529" y="264"/>
      <point x="550" y="192"/>
      <point x="553" y="176" type="qcurve"/>
      <point x="562" y="206"/>
      <point x="603" y="337"/>
      <point x="658" y="514"/>
      <point x="724" y="723"/>
      <point x="792" y="938"/>
      <point x="857" y="1147"/>
      <point x="913" y="1324"/>
      <point x="954" y="1455"/>
      <point x="963" y="1485" type="qcurve"/>
      <point x="1125" y="1435" type="line"/>
      <point x="1112" y="1400"/>
      <point x="1063" y="1254"/>
      <point x="999" y="1061"/>
      <point x="925" y="833"/>
      <point x="848" y="599"/>
      <point x="774" y="371"/>
      <point x="711" y="177"/>
      <point x="662" y="31"/>
      <point x="649" y="-4" type="qcurve"/>
      <point x="458" y="-4" type="line"/>
      <point x="180" y="812" type="line"/>
      <point x="30" y="812" type="line"/>
    </contour>
  </outline>
</glyph>
<glyph name="infinity" format="1">
  <advance width="1972"/>
  <unicode hex="221E"/>
  <outline>
    <contour>
      <point x="911" y="643" type="qcurve"/>
      <point x="896" y="660"/>
      <point x="851" y="719"/>
      <point x="793" y="787"/>
      <point x="725" y="856"/>
      <point x="649" y="913"/>
      <point x="568" y="949"/>
      <point x="526" y="949" type="qcurve"/>
      <point x="470" y="949"/>
      <point x="375" y="912"/>
      <point x="305" y="836"/>
      <point x="266" y="721"/>
      <point x="266" y="644" type="qcurve"/>
      <point x="266" y="564"/>
      <point x="305" y="447"/>
      <point x="373" y="370"/>
      <point x="467" y="332"/>
      <point x="523" y="332" type="qcurve"/>
      <point x="571" y="332"/>
      <point x="656" y="366"/>
      <point x="730" y="420"/>
      <point x="794" y="488"/>
      <point x="848" y="557"/>
      <point x="893" y="621"/>
    </contour>
    <contour>
      <point x="1703" y="645" type="qcurve"/>
      <point x="1703" y="722"/>
      <point x="1660" y="836"/>
      <point x="1588" y="911"/>
      <point x="1493" y="948"/>
      <point x="1440" y="948" type="qcurve"/>
      <point x="1396" y="948"/>
      <point x="1316" y="914"/>
      <point x="1244" y="861"/>
      <point x="1181" y="793"/>
      <point x="1126" y="725"/>
      <point x="1081" y="662"/>
      <point x="1064" y="641" type="qcurve"/>
      <point x="1082" y="619"/>
      <point x="1128" y="557"/>
      <point x="1184" y="490"/>
      <point x="1249" y="424"/>
      <point x="1321" y="371"/>
      <point x="1399" y="339"/>
      <point x="1440" y="339" type="qcurve"/>
      <point x="1496" y="339"/>
      <point x="1592" y="376"/>
      <point x="1663" y="452"/>
      <point x="1703" y="567"/>
    </contour>
    <contour>
      <point x="1842" y="645" type="qcurve"/>
      <point x="1842" y="546"/>
      <point x="1783" y="386"/>
      <point x="1679" y="275"/>
      <point x="1537" y="215"/>
      <point x="1453" y="215" type="qcurve"/>
      <point x="1370" y="215"/>
      <point x="1247" y="263"/>
      <point x="1144" y="349"/>
      <point x="1047" y="468"/>
      <point x="991" y="538" type="qcurve"/>
      <point x="934" y="466"/>
      <point x="831" y="347"/>
      <point x="721" y="261"/>
      <point x="597" y="213"/>
      <point x="520" y="213" type="qcurve"/>
      <point x="432" y="213"/>
      <point x="288" y="273"/>
      <point x="185" y="384"/>
      <point x="129" y="544"/>
      <point x="129" y="644" type="qcurve"/>
      <point x="129" y="736"/>
      <point x="185" y="892"/>
      <point x="287" y="1006"/>
      <point x="430" y="1070"/>
      <point x="516" y="1070" type="qcurve"/>
      <point x="599" y="1070"/>
      <point x="725" y="1020"/>
      <point x="831" y="933"/>
      <point x="930" y="814"/>
      <point x="987" y="745" type="qcurve"/>
      <point x="1045" y="818"/>
      <point x="1143" y="938"/>
      <point x="1247" y="1024"/>
      <point x="1369" y="1072"/>
      <point x="1450" y="1072" type="qcurve"/>
      <point x="1539" y="1072"/>
      <point x="1684" y="1009"/>
      <point x="1786" y="895"/>
      <point x="1842" y="738"/>
    </contour>
  </outline>
</glyph>
<glyph name="integral" format="1">
  <advance width="882"/>
  <unicode hex="222B"/>
  <outline>
    <contour>
      <point x="526" y="886" type="line"/>
      <point x="526" y="111" type="line"/>
      <point x="526" y="6"/>
      <point x="498" y="-173"/>
      <point x="421" y="-299"/>
      <point x="284" y="-362"/>
      <point x="175" y="-352" type="qcurve"/>
      <point x="145" y="-350"/>
      <point x="97" y="-338"/>
      <point x="80" y="-332" type="qcurve"/>
      <point x="60" y="-325"/>
      <point x="45" y="-317" type="qcurve"/>
      <point x="28" y="-195" type="line"/>
      <point x="51" y="-203"/>
      <point x="77" y="-208" type="qcurve"/>
      <point x="99" y="-213"/>
      <point x="156" y="-220"/>
      <point x="185" y="-220" type="qcurve"/>
      <point x="232" y="-220"/>
      <point x="294" y="-201"/>
      <point x="331" y="-150"/>
      <point x="346" y="-61"/>
      <point x="346" y="9" type="qcurve"/>
      <point x="345" y="886" type="line"/>
      <point x="168" y="886" type="line"/>
      <point x="168" y="991" type="line"/>
      <point x="345" y="991" type="line"/>
      <point x="348" y="1106"/>
      <point x="377" y="1286"/>
      <point x="454" y="1408"/>
      <point x="588" y="1464"/>
      <point x="696" y="1454" type="qcurve"/>
      <point x="725" y="1452"/>
      <point x="774" y="1441"/>
      <point x="791" y="1435" type="qcurve"/>
      <point x="811" y="1428"/>
      <point x="826" y="1419" type="qcurve"/>
      <point x="842" y="1296" type="line"/>
      <point x="819" y="1303"/>
      <point x="793" y="1309" type="qcurve"/>
      <point x="771" y="1314"/>
      <point x="715" y="1322"/>
      <point x="686" y="1322" type="qcurve"/>
      <point x="641" y="1322"/>
      <point x="579" y="1303"/>
      <point x="541" y="1252"/>
      <point x="525" y="1162"/>
      <point x="525" y="1092" type="qcurve"/>
      <point x="525" y="991" type="line"/>
      <point x="799" y="991" type="line"/>
      <point x="799" y="886" type="line"/>
    </contour>
  </outline>
</glyph>
